<svg xmlns="http://www.w3.org/2000/svg" width="358.43" height="355.876" viewBox="0 0 358.43 355.876">
  <g id="Group_73" data-name="Group 73" transform="translate(-201.666 -699.124)">
    <path id="Path_1537" data-name="Path 1537" d="M546.178,705.8c-2.531,3.681-2.681,7.866-2.04,12.051a14.262,14.262,0,0,0-7.444-2.182c-3-.044-7.282.833-9.533,2.991-4.005,3.843-4.577,10.907-2.388,15.963a14.37,14.37,0,0,0-6.331-1.548c-3-.044-7.282.833-9.533,2.991-4.3,4.123-4.638,11.977-1.859,17.057-5.174-2.642-12.817-2.22-16.884,2.115-2.039,2.17-2.853,6.256-2.873,9.11a14.373,14.373,0,0,0,2.027,7.518c-5.316-1.946-12.9-.827-16.336,3.856-3.488,4.745-2.419,12.549,1.076,17-5.516-1.269-12.81,1.013-15.683,6.044-1.474,2.587-1.331,6.747-.7,9.533a14.184,14.184,0,0,0,4.123,7.232c-5.809-.733-13.725,2.886-15.366,8.9-1.549,5.684,1.573,12.58,6.385,15.665a13.864,13.864,0,0,0,1.574.858,13.988,13.988,0,0,0-2.276.05c-5.423.578-12.052,5.522-12.773,11.3-.709,5.74,3.805,12.1,8.874,14.3a14.816,14.816,0,0,0,4.2,1.1,15.314,15.314,0,0,0-6.032,6.448c-1.841-4.949-7.214-9.837-12.612-9.837-5.174,0-10.323,4.483-12.362,9.222-2.04-4.733-7.19-9.222-12.363-9.222-5.777,0-11.535,5.6-12.954,10.888-2.337-3.283-5.186-6.162-9.271-7.188-4.117-1.033-10.242-.311-13.407,2.854s-3.887,9.291-2.855,13.407c1.026,4.086,3.906,6.934,7.189,9.272-5.292,1.418-10.889,7.176-10.889,12.954,0,5.174,4.489,10.323,9.222,12.362-4.739,2.04-9.222,7.189-9.222,12.363,0,5.4,4.888,10.771,9.838,12.611a15.323,15.323,0,0,0-6.449,6.032,14.818,14.818,0,0,0-1.1-4.2c-2.207-5.069-8.562-9.583-14.3-8.874-5.783.721-10.726,7.35-11.305,12.773a14.1,14.1,0,0,0-.05,2.276,13.935,13.935,0,0,0-.857-1.574c-3.085-4.813-9.982-7.935-15.665-6.386-6.014,1.641-9.633,9.558-8.9,15.366a14.2,14.2,0,0,0-7.232-4.123c-2.787-.634-6.947-.777-9.533.7-5.032,2.873-7.314,10.167-6.045,15.683-4.453-3.495-12.257-4.565-17-1.076-4.683,3.439-5.8,11.019-3.856,16.336a14.368,14.368,0,0,0-7.518-2.027c-2.855.019-6.941.833-9.111,2.873-4.334,4.067-4.757,11.71-2.114,16.884-5.081-2.78-12.935-2.444-17.058,1.859-2.158,2.251-3.035,6.536-2.991,9.533a14.383,14.383,0,0,0,1.548,6.331c-5.056-2.189-12.119-1.617-15.963,2.388-2.157,2.251-3.034,6.535-2.991,9.533a14.259,14.259,0,0,0,2.183,7.443c-4.185-.64-8.371-.491-12.051,2.04-3.259,2.245-6.68,6.828-6.68,10.988,0,.125.014.252.019.377h2.283c-.007-.126-.02-.251-.02-.377,0-3.88,3.241-7.972,6.505-9.8,3.75-2.1,7.96-1.561,11.978-.678a29.859,29.859,0,0,0,5.883,4.577c-.915-.2-1.836-.4-2.755-.591-2.631-.541-5.368-1.194-8.073-.883-3.457.392-8.27,3.346-8.27,7.375,0,.128.018.252.028.377h2.316a3.379,3.379,0,0,1-.025-.377c0-2.3,2.525-4.278,4.571-4.925,2.375-.746,4.875-.286,7.251.162,4,.752,7.972,1.71,11.909,2.73a1.271,1.271,0,0,0,.3.031c.932.466,1.852.927,2.742,1.381a1.1,1.1,0,0,0-.2.621,1.151,1.151,0,0,0,.076.377h2.8c-.119-.125-.237-.251-.356-.377,8.2-8.656,16.324-17.368,24.72-25.838C295.866,998,332.519,968.44,378.237,969.646c-4.122,2.792-7.567,8.812-6.585,13.756a9.232,9.232,0,0,0,.318,1.2,87.173,87.173,0,0,0-28.252,4.353c-33.99,11.193-58.79,39.743-82.639,64.916a1.054,1.054,0,0,0-.23,1.129h3.435c-.1-.125-.206-.252-.307-.377,4.85-5.982,10.633-12.611,18.768-13.37,7.449-.7,16.392,5.249,16.392,13.37,0,.128-.022.25-.026.377h2.073c.007-.126.031-.249.032-.377a7.878,7.878,0,0,0-.1-1.194,17.69,17.69,0,0,0-.988-3.575q3.5-.831,6.921-1.891a80.148,80.148,0,0,1,9.638-1.349c5.374-.4,12.73,1.144,12.73,8.009,0,.132-.02.249-.025.377h2.137c.005-.126.022-.249.022-.377,0-5.7-5.063-9.638-10.336-10.161a33.477,33.477,0,0,0-4.415-.124,22.139,22.139,0,0,0,4.769-2.786,11.318,11.318,0,0,0,2.569-2.886,1.025,1.025,0,0,0,.192-.018,314.867,314.867,0,0,1,62.61-5.852,8.853,8.853,0,0,0,.74,1.9c2.91,5.484,11.094,7.468,16.6,5.59a23.744,23.744,0,0,0-5,14.34c0,.126.014.251.015.377h2.128c0-.125-.01-.251-.01-.377a21.942,21.942,0,0,1,6.356-15.142c4.1-4.1,9.291-5.87,14.974-6.337q1.773,2.8,3.706,5.5c-9.16-.54-17.685,6.182-17.685,15.982,0,.129.017.25.02.377h2.135c0-.127-.022-.248-.022-.377,0-9.041,8.469-15.2,17.013-13.693a.8.8,0,0,0,.243.019,110.733,110.733,0,0,0,12.1,13.606c0,.024,0,.047-.005.068s0,.045.005.069c-.105.1-.205.207-.31.308h2.407c0-.125-.007-.251-.007-.377a55.866,55.866,0,0,1,3.016-18.326,54.627,54.627,0,0,1,7.917-15.565,64.707,64.707,0,0,1,11.777-12.095c9.552-7.55,20.97-11.02,32.983-12.089a1.218,1.218,0,0,0,1.064-1.064c1.07-12.014,4.54-23.431,12.089-32.983a64.8,64.8,0,0,1,12.1-11.778,54.63,54.63,0,0,1,15.566-7.916,55.831,55.831,0,0,1,18.326-3.016c.977,0,1.954.03,2.93.078v-5.05c-.968.943-1.926,1.9-2.862,2.882-.024,0-.046,0-.068-.005s-.045,0-.068.005a110.74,110.74,0,0,0-13.607-12.095.832.832,0,0,0-.018-.243c-1.512-8.544,4.651-17.014,13.693-17.014a13.86,13.86,0,0,1,2.93.324V906.5a16.082,16.082,0,0,0-2.93-.286c-9.8,0-16.523,8.526-15.982,17.686q-2.7-1.93-5.5-3.706c.467-5.684,2.233-10.87,6.337-14.975a21.945,21.945,0,0,1,15.143-6.355,19.881,19.881,0,0,1,2.93.224v-2.148a20.856,20.856,0,0,0-2.93-.209,23.742,23.742,0,0,0-14.341,5c1.879-5.5-.105-13.688-5.59-16.6a8.894,8.894,0,0,0-1.9-.74,314.78,314.78,0,0,1,5.851-62.609,1.042,1.042,0,0,0,.019-.193,11.347,11.347,0,0,0,2.885-2.568,22.15,22.15,0,0,0,2.786-4.77,33.344,33.344,0,0,0,.125,4.416c.522,5.273,4.465,10.335,10.161,10.335a9.114,9.114,0,0,0,2.93-.48v-2.214a7.586,7.586,0,0,1-2.93.561c-6.865,0-8.414-7.357-8.01-12.73a79.966,79.966,0,0,1,1.35-9.638q1.064-3.425,1.891-6.922a17.693,17.693,0,0,0,3.575.989,7.106,7.106,0,0,0,2.387,0c.586-.1,1.165-.229,1.737-.383V796.2a11,11,0,0,1-2.93.4c-8.122,0-14.073-8.942-13.37-16.392.759-8.134,7.388-13.917,13.37-18.768.969.786,1.954,1.6,2.93,2.441v-3.28l-2.178-2.058a1.086,1.086,0,0,0-1.505,0c-25.173,23.848-53.723,48.648-64.916,82.639a87.167,87.167,0,0,0-4.352,28.251,9.1,9.1,0,0,0-1.2-.317c-4.944-.983-10.964,2.462-13.755,6.585-1.207-45.719,28.35-82.371,59.138-112.886,8.47-8.4,17.183-16.523,25.839-24.719q1.464,1.386,2.93,2.769v-2.936l-.685-.648c.229-.44.456-.89.685-1.339v-6.778q-.437,1.786-.9,3.565a1.333,1.333,0,0,0-.031.3c-.466.932-.927,1.853-1.381,2.742a1.083,1.083,0,0,0-1.243,0c-.454-.889-.914-1.81-1.381-2.742a1.279,1.279,0,0,0-.031-.3c-1.02-3.936-1.978-7.9-2.73-11.908-.447-2.376-.908-4.876-.162-7.251.648-2.046,2.625-4.571,4.926-4.571a4.321,4.321,0,0,1,2.93,1.372v-2.8a5.481,5.481,0,0,0-2.93-.9c-4.03,0-6.983,4.814-7.376,8.271-.311,2.705.343,5.441.884,8.072.192.92.391,1.841.591,2.755a29.915,29.915,0,0,0-4.577-5.883c-.883-4.017-1.418-8.227.677-11.977,1.828-3.265,5.92-6.505,9.8-6.505a8.426,8.426,0,0,1,2.93.565v-2.333a9.384,9.384,0,0,0-2.93-.514C553.006,699.124,548.423,702.544,546.178,705.8ZM447.252,879.638c.292-6.026,5.5-11.666,11.76-11.641,6.336.025,11.249,6.971,10.8,12.9s-3.228,12.014-5.268,17.561c-1.007-.1-2.008-.192-3.016-.28.983-2.823,1.91-5.658,2.755-8.525.759-2.568,1.686-5.274,1.568-8-.15-3.508-2.923-8.284-6.885-8.495-4.066-.211-7.368,4.241-7.9,7.792-.79,5.267.895,11.393,1.971,16.622-1.007-.062-2.008-.118-3.016-.168v-.025C448.8,891.708,446.978,885.471,447.252,879.638Zm22.772-6.71a16.736,16.736,0,0,0-5.709-5.758c1.966-.218,3.931-.467,5.89-.722C470.08,868.6,470.019,870.764,470.024,872.928Zm.871,26.205c-1.393-.168-2.78-.323-4.172-.466,1.137-3.109,2.269-6.231,3.277-9.39C470.2,892.566,470.541,895.856,470.895,899.133Zm-11.554-1.125c-1.374-.112-2.742-.206-4.117-.3-.789-4.023-1.542-8.084-2-12.157-.417-3.731.572-10.852,6-9.95,5.1.852,4.707,7.35,3.724,10.976C461.891,890.433,460.653,894.233,459.341,898.008Zm-11.524-.7c-1.479-.068-2.965-.131-4.446-.18.9-3.209,1.76-6.431,2.531-9.677C446.449,890.751,447.121,894.034,447.817,897.3Zm-14.035-30.7c6.356.05,11.2,6.6,11.287,12.462.093,5.908-2.251,12.294-3.886,17.972-1.077-.031-2.146-.063-3.222-.087.8-2.967,1.543-5.945,2.2-8.943.572-2.618,1.3-5.373,1.014-8.078-.361-3.494-3.42-8.065-7.394-8.065-3.924,0-6.959,4.477-7.375,7.922-.317,2.581.342,5.2.883,7.7q1.017,4.683,2.276,9.3c-1.088-.012-2.176-.025-3.264-.031-1.593-5.51-3.669-11.467-3.813-17.188C422.347,873.618,427.228,866.56,433.782,866.61Zm2.033,30.1a1.161,1.161,0,0,0-.03.193c-1.338-.031-2.681-.056-4.017-.075l-.019-.118c-1.021-3.75-1.965-7.531-2.73-11.336-.454-2.245-.908-4.646-.162-6.878.665-2,2.687-4.316,4.925-4.316s4.241,2.345,4.925,4.316c.716,2.064.349,4.316-.061,6.405C437.861,888.872,436.879,892.809,435.815,896.714Zm-11.727.038c-1.779-.007-3.558-.019-5.336-.019.958-3.42,1.872-6.866,2.668-10.329C422.209,889.88,423.13,893.325,424.088,896.752ZM409.057,866.61c6.349.05,11.194,6.6,11.287,12.462.094,5.8-2.17,12.064-3.8,17.661h-3.252c.777-2.892,1.5-5.8,2.14-8.719.578-2.618,1.3-5.373,1.019-8.078-.367-3.494-3.42-8.065-7.394-8.065-3.93,0-6.958,4.477-7.381,7.922-.312,2.581.347,5.2.889,7.7.671,3.1,1.436,6.188,2.257,9.254H401.57c-1.592-5.5-3.663-11.455-3.806-17.17C397.615,873.618,402.5,866.56,409.057,866.61Zm2.034,30.1a.043.043,0,0,1-.007.025c-1.349,0-2.705.006-4.061.006a.069.069,0,0,0-.005-.031c-1.014-3.75-1.959-7.531-2.731-11.336-.447-2.245-.9-4.646-.155-6.878.665-2,2.681-4.316,4.925-4.316s4.241,2.345,4.925,4.316c.715,2.064.342,4.316-.068,6.405C413.137,888.872,412.147,892.809,411.091,896.714ZM400.55,956.8c-3.775,1.313-7.574,2.55-11.43,3.6-3.625.982-10.124,1.374-10.975-3.725-.9-5.423,6.218-6.411,9.949-5.995,4.073.46,8.134,1.213,12.158,2C400.345,954.056,400.439,955.424,400.55,956.8Zm-.7-11.523c-3.272-.7-6.555-1.368-9.857-1.915,3.246-.771,6.467-1.629,9.676-2.531C399.717,942.309,399.779,943.795,399.848,945.275Zm-.461-48.431h0q-1.939-.541-3.9-1.064a1,1,0,0,0-.3-.267c-3.539-2.046-7.046-4.173-10.442-6.461a14.192,14.192,0,0,1-4.315-3.906c-1.256-1.983-1.847-5.472-.031-7.294s5.31-1.225,7.294.031A14.185,14.185,0,0,1,391.6,882.2c2.288,3.395,4.415,6.9,6.461,10.441a.992.992,0,0,0,.267.3q.522,1.959,1.063,3.9Zm.062,36.4a1.157,1.157,0,0,0-.192.031c-3.9,1.064-7.842,2.046-11.81,2.83-2.089.41-4.341.777-6.4.062-1.971-.684-4.315-2.68-4.315-4.925s2.319-4.26,4.315-4.925c2.232-.747,4.633-.293,6.878.161,3.806.765,7.587,1.71,11.337,2.73.037.007.081.013.118.019C399.394,930.562,399.418,931.905,399.449,933.242Zm-26.7-49.1c-1.063-3.613-.5-8.867,2.288-11.647s8.035-3.352,11.648-2.289c4.154,1.219,6.728,4.64,8.955,8.134,0,.007,0,.007,0,.013a27.831,27.831,0,0,0,.828,7.114,34.374,34.374,0,0,0-6.151-8.227c-2.761-2.513-8.5-4.092-11.566-1.026s-1.487,8.8,1.026,11.566a34.377,34.377,0,0,0,8.228,6.15,27.793,27.793,0,0,0-7.115-.827l-.006-.006C377.392,890.875,373.972,888.3,372.753,884.146Zm-3.6,22.369c-.049-6.555,7.008-11.443,12.972-11.293,5.715.143,11.666,2.213,17.17,3.806v3.252c-3.066-.821-6.15-1.586-9.253-2.258-2.507-.541-5.125-1.2-7.7-.889-3.445.423-7.923,3.452-7.923,7.382,0,3.973,4.571,7.027,8.065,7.394,2.706.286,5.461-.442,8.079-1.02,2.922-.641,5.827-1.362,8.718-2.14V914c-5.6,1.629-11.859,3.893-17.661,3.8C375.757,917.708,369.2,912.864,369.152,906.515Zm30.142,15.03c-3.427-.958-6.872-1.878-10.348-2.668,3.464-.8,6.909-1.71,10.329-2.667C399.275,917.988,399.288,919.766,399.294,921.545Zm-.013-13a.047.047,0,0,1-.018.006c-3.911,1.057-7.848,2.046-11.816,2.823-2.089.411-4.341.784-6.4.069-1.971-.684-4.315-2.68-4.315-4.925s2.319-4.26,4.315-4.925c2.232-.747,4.633-.293,6.878.155,3.806.771,7.587,1.716,11.337,2.73a.056.056,0,0,0,.031.006C399.288,905.837,399.281,907.192,399.281,908.542Zm-30.129,22.7c-.049-6.555,7.008-11.436,12.972-11.293,5.722.143,11.679,2.22,17.189,3.812.005,1.088.018,2.176.031,3.265q-4.627-1.251-9.3-2.276c-2.507-.541-5.125-1.2-7.7-.883-3.445.416-7.923,3.451-7.923,7.375,0,3.974,4.571,7.033,8.065,7.394,2.706.286,5.461-.442,8.079-1.014,3-.659,5.976-1.4,8.942-2.2.025,1.076.056,2.145.087,3.221-5.678,1.635-12.064,3.98-17.972,3.887C375.757,942.44,369.2,937.595,369.152,931.24ZM243.543,1048.43a.92.92,0,0,0-.149-.106c-4.478-2.413-20.834-9.4-15.112-16.71,1.673-2.139,5.174-1.8,7.332-.541a14.52,14.52,0,0,1,4.191,4.484c2.245,3.172,4.328,6.461,6.343,9.782a1.333,1.333,0,0,0,.137.18Zm4.247-4.509c-2.773-4.608-5.653-10.385-9.856-13.8-2.805-2.276-8.321-3.383-11.175-.417-2.98,3.1-1.375,8.75,1.193,11.449,3.689,3.862,9.415,6.368,14.092,8.868-.74.789-1.486,1.573-2.227,2.356-5.068-2.63-10.776-5.205-15.061-8.979-4.608-4.067-6.075-11.555-2.314-16.778,1.935-2.68,6.536-3.669,9.6-3.5a12.506,12.506,0,0,1,8.5,4.191c3.824,4.086,6.629,9.421,9.471,14.241Q248.9,1042.737,247.79,1043.921Zm3.75-3.986c-1.7-2.941-3.452-6.237-5.491-9.26,3.109,1.879,6.486,3.452,9.526,5.007Q253.553,1037.807,251.54,1039.935Zm9.358-9.788a.733.733,0,0,0-.105-.075c-4.471-2.413-20.826-9.39-15.1-16.7,1.672-2.139,5.174-1.81,7.332-.547a14.529,14.529,0,0,1,4.191,4.483c2.245,3.172,4.322,6.468,6.343,9.782a1.2,1.2,0,0,0,.143.193C262.765,1028.232,261.825,1029.189,260.9,1030.147Zm4.329-4.415c-2.78-4.621-5.666-10.435-9.894-13.862-2.8-2.276-8.314-3.383-11.169-.416-2.979,3.1-1.374,8.756,1.194,11.448,3.664,3.843,9.353,6.343,14.011,8.831q-1.129,1.165-2.258,2.344c-5.037-2.618-10.7-5.18-14.949-8.93-4.608-4.061-6.076-11.554-2.313-16.778,1.933-2.68,6.529-3.662,9.6-3.5a12.54,12.54,0,0,1,8.507,4.192c3.856,4.129,6.679,9.526,9.552,14.383C266.738,1024.2,265.985,1024.967,265.227,1025.732Zm3.837-3.837c-1.716-2.966-3.483-6.3-5.541-9.365,3.029,2.1,6.343,3.911,9.309,5.677C271.57,1019.432,270.314,1020.657,269.064,1021.9Zm9.315-8.924a.966.966,0,0,0-.2-.149c-3.409-2.139-6.8-4.341-10.044-6.716a13.71,13.71,0,0,1-4.079-4.011c-1.225-2.164-1.493-5.7.653-7.32,4.4-3.326,8.762,1.8,10.813,5.168,2.022,3.321,3.894,6.729,5.7,10.174a.956.956,0,0,0,.106.161C280.338,1011.168,279.355,1012.069,278.379,1012.971Zm4.571-4.148c-1.523-2.9-3.1-5.771-4.769-8.594a24.936,24.936,0,0,0-4.26-5.945c-2.649-2.419-8.135-3.855-11.119-1.038-3.128,2.947-1.872,8.65.547,11.5,3.439,4.061,8.936,6.921,13.432,9.707-.79.74-1.567,1.48-2.35,2.227-4.895-2.967-10.5-5.914-14.515-10a12.4,12.4,0,0,1-3.762-8.762c-.012-2.966,1.038-7.238,3.638-9.048,5.584-3.887,13.214-1.928,17.194,3.115,3.446,4.366,5.877,9.745,8.383,14.7C284.56,1007.393,283.752,1008.108,282.95,1008.823Zm4.079-3.557c-1.641-3.2-3.327-6.393-5.111-9.527q4.178,3.434,8.507,6.679Q288.718,1003.826,287.029,1005.266Zm9.285-7.543a1.147,1.147,0,0,0-.261-.286c-3.874-2.972-19.4-13.065-11.754-18.873,4.229-3.2,8.352,1.679,10.1,5.186,1.823,3.644,3.427,7.412,4.956,11.181a1.277,1.277,0,0,0,.212.329Q297.931,996.473,296.314,997.723ZM301.276,994c-1.99-4.962-3.874-10.9-7.307-15.024-2.4-2.873-7.822-5.062-11.237-2.456-3.675,2.811-2.612,8.93-.18,12.045,3.19,4.086,7.966,7.313,12.083,10.447q-1.269,1.008-2.532,2.022c-4.52-3.383-9.688-6.8-13.344-11.144a12.49,12.49,0,0,1-3.165-8.943c.192-3.121,1.728-7.481,4.62-9.1,5.889-3.278,13.264-.566,16.716,4.757,3.047,4.7,4.943,10.341,6.976,15.534C303.029,992.754,302.147,993.376,301.276,994Zm4.421-3.1c-1.212-3.053-2.462-6.1-3.793-9.11,2.233,2.407,4.534,4.757,6.86,7.071C307.737,989.533,306.718,990.217,305.7,990.907Zm9.528-6.038c-2.781-2.811-5.529-5.677-8.1-8.694-1.543-1.809-3.172-3.849-3.315-6.336-.143-2.45.895-5.311,3.508-5.74,4.843-.79,7.2,4.017,8.419,7.761,1.182,3.607,2.2,7.263,3.147,10.932Q317.044,983.809,315.225,984.869Zm5.6-3.1c-.783-3-1.623-5.988-2.549-8.955a25.207,25.207,0,0,0-2.78-6.766c-2.046-3-6.7-5.422-10.329-3.7-3.687,1.748-4.1,7.55-2.693,10.777,1.089,2.481,3.085,4.527,4.869,6.511,1.953,2.17,3.968,4.285,6.014,6.368-.92.553-1.841,1.119-2.749,1.7-4.141-4.024-9.073-8.271-11.877-13.277a12.337,12.337,0,0,1-1.319-9.191c.678-2.774,2.693-6.561,5.516-7.7,6.15-2.469,13.183.976,15.926,6.66,2.394,4.956,3.545,10.727,4.832,16.094C322.725,980.771,321.767,981.262,320.821,981.766Zm4.826-2.45c-.616-2.662-1.2-5.547-1.965-8.376,1.591,2.363,3.233,4.7,4.9,7.014C327.6,978.4,326.617,978.85,325.647,979.316Zm9.918-4.291c-2.2-3.115-4.346-6.287-6.342-9.539-1.219-1.99-2.532-4.117-2.563-6.536-.024-2.139,1.2-5.4,3.589-5.889,4.812-.983,7.151,4.7,7.761,8.308.683,4.048,1.088,8.153,1.436,12.238C338.147,974.061,336.847,974.534,335.565,975.025Zm6.082-2.176a.826.826,0,0,0-.124.043c-.4-5.186-.516-11.3-2.494-16.075-1.436-3.47-5.733-7.033-9.8-5.777-4.047,1.25-5.31,6.971-4.29,10.534,1.467,5.1,5.491,9.938,8.582,14.247q-1.494.606-2.966,1.25c-3.309-4.527-7.065-9.228-9.279-14.371-2.45-5.7-.435-14.732,6.319-16.579,6.448-1.76,12.953,2.711,14.818,8.812,1.642,5.36,1.778,11.405,2.177,17C343.606,972.227,342.624,972.525,341.647,972.849Zm5.025-1.505c-.3-3.819-.647-7.637-1.138-11.436.118.3.23.6.355.908,1.281,3.258,2.642,6.479,4.047,9.688Q348.3,970.9,346.672,971.344ZM362.523,957.1c-.223,3.768-.6,7.525-1.063,11.274-1.381.174-2.761.38-4.142.61-1.61-3.756-3.2-7.562-4.49-11.442-1.268-3.806-1.523-11.523,4.69-10.908C362.355,947.122,362.728,953.577,362.523,957.1Zm4.322,10.708c-1.075.088-2.152.187-3.221.305.379-3.134.7-6.274.927-9.427.192-2.662.484-5.479-.355-8.066-1.026-3.19-4.676-6.983-8.42-6.324-4.229.74-6.374,6.063-5.989,9.794.529,5.168,3.278,10.491,5.386,15.279-1.051.2-2.1.417-3.141.647-2.369-5.273-5.316-10.938-6.237-16.66-1-6.212,3.824-14.9,10.982-14.271,6.685.584,11.169,6.187,11.5,12.6C368.549,957,367.579,962.532,366.845,967.811Zm2.145-.149c.255-1.959.5-3.924.722-5.889a16.756,16.756,0,0,0,5.759,5.709Q372.225,967.473,368.99,967.662Zm1.549-11.193c-.025-6.256,5.615-11.467,11.642-11.76,5.833-.273,12.07,1.549,17.741,2.761h.025c.049,1.008.106,2.009.168,3.017-5.23-1.076-11.355-2.762-16.623-1.972-3.551.535-8,3.837-7.792,7.9.212,3.961,4.988,6.735,8.495,6.884,2.724.118,5.429-.808,8-1.567,2.867-.846,5.7-1.772,8.526-2.755.087,1.007.18,2.009.28,3.016-5.547,2.04-11.623,4.813-17.562,5.267S370.564,962.806,370.539,956.469Zm30.67,7.711c.144,1.393.3,2.78.467,4.173-3.278-.355-6.568-.691-9.857-.9C394.978,966.45,398.1,965.318,401.209,964.18Zm-16.871,5.453c5.678-.864,11.909.237,17.6.877.13,1,.267,2,.4,3-3.035-.268-6.071-.473-9.118-.6a23.639,23.639,0,0,0-7.605.435c-3.383,1-7.163,4.745-6.566,8.613.677,4.359,6.386,6.374,10.124,5.833,4.919-.709,10.011-3.451,14.563-5.647.181.989.373,1.984.572,2.973-5.1,2.519-10.565,5.653-16.149,6.76-6.088,1.2-13.73-3.079-14.409-9.726C373.139,976.045,378.735,970.486,384.338,969.633Zm18.32,6.033c.218,1.436.454,2.873.7,4.3-3.575,1.673-7.194,3.314-10.9,4.683-2.2.814-4.539,1.548-6.884.858-2.214-.647-4.664-2.612-4.2-5.156.877-4.85,6.325-5.478,10.274-5.366C395.32,975.081,398.995,975.336,402.658,975.666ZM397.87,996.38a24.434,24.434,0,0,0-7.518,1.237c-3.265,1.319-6.667,5.4-5.709,9.2,1.039,4.135,6.672,5.684,10.279,4.906,5.025-1.082,9.975-4.608,14.378-7.363.31.952.622,1.9.951,2.842-4.894,3.128-10.224,7.083-15.82,8.682a11.648,11.648,0,0,1-9.259-1.132c-2.363-1.393-5.293-4.073-5.753-6.934-.951-5.97,3.2-12.014,8.831-13.656,5.534-1.611,12.089-1.132,17.828-1.119.237.976.48,1.952.74,2.929C403.834,996.044,400.849,996.168,397.87,996.38Zm9.527,1.71c.13.454.243.908.373,1.356.273.945.566,1.884.858,2.817-3.165,1.921-6.368,3.787-9.645,5.5-2.071,1.082-4.291,2.214-6.7,2.077-2.12-.118-5.316-1.635-5.558-4.048-.536-5.243,5.7-6.835,9.557-7.17C399.978,998.308,403.69,998.165,407.4,998.09ZM411,1009.252q.467,1.26.951,2.519c-2.295.448-4.782.852-7.275,1.368Q407.869,1011.236,411,1009.252Zm-19.428,9.279a.122.122,0,0,0-.03.024,1.184,1.184,0,0,0-.144-.018C391.458,1018.537,391.515,1018.531,391.576,1018.531Zm-14.508-11.76a1.171,1.171,0,0,0-.161-.019c-24.072-.4-47.069,6.032-68.38,16.884a11.828,11.828,0,0,0,.833-4.633c21.9-14.066,46.186-23.4,72.385-23.5A15.739,15.739,0,0,0,377.068,1006.771Zm19.484-15.689c2.755-1.219,5.484-2.5,8.2-3.819q.392,1.837.815,3.657C402.565,990.932,399.555,990.957,396.552,991.082Zm-23.607-4.335a15.934,15.934,0,0,0,8.047,6.635c-25.969.255-50.172,9.44-71.968,23.3a10.755,10.755,0,0,0-2.251-4.229C325.877,997.356,347.661,986.2,372.945,986.747Zm-83.2,53.3a17.542,17.542,0,0,0-10.447-.286,20.355,20.355,0,0,0-2.929,1.088q3.189-3.321,6.417-6.6a276.151,276.151,0,0,1,22.325-20.465c4.534,5.173,1.125,10.919-2.948,15.229-1.81,1.921-3.712,3.762-5.677,5.516-.653.553-1.3,1.119-1.94,1.685q-2.268,1.913-4.633,3.681A1.4,1.4,0,0,0,289.747,1040.047Zm33.774-5.031c-.859,3.427-3.719,5.479-6.723,6.952a67.028,67.028,0,0,1-8.688,3.464c-3.109.622-6.169,1.43-9.042,2.226a16.657,16.657,0,0,0-2.251-3.072,17.009,17.009,0,0,0-4.5-3.426q1.651-1.568,3.358-3.066c1.231-1.007,2.45-2.039,3.632-3.109,1.05-.871,2.114-1.735,3.19-2.581,4.421-3.47,10.479-8.7,16.43-6.349A7.436,7.436,0,0,1,323.521,1035.016Zm-.685-9.048a10.113,10.113,0,0,0-9.981-2.1c20.068-9.7,41.565-15.354,64.052-14.981a1.038,1.038,0,0,0,.46-.087c.013.044.019.087.031.131,1.467,5.46,8.184,9.589,13.619,9.608a226.481,226.481,0,0,0-66.495,9.433A9.03,9.03,0,0,0,322.836,1025.968Zm63.741,4.695a318.421,318.421,0,0,0-61.309,5.64,10.043,10.043,0,0,0,.162-6.374,224.5,224.5,0,0,1,64.181-9.259A15.807,15.807,0,0,0,386.577,1030.663Zm19.6,6.4c-5.143,2.954-12.8,2.264-16.336-3.047-1.878-2.817-1.014-7.531.391-10.367a12.218,12.218,0,0,1,6.212-5.652c5.044-2.251,10.9-3.128,16.325-4.216.36.889.74,1.772,1.126,2.649-2.781.615-5.554,1.274-8.309,2.008-2.537.678-5.273,1.294-7.506,2.755-2.86,1.872-5.547,6.517-3.768,9.969,1.884,3.65,7.542,3.861,10.764,2.456,4.6-2,8.7-6.163,12.444-9.589.441.858.895,1.716,1.362,2.562a.339.339,0,0,1-.063.043C414.884,1030.24,410.823,1034.394,406.178,1037.062Zm8.588-18.65c.559,1.225,1.144,2.444,1.741,3.651-2.724,2.425-5.5,4.807-8.376,7.052-2.9,2.276-9.764,5.808-11.841.609-1.94-4.863,4.3-7.667,7.855-8.681C407.658,1020.048,411.2,1019.2,414.766,1018.412Zm1.181,13.849c1.374-1.281,2.705-2.568,4-3.762.51.883,1.026,1.76,1.555,2.63A31.445,31.445,0,0,0,415.947,1032.261Zm28.183,1.057a86.3,86.3,0,0,1-15.422-22.368c-9.284-19.414-11.8-40.856-12.4-62.354a28.55,28.55,0,0,0,6.442,1.325c1.692,26.727,7.5,53.815,25.621,74.436A59.336,59.336,0,0,0,444.13,1033.318Zm-7.109-98.84a20.706,20.706,0,0,0,5.331-20.868q3.255.029,6.517.1a26.626,26.626,0,0,1,1.535,7.506,26.921,26.921,0,0,1-.951,8.245A26.374,26.374,0,0,1,432,946.911a26.955,26.955,0,0,1-8.246.951,26.634,26.634,0,0,1-7.506-1.536c-.05-2.17-.081-4.347-.1-6.517A20.7,20.7,0,0,0,437.021,934.478Zm-20.881,3.161c-.037-8.057.075-16.071.093-23.948,7.877-.019,15.891-.131,23.949-.093a1.18,1.18,0,0,0,.049.348,18.968,18.968,0,0,1-23.743,23.743A1.178,1.178,0,0,0,416.14,937.639Zm33.387,84.8c-17.418-20.105-22.99-46.5-24.637-72.428a28.5,28.5,0,0,0,6.448-.74c2.208,23.643,8.3,47.124,23.83,65.637A57.647,57.647,0,0,0,449.527,1022.442Zm10.846-12.7c-1.313,1.138-2.556,2.344-3.75,3.588-15.229-18.19-21.1-41.447-23.208-64.655a28.488,28.488,0,0,0,6.394-3.116c2.543,22.319,8.911,44.246,23.668,61.639C462.438,1008.009,461.4,1008.848,460.373,1009.744Zm41.174-34.688a70.528,70.528,0,0,0-4.49,19.458A70.584,70.584,0,0,0,477.6,999a55.228,55.228,0,0,0-12.425,6.909c-14.794-17.331-21.007-39.457-23.389-61.757a28.177,28.177,0,0,0,4.913-4.913c22.3,2.382,44.426,8.594,61.757,23.388A55.211,55.211,0,0,0,501.547,975.056Zm10.739-17.225c-.9,1.032-1.735,2.064-2.544,3.1-17.392-14.757-39.32-21.125-61.639-23.668a28.484,28.484,0,0,0,3.117-6.393c23.207,2.108,46.465,7.978,64.654,23.208C514.631,955.275,513.424,956.519,512.286,957.831Zm5.168-5.205C498.941,937.092,475.459,931,451.816,928.8a28.459,28.459,0,0,0,.741-6.449c25.924,1.648,52.323,7.22,72.427,24.638A57.485,57.485,0,0,0,517.454,952.626Zm9.445-6.8c-20.62-18.121-47.709-23.93-74.436-25.621a28.536,28.536,0,0,0-1.324-6.442c21.5.6,42.939,3.115,62.353,12.4a86.284,86.284,0,0,1,22.368,15.423A59.248,59.248,0,0,0,526.9,945.829Zm27.313-8.047a61.263,61.263,0,0,0-16.088,3.01c-24.88-24.315-60.345-28.656-93.608-29.2-9.783-.168-19.564-.037-29.352-.031a1.078,1.078,0,0,0-1.063,1.063c-.007,9.788-.137,19.57.031,29.352.547,33.264,4.888,68.728,29.2,93.609a61.3,61.3,0,0,0-3.01,16.088,112.01,112.01,0,0,1-20.857-28.277c-19.713-38.026-18.077-82.85-18.04-124.509,41.658-.037,86.482-1.672,124.508,18.041A111.949,111.949,0,0,1,554.212,937.782Zm-94.566-77.8c-3.527.2-9.981-.168-10.466-5.006-.615-6.212,7.1-5.958,10.907-4.689,3.881,1.293,7.686,2.879,11.442,4.49q-.345,2.07-.609,4.141C467.17,859.378,463.414,859.757,459.646,859.981ZM482.9,878.823c2.543-.46,4.508,1.99,5.155,4.2.69,2.344-.043,4.689-.858,6.884-1.368,3.706-3.009,7.326-4.682,10.9-1.431-.242-2.867-.479-4.3-.7-.329-3.663-.585-7.338-.678-11.02C477.418,885.147,478.047,879.7,482.9,878.823Zm6.909,23.382c1.318-2.711,2.6-5.441,3.818-8.2-.124,3-.149,6.013-.162,9.011Q491.644,902.6,489.806,902.205Zm38.7-81.911a9.05,9.05,0,0,0,2,1.685,226.456,226.456,0,0,0-9.434,66.5c-.019-5.436-4.147-12.152-9.607-13.619-.044-.013-.087-.019-.131-.031a1.055,1.055,0,0,0,.087-.461c-.373-22.486,5.286-43.984,14.98-64.051A10.114,10.114,0,0,0,528.511,820.294ZM521.1,889a.1.1,0,0,0-.025.031c0-.062.006-.118.006-.174A1.159,1.159,0,0,0,521.1,889Zm-11.8-14.639a1.187,1.187,0,0,0,.019.162,15.738,15.738,0,0,0-11.269,4.676c.1-26.2,9.434-50.488,23.5-72.384a11.853,11.853,0,0,0,4.633-.833C515.327,827.3,508.891,850.292,509.3,874.364Zm1.069,2.513c2.861.46,5.541,3.389,6.934,5.752a11.642,11.642,0,0,1,1.132,9.26c-1.6,5.6-5.553,10.926-8.681,15.82-.939-.33-1.891-.641-2.842-.952,2.755-4.4,6.281-9.353,7.363-14.377.777-3.607-.771-9.241-4.907-10.28-3.8-.957-7.885,2.444-9.2,5.709a24.434,24.434,0,0,0-1.238,7.518c-.211,2.979-.336,5.964-.4,8.949-.976-.261-1.953-.5-2.929-.74-.013-5.74-.491-12.294,1.119-17.829C498.351,880.079,504.395,875.925,510.364,876.877Zm5.318,25.26c-.517,2.493-.921,4.981-1.368,7.276q-1.26-.486-2.519-.952Q513.772,905.328,515.682,902.137ZM504.8,906.086c-.933-.293-1.871-.585-2.817-.859-.448-.13-.9-.242-1.355-.373.074-3.706.217-7.419.534-11.112.336-3.862,1.928-10.093,7.17-9.558,2.413.242,3.931,3.438,4.049,5.559.136,2.407-.995,4.627-2.077,6.7C508.592,899.718,506.727,902.92,504.8,906.086Zm16.15,6.137c.783-3.563,1.635-7.108,2.63-10.621,1.014-3.557,3.818-9.794,8.682-7.854,5.2,2.077,1.666,8.936-.61,11.84-2.245,2.879-4.627,5.653-7.052,8.377C523.4,913.368,522.18,912.783,520.955,912.223Zm10.086,5.18c1.194-1.293,2.481-2.624,3.763-4a31.433,31.433,0,0,0-1.132,5.553Q532.366,918.166,531.041,917.4Zm5.517-30.1c5.31,3.538,6,11.194,3.046,16.336-2.668,4.646-6.822,8.707-10.428,12.643a.4.4,0,0,1-.044.062c-.846-.466-1.7-.92-2.562-1.362,3.427-3.743,7.587-7.848,9.589-12.443,1.406-3.221,1.194-8.88-2.456-10.765-3.451-1.778-8.1.908-9.969,3.769-1.461,2.232-2.077,4.968-2.755,7.506-.733,2.755-1.392,5.528-2.008,8.308-.877-.386-1.76-.765-2.649-1.126,1.088-5.422,1.965-11.28,4.216-16.324a12.226,12.226,0,0,1,5.652-6.212C529.026,886.286,533.74,885.421,536.558,887.3Zm-3.353-3.265a15.81,15.81,0,0,0-9.993,3.035,224.539,224.539,0,0,1,9.26-64.182,10.036,10.036,0,0,0,6.374-.162A318.427,318.427,0,0,0,533.205,884.034Zm13.924-89.759a16.659,16.659,0,0,0,3.072,2.251c-.8,2.873-1.6,5.933-2.226,9.042a67.006,67.006,0,0,1-3.464,8.687c-1.474,3-3.526,5.865-6.952,6.723a7.433,7.433,0,0,1-8.961-4.6c-2.351-5.951,2.879-12.008,6.348-16.43.846-1.075,1.711-2.139,2.581-3.19,1.07-1.181,2.1-2.4,3.11-3.631q1.5-1.707,3.065-3.358A17.03,17.03,0,0,0,547.129,794.275Zm-10.342-14.029q3.274-3.237,6.605-6.418a20.393,20.393,0,0,0-1.088,2.929,17.541,17.541,0,0,0,.286,10.447,1.25,1.25,0,0,0-.156.168q-1.773,2.37-3.682,4.633c-.566.641-1.131,1.287-1.685,1.94-1.753,1.966-3.594,3.868-5.515,5.678-4.31,4.073-10.056,7.481-15.23,2.948A276.351,276.351,0,0,1,536.787,780.246ZM515,804.231a10.782,10.782,0,0,0,4.229,2.251c-13.861,21.8-23.046,46-23.3,71.968a15.935,15.935,0,0,0-6.635-8.047C488.742,845.118,499.9,823.335,515,804.231ZM472.176,881.8c.852-5.6,6.412-11.2,12.518-10.578,6.648.678,10.926,8.32,9.726,14.408-1.106,5.585-4.241,11.045-6.76,16.15-.988-.2-1.983-.392-2.972-.572,2.2-4.552,4.937-9.645,5.646-14.564.541-3.737-1.474-9.446-5.833-10.124-3.868-.6-7.611,3.184-8.612,6.567a23.612,23.612,0,0,0-.436,7.6c.124,3.047.33,6.082.6,9.117-1-.137-2-.274-3-.4C472.412,893.7,471.311,887.473,472.176,881.8Zm-.261-29.166c-4.788-2.108-10.111-4.856-15.279-5.385-3.732-.385-9.055,1.76-9.794,5.989-.659,3.743,3.134,7.394,6.324,8.42,2.587.839,5.4.547,8.065.354,3.153-.23,6.293-.547,9.427-.926-.117,1.069-.217,2.145-.3,3.221-5.279.734-10.813,1.7-16.118,1.43-6.418-.33-12.02-4.813-12.6-11.5-.628-7.158,8.06-11.983,14.272-10.982,5.721.92,11.386,3.868,16.659,6.237C472.331,850.535,472.114,851.579,471.915,852.63Zm1.132-5.236c-3.209-1.4-6.431-2.767-9.689-4.048-.3-.124-.6-.236-.908-.354,3.8.491,7.618.839,11.436,1.138Q473.439,845.753,473.047,847.394Zm3.1-10.49c-4.084-.349-8.189-.753-12.238-1.437-3.612-.609-9.29-2.948-8.308-7.761.486-2.388,3.75-3.613,5.889-3.588,2.419.031,4.546,1.343,6.536,2.562,3.252,2,6.424,4.142,9.539,6.343C477.076,834.3,476.6,835.6,476.149,836.9Zm2.214-5.927c-4.309-3.09-9.147-7.114-14.246-8.581-3.563-1.02-9.285.242-10.535,4.29-1.256,4.067,2.308,8.364,5.777,9.8,4.777,1.977,10.889,2.089,16.076,2.493a.889.889,0,0,0-.044.125c-.324.976-.621,1.959-.914,2.941-5.6-.4-11.641-.534-17-2.176-6.1-1.866-10.573-8.37-8.813-14.819,1.848-6.754,10.883-8.768,16.579-6.318,5.143,2.214,9.844,5.97,14.371,9.278Q478.971,829.486,478.363,830.977Zm2.133-4.937c-2.319-1.667-4.651-3.309-7.014-4.9,2.829.765,5.715,1.35,8.376,1.965C481.392,824.075,480.939,825.057,480.5,826.04Zm4.839-9.7c-3.669-.946-7.326-1.966-10.933-3.147-3.744-1.225-8.55-3.576-7.76-8.42.428-2.612,3.289-3.65,5.739-3.507,2.488.143,4.527,1.772,6.337,3.314,3.016,2.575,5.883,5.323,8.694,8.1Q486.349,814.5,485.335,816.339Zm3.208-5.529c-2.083-2.046-4.2-4.061-6.367-6.013-1.985-1.785-4.03-3.781-6.511-4.869-3.227-1.412-9.03-.995-10.777,2.692-1.723,3.632.7,8.284,3.7,10.33a25.165,25.165,0,0,0,6.765,2.779c2.967.927,5.952,1.766,8.956,2.55-.5.945-.995,1.9-1.481,2.86-5.366-1.287-11.137-2.437-16.094-4.831-5.683-2.743-9.129-9.776-6.66-15.926,1.139-2.824,4.926-4.838,7.7-5.516a12.334,12.334,0,0,1,9.192,1.318c5.006,2.8,9.253,7.736,13.276,11.878C489.663,808.969,489.1,809.89,488.543,810.81Zm2.867-4.589c-2.313-2.326-4.664-4.627-7.07-6.859,3.01,1.331,6.057,2.58,9.11,3.793C492.76,804.175,492.075,805.2,491.41,806.221Zm6.393-9.191a1.266,1.266,0,0,0-.329-.212c-3.769-1.529-7.538-3.134-11.182-4.956-3.507-1.753-8.389-5.876-5.187-10.1,5.809-7.649,15.9,7.879,18.874,11.753a1.114,1.114,0,0,0,.287.261Q499.017,795.385,497.8,797.03Zm3.756-4.938c-3.134-4.116-6.362-8.892-10.448-12.082-3.115-2.432-9.234-3.495-12.045.18-2.605,3.414-.417,8.836,2.456,11.237,4.124,3.433,10.062,5.317,15.025,7.307-.628.87-1.25,1.753-1.859,2.63-5.193-2.033-10.839-3.93-15.535-6.977-5.323-3.452-8.034-10.827-4.756-16.716,1.616-2.891,5.975-4.427,9.1-4.62a12.5,12.5,0,0,1,8.942,3.165c4.341,3.657,7.761,8.824,11.144,13.345Q502.563,790.821,501.559,792.092Zm3.4-4.21q-3.256-4.319-6.68-8.507c3.135,1.785,6.325,3.47,9.528,5.112Q506.372,786.174,504.961,787.882Zm7.86-9.1a.985.985,0,0,0-.162-.1c-3.445-1.8-6.852-3.675-10.174-5.7-3.37-2.052-8.494-6.417-5.167-10.814,1.623-2.145,5.155-1.878,7.319-.653a13.7,13.7,0,0,1,4.011,4.08c2.375,3.246,4.577,6.635,6.716,10.043a.979.979,0,0,0,.15.2C514.611,776.813,513.71,777.8,512.821,778.784ZM517,774.239c-2.786-4.5-5.647-9.994-9.707-13.433-2.854-2.419-8.558-3.675-11.505-.547-2.817,2.985-1.381,8.47,1.038,11.119a24.888,24.888,0,0,0,5.946,4.26c2.823,1.666,5.7,3.246,8.593,4.769-.715.8-1.43,1.611-2.133,2.419-4.956-2.506-10.335-4.937-14.7-8.382-5.044-3.98-7-11.61-3.116-17.195,1.81-2.6,6.082-3.65,9.049-3.637a12.4,12.4,0,0,1,8.762,3.762c4.086,4.011,7.033,9.62,10,14.514C518.479,772.672,517.74,773.449,517,774.239Zm3.75-3.949c-1.767-2.966-3.576-6.281-5.678-9.31,3.066,2.059,6.4,3.825,9.366,5.541C523.2,767.771,521.975,769.027,520.75,770.29Zm9.072-9.135a1.125,1.125,0,0,0-.192-.143c-3.315-2.022-6.61-4.1-9.782-6.343a14.512,14.512,0,0,1-4.484-4.192c-1.262-2.158-1.592-5.659.547-7.331,7.314-5.722,14.291,10.633,16.7,15.1a.794.794,0,0,0,.076.105C531.731,759.283,530.774,760.222,529.822,761.155Zm4.453-4.329c-2.488-4.657-4.987-10.347-8.831-14.01-2.692-2.568-8.344-4.173-11.448-1.194-2.966,2.854-1.859,8.37.417,11.169,3.426,4.228,9.24,7.114,13.861,9.893-.765.759-1.53,1.512-2.289,2.276-4.856-2.873-10.254-5.7-14.383-9.551a12.546,12.546,0,0,1-4.192-8.507c-.161-3.066.821-7.662,3.5-9.6,5.224-3.762,12.717-2.294,16.778,2.314,3.75,4.247,6.312,9.912,8.929,14.949Q535.444,755.7,534.275,756.826Zm3.949-3.793c-1.555-3.041-3.128-6.418-5.006-9.527,3.022,2.04,6.318,3.787,9.26,5.491Q540.351,751.013,538.224,753.033Zm9.837-9.29a1.213,1.213,0,0,0-.18-.137c-3.321-2.015-6.609-4.1-9.781-6.343a14.5,14.5,0,0,1-4.484-4.192c-1.263-2.157-1.6-5.658.541-7.331,7.313-5.721,14.3,10.633,16.709,15.111a.9.9,0,0,0,.106.149Zm-2.12-21.529c3.775,4.284,6.349,9.993,8.98,15.061-.783.74-1.568,1.486-2.356,2.226-2.5-4.676-5.007-10.4-8.869-14.091-2.7-2.568-8.351-4.173-11.448-1.194-2.967,2.854-1.859,8.37.416,11.175,3.414,4.2,9.191,7.083,13.8,9.856q-1.185,1.11-2.37,2.227c-4.82-2.842-10.154-5.647-14.241-9.471a12.51,12.51,0,0,1-4.191-8.5c-.168-3.066.821-7.668,3.5-9.6C534.387,716.138,541.874,717.606,545.941,722.214Z" fill="#4c081b"/>
    <path id="Path_1538" data-name="Path 1538" d="M538.84,942.807a54.63,54.63,0,0,0-15.566,7.916,64.8,64.8,0,0,0-12.1,11.778c-7.549,9.552-11.019,20.969-12.089,32.983a1.218,1.218,0,0,1-1.064,1.064c-12.013,1.069-23.431,4.539-32.983,12.089a64.707,64.707,0,0,0-11.777,12.095,54.627,54.627,0,0,0-7.917,15.565,55.866,55.866,0,0,0-3.016,18.326c0,.126.007.252.007.377h9.232c0-.125-.005-.251,0-.377A44.406,44.406,0,0,1,453.85,1040a48.1,48.1,0,0,1,7.6-14.725,59.011,59.011,0,0,1,12.686-11.884c5.006-3.539,11.666-5.684,17.654-6.722a43.7,43.7,0,0,1,9.59-.946,62.108,62.108,0,0,1,7.907,1.018,62.15,62.15,0,0,1-1.017-7.908,43.7,43.7,0,0,1,.945-9.589c1.039-5.989,3.184-12.649,6.722-17.655a59.031,59.031,0,0,1,11.884-12.685,48.127,48.127,0,0,1,14.726-7.6,44.4,44.4,0,0,1,14.62-2.281c.977-.009,1.954.021,2.93.073v-9.23c-.976-.048-1.953-.08-2.93-.078A55.831,55.831,0,0,0,538.84,942.807Z" fill="#fcf3e1"/>
    <path id="Path_1539" data-name="Path 1539" d="M542.546,951.307a48.127,48.127,0,0,0-14.726,7.6,59.031,59.031,0,0,0-11.884,12.685c-3.538,5.006-5.683,11.666-6.722,17.655a43.7,43.7,0,0,0-.945,9.589,62.15,62.15,0,0,0,1.017,7.908,62.108,62.108,0,0,0-7.907-1.018,43.7,43.7,0,0,0-9.59.946c-5.988,1.038-12.648,3.183-17.654,6.722a59.011,59.011,0,0,0-12.686,11.884,48.1,48.1,0,0,0-7.6,14.725,44.406,44.406,0,0,0-2.282,14.62c0,.126,0,.252,0,.377h2.122c0-.126-.011-.251-.012-.377a49.639,49.639,0,0,1,3.47-17.48,48,48,0,0,1,11.287-16.759,17.7,17.7,0,0,0-1.275,7.1,14.177,14.177,0,0,0,2.842,8.178,24.608,24.608,0,0,0,7.692,6.019c.616.349,1.232.685,1.847,1.02-.945-.224-1.891-.448-2.836-.659-3.339-.734-6.858-1.269-10.223-.379-5.3,1.4-10.926,7.17-10.926,12.959,0,.126.017.251.022.377h2.282c0-.126-.023-.249-.022-.377-.05-6.554,7.014-11.436,12.973-11.293,5.714.143,11.671,2.22,17.181,3.812a22.619,22.619,0,0,0-.87,3.178c-2.9-.8-5.821-1.536-8.756-2.189-2.444-.541-5.007-1.2-7.524-.883-3.434.423-7.743,3.507-7.743,7.375,0,.128.017.252.026.377h2.312c-.007-.127-.031-.243-.031-.377,0-5.6,7.207-5.522,10.876-4.763,3.532.727,7.04,1.623,10.523,2.587a19.037,19.037,0,0,0-.106,2.176c0,.126.006.251.008.377h2.135c0-.125-.01-.251-.01-.377a21.936,21.936,0,0,1,6.355-15.142c4-4,9.03-5.777,14.539-6.3a19.547,19.547,0,0,0,2.73,5.447c-9.048-.392-17.412,6.293-17.412,15.994,0,.129.017.25.02.377H497.2c0-.127-.022-.248-.022-.377,0-9.041,8.476-15.2,17.014-13.693a1.412,1.412,0,0,0,.218.019,20.726,20.726,0,0,0,20.347,5.864,20.443,20.443,0,0,0,4.819-2.015,22.152,22.152,0,0,0-2.611,8.519c-7.183,0-14.378-.012-21.567.05a41.7,41.7,0,0,0-1.989-4.042c-.847-1.828-1.761-3.632-2.681-5.429-.622-1.225-2.462-.143-1.84,1.076.808,1.58,1.617,3.165,2.376,4.776.286.609.714,1.356,1.1,2.121-2.133-1.381-4.3-2.693-6.53-3.925-1.206-.665-2.282,1.176-1.075,1.841q3.105,1.727,6.075,3.638c-2.257.037-4.509.075-6.76.131a1.025,1.025,0,0,0-1.03,1.069,1.173,1.173,0,0,0,.062.377H539.1c-.005-.126-.023-.251-.026-.377a17.84,17.84,0,0,1,18.09-18.089,18.679,18.679,0,0,1,2.93.307v-2.2c-.539-.092-1.08-.17-1.624-.22,0-7.182.012-14.377-.05-21.566a12.416,12.416,0,0,0,1.674-.749v-2.378l-.175.093c.059-.093.115-.188.175-.281v-4.037c-.565.938-1.139,1.868-1.73,2.788-.038-2.258-.075-4.509-.131-6.76a1.07,1.07,0,0,0-2.139,0c-.056,2.251-.093,4.5-.13,6.76q-1.914-2.976-3.638-6.076c-.666-1.206-2.507-.131-1.841,1.076,1.232,2.232,2.543,4.4,3.924,6.53-.764-.386-1.512-.815-2.121-1.1-1.61-.759-3.2-1.567-4.775-2.376-1.219-.622-2.3,1.219-1.076,1.841,1.8.92,3.6,1.834,5.428,2.68a41.572,41.572,0,0,0,4.042,1.99c-.061,7.189-.05,14.384-.05,21.566a22.152,22.152,0,0,0-8.519,2.612,20.421,20.421,0,0,0,2.015-4.819,20.723,20.723,0,0,0-5.864-20.348,1.513,1.513,0,0,0-.018-.217c-1.512-8.538,4.651-17.014,13.693-17.014a13.793,13.793,0,0,1,2.93.324v-2.172a16.082,16.082,0,0,0-2.93-.285c-9.7,0-16.387,8.364-15.994,17.412a19.553,19.553,0,0,0-5.448-2.73c.522-5.51,2.3-10.541,6.3-14.539a21.941,21.941,0,0,1,15.143-6.356,20.015,20.015,0,0,1,2.93.224v-5.045q-.367,1.4-.754,2.794a22.394,22.394,0,0,0-4.353,0c-.964-3.483-1.859-6.99-2.587-10.522-.758-3.669-.839-10.876,4.764-10.876a4.518,4.518,0,0,1,2.93.96v-2.414a5.73,5.73,0,0,0-2.93-.853c-3.868,0-6.953,4.309-7.376,7.742-.316,2.518.343,5.08.884,7.524.652,2.936,1.392,5.852,2.188,8.756a22.775,22.775,0,0,0-3.177.871c-1.592-5.51-3.669-11.467-3.812-17.182-.144-5.958,4.738-13.022,11.293-12.972a9.042,9.042,0,0,1,2.93.483v-2.3a9.979,9.979,0,0,0-2.93-.47c-5.79,0-11.561,5.622-12.96,10.926-.89,3.365-.354,6.884.38,10.224.211.945.435,1.89.659,2.836-.336-.616-.672-1.232-1.02-1.847a24.642,24.642,0,0,0-6.02-7.693,14.184,14.184,0,0,0-8.178-2.842,17.7,17.7,0,0,0-7.1,1.275,48.025,48.025,0,0,1,16.759-11.287,49.668,49.668,0,0,1,17.481-3.47c.978.009,1.954.062,2.93.134V949.1c-.976-.052-1.953-.082-2.93-.073A44.4,44.4,0,0,0,542.546,951.307Zm-49.19,87.03a24.075,24.075,0,0,0-1.8,2.145c-5.28-2.562-19.576-8.563-14.39-15.7,3.383-4.651,9.136.4,11.368,3.47,2.108,2.9,4.079,5.914,5.989,8.949C494.128,1037.566,493.736,1037.939,493.356,1038.337Zm2.818-2.494q-2.229-3.536-4.609-6.977c-1.492-2.139-2.991-4.484-5.118-6.063-2.816-2.09-8.133-2.792-10.807.074-2.83,3.029-1.424,8.47,1.082,11.119,3.482,3.675,9.048,5.995,13.625,8.258a24,24,0,0,0-1.555,2.9c-5.03-2.475-10.628-4.906-14.894-8.513-4.7-3.974-6.3-11.417-2.661-16.728,1.878-2.742,6.448-3.787,9.521-3.706a12.436,12.436,0,0,1,8.588,4.017c3.843,3.955,6.728,9.135,9.62,13.849A22.417,22.417,0,0,0,496.174,1035.843Zm13.009-4.745a29.317,29.317,0,0,0-8.277,2.059c-3.519-5.759-7.189-13.053-12.9-16.834a15.785,15.785,0,0,0-11.71-1.859c.821-.467,1.654-.915,2.506-1.306a55.507,55.507,0,0,1,15.092-4.677,46.674,46.674,0,0,1,16.3.6,1.112,1.112,0,0,0,.349.044A1.135,1.135,0,0,0,511.67,1008a1.074,1.074,0,0,0-.043-.348,46.675,46.675,0,0,1-.6-16.3,55.5,55.5,0,0,1,4.677-15.092c.392-.852.839-1.686,1.306-2.507a15.785,15.785,0,0,0,1.859,11.71c3.782,5.709,11.075,9.378,16.834,12.9a29.325,29.325,0,0,0-2.058,8.277,19.278,19.278,0,0,0-6.275-.3,22.074,22.074,0,0,0-12.356,5.752.883.883,0,0,0-.2.174.9.9,0,0,0-.173.2,22.066,22.066,0,0,0-5.752,12.357A19.272,19.272,0,0,0,509.183,1031.1Zm33.319-17.325a18.517,18.517,0,1,1-26.187,26.187c-7.406-7.406-6.747-18.693,0-26.187C523.81,1007.026,535.1,1006.367,542.5,1013.773Zm-1.623-22.959c-.4.379-.771.771-1.132,1.163-3.034-1.909-6.051-3.88-8.948-5.989-3.072-2.232-8.121-7.984-3.47-11.367,7.133-5.186,13.134,9.11,15.7,14.39A24.228,24.228,0,0,0,540.879,990.814Zm-1.7-19.458c3.606,4.266,6.038,9.863,8.513,14.894a24.046,24.046,0,0,0-2.9,1.554c-2.264-4.576-4.583-10.142-8.258-13.625-2.649-2.506-8.091-3.911-11.119-1.082-2.867,2.674-2.164,7.991-.075,10.808,1.58,2.127,3.925,3.626,6.063,5.118q3.432,2.388,6.978,4.608a22.47,22.47,0,0,0-1.773,2.792c-4.714-2.891-9.893-5.777-13.848-9.62a12.439,12.439,0,0,1-4.018-8.588c-.081-3.072.964-7.642,3.706-9.52C527.764,965.057,535.208,966.655,539.182,971.356Z" fill="#4c081b"/>
    <path id="Path_1540" data-name="Path 1540" d="M261.079,1053.871c23.849-25.173,48.649-53.723,82.639-64.916A87.173,87.173,0,0,1,371.97,984.6a9.232,9.232,0,0,1-.318-1.2c-.982-4.944,2.463-10.964,6.585-13.756-45.718-1.206-82.371,28.351-112.885,59.139-8.4,8.47-16.524,17.182-24.72,25.838.119.126.237.252.356.377h19.861a1.054,1.054,0,0,1,.23-1.129Z" fill="#ffad0e"/>
    <path id="Path_1541" data-name="Path 1541" d="M531.327,762.809c-30.788,30.515-60.345,67.167-59.138,112.886,2.791-4.123,8.811-7.568,13.755-6.585a9.1,9.1,0,0,1,1.2.317,87.167,87.167,0,0,1,4.352-28.251c11.193-33.991,39.743-58.791,64.916-82.639a1.086,1.086,0,0,1,1.505,0l2.178,2.058V740.859q-1.465-1.385-2.93-2.769C548.51,746.286,539.8,754.414,531.327,762.809Z" fill="#ffad0e"/>
    <path id="Path_1542" data-name="Path 1542" d="M466.486,1041.664c3.365-.89,6.884-.355,10.223.379.945.211,1.891.435,2.836.659-.615-.335-1.231-.671-1.847-1.02a24.608,24.608,0,0,1-7.692-6.019,14.177,14.177,0,0,1-2.842-8.178,17.7,17.7,0,0,1,1.275-7.1,48,48,0,0,0-11.287,16.759,49.639,49.639,0,0,0-3.47,17.48c0,.126.01.251.012.377h1.888c-.005-.126-.022-.251-.022-.377C455.56,1048.834,461.182,1043.063,466.486,1041.664Z" fill="#ffad0e"/>
    <path id="Path_1543" data-name="Path 1543" d="M539.685,954.609A48.025,48.025,0,0,0,522.926,965.9a17.7,17.7,0,0,1,7.1-1.275,14.184,14.184,0,0,1,8.178,2.842,24.642,24.642,0,0,1,6.02,7.693c.348.615.684,1.231,1.02,1.847-.224-.946-.448-1.891-.659-2.836-.734-3.34-1.27-6.859-.38-10.224,1.4-5.3,7.17-10.926,12.96-10.926a9.979,9.979,0,0,1,2.93.47v-2.214c-.976-.072-1.952-.125-2.93-.134A49.668,49.668,0,0,0,539.685,954.609Z" fill="#ffad0e"/>
    <path id="Path_1544" data-name="Path 1544" d="M557.162,871.324h0Z" fill="#fcf3e1"/>
    <path id="Path_1545" data-name="Path 1545" d="M547.005,818.671a33.344,33.344,0,0,1-.125-4.416,22.15,22.15,0,0,1-2.786,4.77,11.347,11.347,0,0,1-2.885,2.568,1.042,1.042,0,0,1-.019.193,314.78,314.78,0,0,0-5.851,62.609,8.894,8.894,0,0,1,1.9.74c5.485,2.91,7.469,11.094,5.59,16.6a23.742,23.742,0,0,1,14.341-5,20.856,20.856,0,0,1,2.93.209v-4.17a9.772,9.772,0,0,1-2.426.708,1.731,1.731,0,0,1-1.008,0c-4-.621-7.288-3.55-7.027-7.922a7.682,7.682,0,0,1,7.531-7.151,7.274,7.274,0,0,1,2.93.625V870.54a9.776,9.776,0,0,1-2.426.709,1.709,1.709,0,0,1-1.008,0c-3.762-.585-6.893-3.212-7.035-7.16a7.765,7.765,0,0,1,.008-.806,7.683,7.683,0,0,1,7.531-7.152,7.274,7.274,0,0,1,2.93.626v-8.448a9.774,9.774,0,0,1-2.426.708,1.689,1.689,0,0,1-1.008,0c-3.775-.587-6.914-3.231-7.034-7.2a7.594,7.594,0,0,1,.007-.811,7.682,7.682,0,0,1,7.531-7.152,7.258,7.258,0,0,1,2.93.626v-5.95a9.114,9.114,0,0,1-2.93.48C551.47,829.006,547.527,823.944,547.005,818.671Z" fill="#fcf3e1"/>
    <path id="Path_1546" data-name="Path 1546" d="M373.866,1054.62v0Z" fill="#fcf3e1"/>
    <path id="Path_1547" data-name="Path 1547" d="M404.275,1040.283c-5.5,1.878-13.687-.106-16.6-5.59a8.853,8.853,0,0,1-.74-1.9,314.867,314.867,0,0,0-62.61,5.852,1.025,1.025,0,0,1-.192.018,11.318,11.318,0,0,1-2.569,2.886,22.139,22.139,0,0,1-4.769,2.786,33.477,33.477,0,0,1,4.415.124c5.273.523,10.336,4.465,10.336,10.161,0,.128-.017.251-.022.377h4.885c-.007-.125-.019-.25-.019-.377a7.682,7.682,0,0,1,7.151-7.53,7.882,7.882,0,0,1,.811-.008c3.973.12,6.618,3.26,7.2,7.035a.956.956,0,0,1,.076.5.946.946,0,0,1-.037.377h7.094c-.007-.125-.019-.25-.019-.377a7.682,7.682,0,0,1,7.151-7.53,7.785,7.785,0,0,1,.806-.008c3.948.142,6.575,3.274,7.16,7.035a1.763,1.763,0,0,1,.039.88h7.138c-.006-.125-.019-.25-.019-.377a7.682,7.682,0,0,1,7.152-7.53c4.371-.262,7.3,3.028,7.921,7.027a.917.917,0,0,1,.076.5.894.894,0,0,1-.037.377h3.229c0-.126-.016-.251-.015-.377A23.744,23.744,0,0,1,404.275,1040.283Z" fill="#fcf3e1"/>
    <path id="Path_1548" data-name="Path 1548" d="M557.162,849.093h0Z" fill="#fcf3e1"/>
    <path id="Path_1549" data-name="Path 1549" d="M351.635,1054.62v0Z" fill="#fcf3e1"/>
    <path id="Path_1550" data-name="Path 1550" d="M426.444,1038.641q-1.93-2.7-3.706-5.5c-5.683.467-10.87,2.233-14.974,6.337a21.942,21.942,0,0,0-6.356,15.142c0,.126.008.252.01.377h7.361c0-.127-.02-.248-.02-.377C408.759,1044.823,417.284,1038.1,426.444,1038.641Z" fill="#f8076e"/>
    <path id="Path_1551" data-name="Path 1551" d="M542.023,905.221c-4.1,4.1-5.87,9.291-6.337,14.975q2.8,1.772,5.5,3.706c-.541-9.16,6.181-17.686,15.982-17.686a16.082,16.082,0,0,1,2.93.286V899.09a19.881,19.881,0,0,0-2.93-.224A21.945,21.945,0,0,0,542.023,905.221Z" fill="#f8076e"/>
    <path id="Path_1552" data-name="Path 1552" d="M512.46,1038.629a19.547,19.547,0,0,1-2.73-5.447c-5.509.522-10.54,2.3-14.539,6.3a21.936,21.936,0,0,0-6.355,15.142c0,.126.008.252.01.377h6.222c0-.127-.02-.248-.02-.377C495.048,1044.922,503.412,1038.237,512.46,1038.629Z" fill="#05abaa"/>
    <path id="Path_1553" data-name="Path 1553" d="M542.023,992.649c-4,4-5.777,9.029-6.3,14.539a19.553,19.553,0,0,1,5.448,2.73c-.393-9.048,6.293-17.412,15.994-17.412a16.082,16.082,0,0,1,2.93.285v-6.274a20.015,20.015,0,0,0-2.93-.224A21.941,21.941,0,0,0,542.023,992.649Z" fill="#05abaa"/>
    <path id="Path_1554" data-name="Path 1554" d="M440.238,1054.623c0-.021,0-.044.005-.068a110.733,110.733,0,0,1-12.1-13.606.8.8,0,0,1-.243-.019c-8.544-1.511-17.013,4.652-17.013,13.693,0,.129.018.25.022.377h29.019c.1-.1.2-.208.31-.308C440.24,1054.668,440.239,1054.645,440.238,1054.623Z" fill="#05abaa"/>
    <path id="Path_1555" data-name="Path 1555" d="M543.473,925.363a.832.832,0,0,1,.018.243A110.74,110.74,0,0,1,557.1,937.7c.023,0,.046,0,.068-.005s.044,0,.068.005c.936-.984,1.894-1.939,2.862-2.882V908.673a13.86,13.86,0,0,0-2.93-.324C548.124,908.349,541.961,916.819,543.473,925.363Z" fill="#05abaa"/>
    <path id="Path_1556" data-name="Path 1556" d="M504.077,1053.554c2.251-.056,4.5-.094,6.76-.131q-2.976-1.913-6.075-3.638c-1.207-.665-.131-2.506,1.075-1.841,2.233,1.232,4.4,2.544,6.53,3.925-.386-.765-.814-1.512-1.1-2.121-.759-1.611-1.568-3.2-2.376-4.776-.622-1.219,1.218-2.3,1.84-1.076.92,1.8,1.834,3.6,2.681,5.429a41.7,41.7,0,0,1,1.989,4.042c7.189-.062,14.384-.05,21.567-.05a22.152,22.152,0,0,1,2.611-8.519,20.443,20.443,0,0,1-4.819,2.015,20.726,20.726,0,0,1-20.347-5.864,1.412,1.412,0,0,1-.218-.019c-8.538-1.511-17.014,4.652-17.014,13.693,0,.129.019.25.022.377h5.906a1.173,1.173,0,0,1-.062-.377A1.025,1.025,0,0,1,504.077,1053.554Z" fill="#fcf3e1"/>
    <path id="Path_1557" data-name="Path 1557" d="M560.1,1009.732v-.188c-.06.093-.116.188-.175.281Z" fill="#fcf3e1"/>
    <path id="Path_1558" data-name="Path 1558" d="M543.473,1011.653a1.513,1.513,0,0,1,.018.217,20.723,20.723,0,0,1,5.864,20.348,20.421,20.421,0,0,1-2.015,4.819,22.152,22.152,0,0,1,8.519-2.612c0-7.182-.011-14.377.05-21.566a41.572,41.572,0,0,1-4.042-1.99c-1.828-.846-3.631-1.76-5.428-2.68-1.225-.622-.143-2.463,1.076-1.841,1.579.809,3.165,1.617,4.775,2.376.609.286,1.357.715,2.121,1.1-1.381-2.133-2.692-4.3-3.924-6.53-.666-1.207,1.175-2.282,1.841-1.076q1.725,3.106,3.638,6.076c.037-2.258.074-4.509.13-6.76a1.07,1.07,0,0,1,2.139,0c.056,2.251.093,4.5.131,6.76.591-.92,1.165-1.85,1.73-2.788V994.963a13.793,13.793,0,0,0-2.93-.324C548.124,994.639,541.961,1003.115,543.473,1011.653Z" fill="#fcf3e1"/>
    <path id="Path_1559" data-name="Path 1559" d="M558.472,1034.425c.544.05,1.085.128,1.624.22V1012.11a12.416,12.416,0,0,1-1.674.749C558.484,1020.048,558.472,1027.243,558.472,1034.425Z" fill="#fcf3e1"/>
    <path id="Path_1560" data-name="Path 1560" d="M544.3,1041.757a19.9,19.9,0,0,0-5.224,12.866c0,.126.021.251.026.377h8.045c.009-.126.023-.251.032-.377a82.034,82.034,0,0,0-1.325-10,1.083,1.083,0,0,1,1.312-1.312,82.061,82.061,0,0,0,10,1.324c.98-.069,1.956-.16,2.93-.264v-7.531a18.679,18.679,0,0,0-2.93-.307A19.889,19.889,0,0,0,544.3,1041.757Z" fill="#05abaa"/>
    <path id="Path_1561" data-name="Path 1561" d="M543.8,780.2c-.7,7.45,5.248,16.392,13.37,16.392a11,11,0,0,0,2.93-.4v-5.858a9.818,9.818,0,0,1-2.426.709.987.987,0,0,1-.5.075h-.014a.987.987,0,0,1-.5-.075c-3.768-.587-6.9-3.223-7.034-7.184a7.556,7.556,0,0,1,.007-.809,7.682,7.682,0,0,1,7.531-7.152,7.258,7.258,0,0,1,2.93.626V763.875c-.976-.841-1.961-1.655-2.93-2.441C551.184,766.285,544.555,772.068,543.8,780.2Z" fill="#f8076e"/>
    <path id="Path_1562" data-name="Path 1562" d="M282.745,1041.253c-8.135.759-13.918,7.388-18.768,13.37.1.125.206.252.307.377h14.181c-.007-.125-.02-.25-.02-.377a7.682,7.682,0,0,1,7.152-7.53,7.846,7.846,0,0,1,.809-.008c3.961.13,6.6,3.266,7.184,7.035a.971.971,0,0,1,.075.495v.016a1,1,0,0,1-.037.369h5.483c0-.127.026-.249.026-.377C299.137,1046.5,290.194,1040.551,282.745,1041.253Z" fill="#f8076e"/>
    <path id="Path_1563" data-name="Path 1563" d="M547.166,1043.312a1.083,1.083,0,0,0-1.312,1.312,82.034,82.034,0,0,1,1.325,10c-.009.126-.023.251-.032.377h2.134l.006-.053a2.193,2.193,0,0,0,0-.647c-.218-2.9-.585-5.765-1.082-8.619l.023,0,0-.023c2.854.5,5.72.865,8.619,1.082a2.1,2.1,0,0,0,.646,0c.873-.065,1.739-.17,2.607-.263v-2.109c-.974.1-1.95.2-2.93.264A82.061,82.061,0,0,1,547.166,1043.312Z" fill="#4c081b"/>
    <path id="Path_1564" data-name="Path 1564" d="M470.846,1047.248c2.517-.317,5.08.342,7.524.883,2.935.653,5.852,1.393,8.756,2.189a22.619,22.619,0,0,1,.87-3.178c-5.51-1.592-11.467-3.669-17.181-3.812-5.959-.143-13.023,4.739-12.973,11.293,0,.128.018.251.022.377h5.265c-.009-.125-.026-.249-.026-.377C463.1,1050.755,467.412,1047.671,470.846,1047.248Z" fill="#f8076e"/>
    <path id="Path_1565" data-name="Path 1565" d="M545.873,968.272c.143,5.715,2.22,11.672,3.812,17.182a22.775,22.775,0,0,1,3.177-.871c-.8-2.9-1.536-5.82-2.188-8.756-.541-2.444-1.2-5.006-.884-7.524.423-3.433,3.508-7.742,7.376-7.742a5.73,5.73,0,0,1,2.93.853v-5.631a9.042,9.042,0,0,0-2.93-.483C550.611,955.25,545.729,962.314,545.873,968.272Z" fill="#f8076e"/>
    <path id="Path_1566" data-name="Path 1566" d="M217.486,1047.248c2.705-.311,5.442.342,8.073.883.919.193,1.84.392,2.755.591a29.859,29.859,0,0,1-5.883-4.577c-4.018-.883-8.228-1.418-11.978.678-3.264,1.828-6.505,5.92-6.505,9.8,0,.126.013.251.02.377h5.276c-.01-.125-.028-.249-.028-.377C209.216,1050.594,214.029,1047.64,217.486,1047.248Z" fill="#05abaa"/>
    <path id="Path_1567" data-name="Path 1567" d="M547.365,707.911c-2.095,3.75-1.56,7.96-.677,11.977a29.915,29.915,0,0,1,4.577,5.883c-.2-.914-.4-1.835-.591-2.755-.541-2.631-1.2-5.367-.884-8.072.393-3.457,3.346-8.271,7.376-8.271a5.481,5.481,0,0,1,2.93.9v-5.6a8.426,8.426,0,0,0-2.93-.565C553.285,701.406,549.193,704.646,547.365,707.911Z" fill="#05abaa"/>
    <path id="Path_1568" data-name="Path 1568" d="M316.685,1046.614a80.148,80.148,0,0,0-9.638,1.349q-3.423,1.063-6.921,1.891a17.69,17.69,0,0,1,.988,3.575,7.878,7.878,0,0,1,.1,1.194c0,.128-.025.251-.032.377H329.39c0-.128.025-.245.025-.377C329.415,1047.758,322.059,1046.21,316.685,1046.614Zm-.859,8.013v0Z" fill="#05abaa"/>
    <path id="Path_1569" data-name="Path 1569" d="M557.166,798.673a7.873,7.873,0,0,1-1.194-.1,17.693,17.693,0,0,1-3.575-.989q-.831,3.5-1.891,6.922a79.966,79.966,0,0,0-1.35,9.638c-.4,5.373,1.145,12.73,8.01,12.73a7.586,7.586,0,0,0,2.93-.561V798.189c-.572.154-1.151.285-1.737.383A7.86,7.86,0,0,1,557.166,798.673Zm0,14.61h0Z" fill="#05abaa"/>
    <path id="Path_1570" data-name="Path 1570" d="M557.166,1046.769a1.329,1.329,0,0,1-.323-.025c-2.9-.217-5.765-.584-8.619-1.082l0,.023-.023,0c.5,2.854.864,5.721,1.082,8.619a2.193,2.193,0,0,1,0,.647l-.006.053H560.1v-8.519c-.868.093-1.734.2-2.607.263A1.333,1.333,0,0,1,557.166,1046.769Z" fill="#fcf3e1"/>
    <path id="Path_1571" data-name="Path 1571" d="M396.022,1054.12c-.621-4-3.55-7.289-7.921-7.027a7.682,7.682,0,0,0-7.152,7.53c0,.127.013.252.019.377H383.1c-.01-.125-.021-.25-.021-.377a5.558,5.558,0,0,1,5.441-5.441c3.147,0,5.137,2.531,5.442,5.441-.014.127-.034.252-.054.377h2.15a.894.894,0,0,0,.037-.377A.917.917,0,0,0,396.022,1054.12Z" fill="#4c081b"/>
    <path id="Path_1572" data-name="Path 1572" d="M549.635,885.558c-.261,4.372,3.028,7.3,7.027,7.922a1.731,1.731,0,0,0,1.008,0,9.772,9.772,0,0,0,2.426-.708v-2.335a6.9,6.9,0,0,1-2.93.985c-2.91-.3-5.441-2.295-5.441-5.441a5.558,5.558,0,0,1,5.441-5.441,5.3,5.3,0,0,1,2.93.907v-2.415a7.274,7.274,0,0,0-2.93-.625A7.682,7.682,0,0,0,549.635,885.558Z" fill="#4c081b"/>
    <path id="Path_1573" data-name="Path 1573" d="M549.635,841.095c-.015.244-.014.483-.007.718.12,3.973,3.259,6.617,7.034,7.2a1.689,1.689,0,0,0,1.008,0,9.774,9.774,0,0,0,2.426-.708v-2.335a6.9,6.9,0,0,1-2.93.985c-2.91-.3-5.441-2.295-5.441-5.441,0-.015,0-.03,0-.046s0-.031,0-.048a5.554,5.554,0,0,1,5.441-5.441,5.306,5.306,0,0,1,2.93.906v-2.32a7.275,7.275,0,0,0-2.93-.626A7.683,7.683,0,0,0,549.635,841.095Zm7.531,8h0Z" fill="#4c081b"/>
    <path id="Path_1574" data-name="Path 1574" d="M549.635,863.326c-.016.26-.017.514-.008.763.142,3.948,3.273,6.575,7.035,7.16a1.709,1.709,0,0,0,1.008,0,9.776,9.776,0,0,0,2.426-.709v-2.334a6.916,6.916,0,0,1-2.93.985c-2.91-.3-5.441-2.295-5.441-5.442V863.7a5.553,5.553,0,0,1,5.441-5.436,5.314,5.314,0,0,1,2.93.906V856.8a7.257,7.257,0,0,0-2.93-.626A7.682,7.682,0,0,0,549.635,863.326Zm7.531,8h0Z" fill="#4c081b"/>
    <path id="Path_1575" data-name="Path 1575" d="M373.791,1054.12c-.585-3.761-3.212-6.893-7.16-7.035-.249-.009-.5-.008-.762.008a7.682,7.682,0,0,0-7.151,7.53c0,.127.012.252.018.377h2.091c-.01-.125-.02-.25-.02-.377a5.553,5.553,0,0,1,5.435-5.441h.05c3.147,0,5.137,2.531,5.441,5.441-.013.127-.034.252-.053.377h2.15a1.763,1.763,0,0,0-.039-.88Zm.075.5v0Z" fill="#4c081b"/>
    <path id="Path_1576" data-name="Path 1576" d="M351.56,1054.12c-.587-3.775-3.232-6.915-7.2-7.035-.235-.007-.473-.007-.717.008a7.682,7.682,0,0,0-7.152,7.53c0,.127.012.252.019.377h2.041c-.01-.125-.021-.25-.021-.377a5.555,5.555,0,0,1,5.442-5.441l.048,0,.045,0c3.147,0,5.137,2.531,5.442,5.441-.014.127-.034.252-.054.377H351.6a.946.946,0,0,0,.037-.377A.956.956,0,0,0,351.56,1054.12Zm.075.5v0Z" fill="#4c081b"/>
    <path id="Path_1577" data-name="Path 1577" d="M293.52,1054.12c-.584-3.747-3.191-6.871-7.114-7.035a7.846,7.846,0,0,0-.809.008,7.682,7.682,0,0,0-7.152,7.53c0,.127.013.252.02.377H280.6c-.009-.125-.021-.25-.021-.377a5.559,5.559,0,0,1,5.442-5.441l.036,0,.034,0c3.147,0,5.137,2.531,5.441,5.441-.012.127-.033.252-.053.377h2.081a1.8,1.8,0,0,0-.039-.88Zm.074.5v0Z" fill="#4c081b"/>
    <path id="Path_1578" data-name="Path 1578" d="M549.635,783.055a7.556,7.556,0,0,0-.007.809c.164,3.922,3.288,6.53,7.034,7.113a1.709,1.709,0,0,0,1.008,0,9.735,9.735,0,0,0,2.426-.709V788a6.89,6.89,0,0,1-2.93.985c-2.91-.3-5.441-2.3-5.441-5.441,0-.012,0-.023,0-.034s0-.024,0-.037a5.558,5.558,0,0,1,5.441-5.441,5.3,5.3,0,0,1,2.93.908v-2.415a7.258,7.258,0,0,0-2.93-.626A7.682,7.682,0,0,0,549.635,783.055Zm7.531,8h0Z" fill="#4c081b"/>
    <path id="Path_1579" data-name="Path 1579" d="M315.825,1054.623v0Z" fill="#4c081b"/>
    <path id="Path_1580" data-name="Path 1580" d="M557.162,813.284h0Z" fill="#4c081b"/>
    <path id="Path_1581" data-name="Path 1581" d="M238.307,1054c-.89-.454-1.81-.915-2.742-1.381a1.271,1.271,0,0,1-.3-.031c-3.937-1.02-7.905-1.978-11.909-2.73-2.376-.448-4.876-.908-7.251-.162-2.046.647-4.571,2.624-4.571,4.925a3.379,3.379,0,0,0,.025.377h26.626a1.151,1.151,0,0,1-.076-.377A1.1,1.1,0,0,1,238.307,1054Z" fill="#f8076e"/>
    <path id="Path_1582" data-name="Path 1582" d="M552.24,713.564c-.746,2.375-.285,4.875.162,7.251.752,4,1.71,7.972,2.73,11.908a1.279,1.279,0,0,1,.031.3c.467.932.927,1.853,1.381,2.742a1.083,1.083,0,0,1,1.243,0c.454-.889.915-1.81,1.381-2.742a1.333,1.333,0,0,1,.031-.3q.461-1.777.9-3.565V710.365a4.321,4.321,0,0,0-2.93-1.372C554.865,708.993,552.888,711.518,552.24,713.564Z" fill="#f8076e"/>
    <path id="Path_1583" data-name="Path 1583" d="M486.809,1052.447c-3.483-.964-6.991-1.86-10.523-2.587-3.669-.759-10.876-.84-10.876,4.763,0,.134.024.25.031.377h21.27c0-.126-.01-.251-.008-.377A19.037,19.037,0,0,1,486.809,1052.447Z" fill="#fcf3e1"/>
    <path id="Path_1584" data-name="Path 1584" d="M552.4,973.744c.728,3.532,1.623,7.039,2.587,10.522a22.394,22.394,0,0,1,4.353,0q.387-1.394.754-2.794V963.828a4.518,4.518,0,0,0-2.93-.96C551.563,962.868,551.644,970.075,552.4,973.744Z" fill="#fcf3e1"/>
    <path id="Path_1585" data-name="Path 1585" d="M286.09,1049.182l-.034,0a5.559,5.559,0,0,0-5.407,5.439c0,.127.011.252.02.377h10.809c.02-.125.041-.25.053-.377C291.227,1051.713,289.237,1049.182,286.09,1049.182Z" fill="#fcf3e1"/>
    <path id="Path_1586" data-name="Path 1586" d="M551.727,783.514c0,.011,0,.022,0,.034,0,3.146,2.531,5.136,5.441,5.441A6.89,6.89,0,0,0,560.1,788v-8.99a5.3,5.3,0,0,0-2.93-.907A5.558,5.558,0,0,0,551.727,783.514Z" fill="#fcf3e1"/>
    <path id="Path_1587" data-name="Path 1587" d="M344.015,1049.184l-.048,0a5.555,5.555,0,0,0-5.442,5.441c0,.127.011.252.021.377h10.807c.021-.125.042-.25.055-.377C349.1,1051.728,347.127,1049.211,344.015,1049.184Z" fill="#05abaa"/>
    <path id="Path_1588" data-name="Path 1588" d="M551.725,841.424c0,.017,0,.032,0,.048.026,3.113,2.544,5.085,5.439,5.394a6.949,6.949,0,0,0,2.93-.989v-8.988a5.306,5.306,0,0,0-2.93-.906A5.554,5.554,0,0,0,551.725,841.424Z" fill="#05abaa"/>
    <path id="Path_1589" data-name="Path 1589" d="M366.268,1049.183h-.026a5.553,5.553,0,0,0-5.435,5.441c0,.127.01.252.02.377h10.8c.019-.125.04-.25.054-.377C371.379,1051.721,369.4,1049.2,366.268,1049.183Z" fill="#05abaa"/>
    <path id="Path_1590" data-name="Path 1590" d="M551.725,863.7v.025c.014,3.132,2.538,5.112,5.44,5.416a6.9,6.9,0,0,0,2.93-.985V859.17a5.314,5.314,0,0,0-2.93-.906A5.553,5.553,0,0,0,551.725,863.7Z" fill="#05abaa"/>
    <path id="Path_1591" data-name="Path 1591" d="M388.523,1049.182a5.558,5.558,0,0,0-5.441,5.441c0,.127.011.252.021.377h10.808c.02-.125.04-.25.054-.377C393.66,1051.713,391.67,1049.182,388.523,1049.182Z" fill="#05abaa"/>
    <path id="Path_1592" data-name="Path 1592" d="M551.725,885.981c0,3.146,2.531,5.136,5.441,5.441a6.9,6.9,0,0,0,2.93-.985v-8.99a5.3,5.3,0,0,0-2.93-.907A5.558,5.558,0,0,0,551.725,885.981Z" fill="#05abaa"/>
    <path id="Path_1593" data-name="Path 1593" d="M529.163,719.9c-2.68,1.934-3.669,6.536-3.5,9.6a12.51,12.51,0,0,0,4.191,8.5c4.087,3.824,9.421,6.629,14.241,9.471q1.185-1.119,2.37-2.227c-4.609-2.773-10.386-5.652-13.8-9.856-2.275-2.8-3.383-8.321-.416-11.175,3.1-2.979,8.749-1.374,11.448,1.194,3.862,3.688,6.369,9.415,8.869,14.091.788-.74,1.573-1.486,2.356-2.226-2.631-5.068-5.205-10.777-8.98-15.061C541.874,717.606,534.387,716.138,529.163,719.9Z" fill="#05abaa"/>
    <path id="Path_1594" data-name="Path 1594" d="M560.1,737.923v-1.987c-.229.449-.456.9-.685,1.339Z" fill="#05abaa"/>
    <path id="Path_1595" data-name="Path 1595" d="M232.044,1023.12c-3.066-.168-7.667.821-9.6,3.5-3.761,5.223-2.294,12.711,2.314,16.778,4.285,3.774,9.993,6.349,15.061,8.979.741-.783,1.487-1.567,2.227-2.356-4.677-2.5-10.4-5.006-14.092-8.868-2.568-2.7-4.173-8.352-1.193-11.449,2.854-2.966,8.37-1.859,11.175.417,4.2,3.414,7.083,9.191,9.856,13.8q1.11-1.185,2.226-2.369c-2.842-4.82-5.647-10.155-9.471-14.241A12.506,12.506,0,0,0,232.044,1023.12Z" fill="#05abaa"/>
    <path id="Path_1596" data-name="Path 1596" d="M534.157,725.74c-2.139,1.673-1.8,5.174-.541,7.331a14.5,14.5,0,0,0,4.484,4.192c3.172,2.245,6.46,4.328,9.781,6.343a1.213,1.213,0,0,1,.18.137L550.972,741a.9.9,0,0,1-.106-.149C548.453,736.373,541.47,720.019,534.157,725.74Z" fill="#f8076e"/>
    <path id="Path_1597" data-name="Path 1597" d="M239.8,1035.557a14.52,14.52,0,0,0-4.191-4.484c-2.158-1.262-5.659-1.6-7.332.541-5.722,7.314,10.634,14.3,15.112,16.71a.92.92,0,0,1,.149.106l2.742-2.911a1.333,1.333,0,0,1-.137-.18C244.133,1042.018,242.05,1038.729,239.8,1035.557Z" fill="#f8076e"/>
    <path id="Path_1598" data-name="Path 1598" d="M537.527,796.762c-.87,1.051-1.735,2.115-2.581,3.19-3.469,4.422-8.7,10.479-6.348,16.43a7.433,7.433,0,0,0,8.961,4.6c3.426-.858,5.478-3.719,6.952-6.723a67.006,67.006,0,0,0,3.464-8.687c.622-3.109,1.43-6.169,2.226-9.042a16.659,16.659,0,0,1-3.072-2.251,17.03,17.03,0,0,1-3.427-4.5q-1.566,1.65-3.065,3.358C539.629,794.362,538.6,795.581,537.527,796.762Z" fill="#05abaa"/>
    <path id="Path_1599" data-name="Path 1599" d="M318.925,1026.055c-5.951-2.351-12.009,2.879-16.43,6.349-1.076.846-2.14,1.71-3.19,2.581-1.182,1.07-2.4,2.1-3.632,3.109q-1.707,1.5-3.358,3.066a17.009,17.009,0,0,1,4.5,3.426,16.657,16.657,0,0,1,2.251,3.072c2.873-.8,5.933-1.6,9.042-2.226a67.028,67.028,0,0,0,8.688-3.464c3-1.473,5.864-3.525,6.723-6.952A7.436,7.436,0,0,0,318.925,1026.055Z" fill="#05abaa"/>
    <path id="Path_1600" data-name="Path 1600" d="M401.427,898.884c-.037,41.659-1.673,86.483,18.04,124.509a112.01,112.01,0,0,0,20.857,28.277,61.3,61.3,0,0,1,3.01-16.088c-24.314-24.881-28.655-60.345-29.2-93.609-.168-9.782-.038-19.564-.031-29.352a1.078,1.078,0,0,1,1.063-1.063c9.788-.006,19.569-.137,29.352.031,33.263.547,68.728,4.888,93.608,29.2a61.263,61.263,0,0,1,16.088-3.01,111.949,111.949,0,0,0-28.277-20.857C487.909,897.212,443.085,898.847,401.427,898.884Z" fill="#ffad0e"/>
    <path id="Path_1601" data-name="Path 1601" d="M518.747,978.215a12.439,12.439,0,0,0,4.018,8.588c3.955,3.843,9.134,6.729,13.848,9.62a22.47,22.47,0,0,1,1.773-2.792q-3.537-2.229-6.978-4.608c-2.138-1.492-4.483-2.991-6.063-5.118-2.089-2.817-2.792-8.134.075-10.808,3.028-2.829,8.47-1.424,11.119,1.082,3.675,3.483,5.994,9.049,8.258,13.625a24.046,24.046,0,0,1,2.9-1.554c-2.475-5.031-4.907-10.628-8.513-14.894-3.974-4.7-11.418-6.3-16.729-2.661C519.711,970.573,518.666,975.143,518.747,978.215Z" fill="#f8076e"/>
    <path id="Path_1602" data-name="Path 1602" d="M480.758,1016.205c-3.073-.081-7.643.964-9.521,3.706-3.637,5.311-2.04,12.754,2.661,16.728,4.266,3.607,9.864,6.038,14.894,8.513a24,24,0,0,1,1.555-2.9c-4.577-2.263-10.143-4.583-13.625-8.258-2.506-2.649-3.912-8.09-1.082-11.119,2.674-2.866,7.991-2.164,10.807-.074,2.127,1.579,3.626,3.924,5.118,6.063q2.388,3.432,4.609,6.977a22.417,22.417,0,0,1,2.792-1.772c-2.892-4.714-5.777-9.894-9.62-13.849A12.436,12.436,0,0,0,480.758,1016.205Z" fill="#f8076e"/>
    <path id="Path_1603" data-name="Path 1603" d="M516.315,1013.773c-6.747,7.494-7.406,18.781,0,26.187a18.517,18.517,0,1,0,26.187-26.187C535.1,1006.367,523.81,1007.026,516.315,1013.773Zm22.885,3.3a13.847,13.847,0,1,1-19.582,19.583c-5.478-5.479-5.025-13.756-.186-19.365a.946.946,0,0,1,.186-.218,1,1,0,0,1,.218-.186C525.444,1012.051,533.722,1011.6,539.2,1017.075Z" fill="#fcf3e1"/>
    <path id="Path_1604" data-name="Path 1604" d="M531.552,799.623c1.921-1.81,3.762-3.712,5.515-5.678.554-.653,1.119-1.3,1.685-1.94q1.912-2.266,3.682-4.633a1.25,1.25,0,0,1,.156-.168,17.541,17.541,0,0,1-.286-10.447,20.393,20.393,0,0,1,1.088-2.929q-3.321,3.191-6.605,6.418a276.351,276.351,0,0,0-20.465,22.325C521.5,807.1,527.242,803.7,531.552,799.623Z" fill="#05abaa"/>
    <path id="Path_1605" data-name="Path 1605" d="M296.488,1034.525c1.965-1.754,3.867-3.595,5.677-5.516,4.073-4.31,7.482-10.056,2.948-15.229a276.151,276.151,0,0,0-22.325,20.465q-3.235,3.274-6.417,6.6a20.355,20.355,0,0,1,2.929-1.088,17.542,17.542,0,0,1,10.447.286,1.4,1.4,0,0,1,.168-.156q2.368-1.772,4.633-3.681C295.189,1035.644,295.835,1035.078,296.488,1034.525Z" fill="#05abaa"/>
    <path id="Path_1606" data-name="Path 1606" d="M538.224,753.033q2.127-2.023,4.254-4.036c-2.942-1.7-6.238-3.451-9.26-5.491C535.1,746.615,536.669,749.992,538.224,753.033Z" fill="#fcf3e1"/>
    <path id="Path_1607" data-name="Path 1607" d="M251.54,1039.935q2.015-2.127,4.035-4.253c-3.04-1.555-6.417-3.128-9.526-5.007C248.088,1033.7,249.836,1036.994,251.54,1039.935Z" fill="#fcf3e1"/>
    <path id="Path_1608" data-name="Path 1608" d="M527.329,974.621c-4.651,3.383.4,9.135,3.47,11.367,2.9,2.109,5.914,4.08,8.948,5.989.361-.392.734-.784,1.132-1.163a24.228,24.228,0,0,1,2.145-1.8C540.463,983.731,534.462,969.435,527.329,974.621Z" fill="#fcf3e1"/>
    <path id="Path_1609" data-name="Path 1609" d="M477.163,1024.786c-5.186,7.133,9.11,13.134,14.39,15.7a24.075,24.075,0,0,1,1.8-2.145c.38-.4.772-.771,1.164-1.132-1.91-3.035-3.881-6.051-5.989-8.949C486.3,1025.184,480.546,1020.135,477.163,1024.786Z" fill="#fcf3e1"/>
    <path id="Path_1610" data-name="Path 1610" d="M526.19,887.691a12.226,12.226,0,0,0-5.652,6.212c-2.251,5.044-3.128,10.9-4.216,16.324.889.361,1.772.74,2.649,1.126.616-2.78,1.275-5.553,2.008-8.308.678-2.538,1.294-5.274,2.755-7.506,1.872-2.861,6.518-5.547,9.969-3.769,3.65,1.885,3.862,7.544,2.456,10.765-2,4.6-6.162,8.7-9.589,12.443.859.442,1.716.9,2.562,1.362a.4.4,0,0,0,.044-.062c3.606-3.936,7.76-8,10.428-12.643,2.955-5.142,2.264-12.8-3.046-16.336C533.74,885.421,529.026,886.286,526.19,887.691Z" fill="#f8076e"/>
    <path id="Path_1611" data-name="Path 1611" d="M418.883,1026.59c-.467-.846-.921-1.7-1.362-2.562-3.744,3.426-7.848,7.586-12.444,9.589-3.222,1.405-8.88,1.194-10.764-2.456-1.779-3.452.908-8.1,3.768-9.969,2.233-1.461,4.969-2.077,7.506-2.755,2.755-.734,5.528-1.393,8.309-2.008-.386-.877-.766-1.76-1.126-2.649-5.423,1.088-11.281,1.965-16.325,4.216a12.218,12.218,0,0,0-6.212,5.652c-1.4,2.836-2.269,7.55-.391,10.367,3.538,5.311,11.193,6,16.336,3.047,4.645-2.668,8.706-6.822,12.642-10.429A.339.339,0,0,0,418.883,1026.59Z" fill="#f8076e"/>
    <path id="Path_1612" data-name="Path 1612" d="M519.618,1017.075a.946.946,0,0,0-.186.218c-4.839,5.609-5.292,13.886.186,19.365a13.847,13.847,0,1,0,19.582-19.583c-5.478-5.478-13.756-5.024-19.364-.186A1,1,0,0,0,519.618,1017.075Zm18.077,1.505a11.719,11.719,0,1,1-16.572,16.573c-4.739-4.664-4.223-11.847,0-16.573C525.849,1014.358,533.031,1013.842,537.7,1018.58Z" fill="#4c081b"/>
    <path id="Path_1613" data-name="Path 1613" d="M521.123,1035.153A11.719,11.719,0,1,0,537.7,1018.58c-4.664-4.738-11.846-4.222-16.572,0C516.9,1023.306,516.384,1030.489,521.123,1035.153Z" fill="#f8076e"/>
    <path id="Path_1614" data-name="Path 1614" d="M510.912,737.306c-2.681,1.934-3.663,6.53-3.5,9.6a12.546,12.546,0,0,0,4.192,8.507c4.129,3.855,9.527,6.678,14.383,9.551.759-.764,1.524-1.517,2.289-2.276-4.621-2.779-10.435-5.665-13.861-9.893-2.276-2.8-3.383-8.315-.417-11.169,3.1-2.979,8.756-1.374,11.448,1.194,3.844,3.663,6.343,9.353,8.831,14.01q1.167-1.128,2.344-2.257c-2.617-5.037-5.179-10.7-8.929-14.949C523.629,735.012,516.136,733.544,510.912,737.306Z" fill="#05abaa"/>
    <path id="Path_1615" data-name="Path 1615" d="M249.444,1004.868c-3.066-.161-7.662.821-9.6,3.5-3.763,5.224-2.295,12.717,2.313,16.778,4.247,3.75,9.912,6.312,14.949,8.93q1.13-1.176,2.258-2.344c-4.658-2.488-10.347-4.988-14.011-8.831-2.568-2.692-4.173-8.345-1.194-11.448,2.855-2.967,8.371-1.86,11.169.416,4.228,3.427,7.114,9.241,9.894,13.862.758-.765,1.511-1.53,2.276-2.289-2.873-4.857-5.7-10.254-9.552-14.383A12.54,12.54,0,0,0,249.444,1004.868Z" fill="#05abaa"/>
    <path id="Path_1616" data-name="Path 1616" d="M532.472,822.887a224.539,224.539,0,0,0-9.26,64.182,15.81,15.81,0,0,1,9.993-3.035,318.427,318.427,0,0,1,5.641-61.309A10.036,10.036,0,0,1,532.472,822.887Z" fill="#ffad0e"/>
    <path id="Path_1617" data-name="Path 1617" d="M325.43,1029.929a10.043,10.043,0,0,1-.162,6.374,318.421,318.421,0,0,1,61.309-5.64,15.807,15.807,0,0,1,3.034-9.993A224.5,224.5,0,0,0,325.43,1029.929Z" fill="#ffad0e"/>
    <path id="Path_1618" data-name="Path 1618" d="M514.637,1012.467a.9.9,0,0,1,.173-.2.883.883,0,0,1,.2-.174,22.074,22.074,0,0,1,12.356-5.752,19.278,19.278,0,0,1,6.275.3,29.325,29.325,0,0,1,2.058-8.277c-5.759-3.519-13.052-7.188-16.834-12.9a15.785,15.785,0,0,1-1.859-11.71c-.467.821-.914,1.655-1.306,2.507a55.5,55.5,0,0,0-4.677,15.092,46.675,46.675,0,0,0,.6,16.3,1.074,1.074,0,0,1,.043.348,1.135,1.135,0,0,1-1.125,1.126,1.112,1.112,0,0,1-.349-.044,46.674,46.674,0,0,0-16.3-.6,55.507,55.507,0,0,0-15.092,4.677c-.852.391-1.685.839-2.506,1.306a15.785,15.785,0,0,1,11.71,1.859c5.708,3.781,9.378,11.075,12.9,16.834a29.317,29.317,0,0,1,8.277-2.059,19.272,19.272,0,0,1-.3-6.274A22.066,22.066,0,0,1,514.637,1012.467Z" fill="#ffad0e"/>
    <path id="Path_1619" data-name="Path 1619" d="M531.041,917.4q1.326.765,2.631,1.555a31.433,31.433,0,0,1,1.132-5.553C533.522,914.779,532.235,916.11,531.041,917.4Z" fill="#fcf3e1"/>
    <path id="Path_1620" data-name="Path 1620" d="M415.947,1032.261a31.445,31.445,0,0,1,5.554-1.132c-.529-.87-1.045-1.747-1.555-2.63C418.652,1029.693,417.321,1030.98,415.947,1032.261Z" fill="#fcf3e1"/>
    <path id="Path_1621" data-name="Path 1621" d="M515.911,743.146c-2.139,1.672-1.809,5.173-.547,7.331a14.512,14.512,0,0,0,4.484,4.192c3.172,2.245,6.467,4.321,9.782,6.343a1.125,1.125,0,0,1,.192.143c.952-.933,1.909-1.872,2.868-2.8a.794.794,0,0,1-.076-.105C530.2,753.779,523.225,737.424,515.911,743.146Z" fill="#f8076e"/>
    <path id="Path_1622" data-name="Path 1622" d="M257.211,1017.3a14.529,14.529,0,0,0-4.191-4.483c-2.158-1.263-5.66-1.592-7.332.547-5.721,7.313,10.634,14.29,15.1,16.7a.733.733,0,0,1,.105.075c.927-.958,1.867-1.915,2.8-2.867a1.2,1.2,0,0,1-.143-.193C261.533,1023.773,259.456,1020.477,257.211,1017.3Z" fill="#f8076e"/>
    <path id="Path_1623" data-name="Path 1623" d="M532.267,893.748c-4.864-1.94-7.668,4.3-8.682,7.854-.995,3.513-1.847,7.058-2.63,10.621,1.225.56,2.443,1.145,3.65,1.742,2.425-2.724,4.807-5.5,7.052-8.377C533.933,902.684,537.465,895.825,532.267,893.748Z" fill="#05abaa"/>
    <path id="Path_1624" data-name="Path 1624" d="M396.29,1029.724c2.077,5.2,8.937,1.667,11.841-.609,2.879-2.245,5.652-4.627,8.376-7.052-.6-1.207-1.182-2.426-1.741-3.651-3.564.784-7.108,1.636-10.621,2.631C400.587,1022.057,394.35,1024.861,396.29,1029.724Z" fill="#05abaa"/>
    <path id="Path_1625" data-name="Path 1625" d="M511.428,874.364a1.055,1.055,0,0,1-.087.461c.044.012.087.018.131.031,5.46,1.467,9.588,8.183,9.607,13.619a226.456,226.456,0,0,1,9.434-66.5,9.05,9.05,0,0,1-2-1.685,10.114,10.114,0,0,1-2.1-9.981C516.714,830.38,511.055,851.878,511.428,874.364Z" fill="#fcf3e1"/>
    <path id="Path_1626" data-name="Path 1626" d="M391.017,1018.537c-5.435-.019-12.152-4.148-13.619-9.608-.012-.044-.018-.087-.031-.131a1.038,1.038,0,0,1-.46.087c-22.487-.373-43.984,5.286-64.052,14.981a10.113,10.113,0,0,1,9.981,2.1,9.03,9.03,0,0,1,1.686,2A226.481,226.481,0,0,1,391.017,1018.537Z" fill="#fcf3e1"/>
    <path id="Path_1627" data-name="Path 1627" d="M451.139,913.766a28.536,28.536,0,0,1,1.324,6.442c26.727,1.691,53.816,7.5,74.436,25.621a59.248,59.248,0,0,1,8.961-4.241,86.284,86.284,0,0,0-22.368-15.423C494.078,916.881,472.636,914.369,451.139,913.766Z" fill="#fcf3e1"/>
    <path id="Path_1628" data-name="Path 1628" d="M416.308,948.6c.6,21.5,3.116,42.94,12.4,62.354a86.3,86.3,0,0,0,15.422,22.368,59.336,59.336,0,0,1,4.241-8.961c-18.121-20.621-23.929-47.709-25.621-74.436A28.55,28.55,0,0,1,416.308,948.6Z" fill="#fcf3e1"/>
    <path id="Path_1629" data-name="Path 1629" d="M520.75,770.29c1.225-1.263,2.449-2.519,3.688-3.769-2.967-1.716-6.3-3.482-9.366-5.541C517.174,764.009,518.983,767.324,520.75,770.29Z" fill="#fcf3e1"/>
    <path id="Path_1630" data-name="Path 1630" d="M269.064,1021.9c1.25-1.238,2.506-2.463,3.768-3.688-2.966-1.766-6.28-3.576-9.309-5.677C265.581,1015.595,267.348,1018.929,269.064,1021.9Z" fill="#fcf3e1"/>
    <path id="Path_1631" data-name="Path 1631" d="M498.045,879.2a15.738,15.738,0,0,1,11.269-4.676,1.187,1.187,0,0,1-.019-.162c-.4-24.072,6.032-47.068,16.884-68.379a11.853,11.853,0,0,1-4.633.833C507.479,828.714,498.145,853,498.045,879.2Z" fill="#ffad0e"/>
    <path id="Path_1632" data-name="Path 1632" d="M308.527,1023.636c21.311-10.852,44.308-17.288,68.38-16.884a1.171,1.171,0,0,1,.161.019,15.739,15.739,0,0,1,4.677-11.268c-26.2.1-50.489,9.434-72.385,23.5A11.828,11.828,0,0,1,308.527,1023.636Z" fill="#ffad0e"/>
    <path id="Path_1633" data-name="Path 1633" d="M521.073,889.034A.1.1,0,0,1,521.1,889a1.159,1.159,0,0,1-.019-.143C521.079,888.916,521.073,888.972,521.073,889.034Z" fill="#fcf3e1"/>
    <path id="Path_1634" data-name="Path 1634" d="M391.576,1018.531c-.061,0-.118.006-.174.006a1.184,1.184,0,0,1,.144.018A.122.122,0,0,1,391.576,1018.531Z" fill="#fcf3e1"/>
    <path id="Path_1635" data-name="Path 1635" d="M495.589,903.536c.976.236,1.953.479,2.929.74.068-2.985.193-5.97.4-8.949a24.434,24.434,0,0,1,1.238-7.518c1.318-3.265,5.4-6.666,9.2-5.709,4.136,1.039,5.684,6.673,4.907,10.28-1.082,5.024-4.608,9.974-7.363,14.377.951.311,1.9.622,2.842.952,3.128-4.894,7.083-10.224,8.681-15.82a11.642,11.642,0,0,0-1.132-9.26c-1.393-2.363-4.073-5.292-6.934-5.752-5.969-.952-12.013,3.2-13.656,8.83C495.1,891.242,495.576,897.8,495.589,903.536Z" fill="#f8076e"/>
    <path id="Path_1636" data-name="Path 1636" d="M388.25,994.166c-5.628,1.642-9.782,7.686-8.831,13.656.46,2.861,3.39,5.541,5.753,6.934a11.648,11.648,0,0,0,9.259,1.132c5.6-1.6,10.926-5.554,15.82-8.682-.329-.939-.641-1.89-.951-2.842-4.4,2.755-9.353,6.281-14.378,7.363-3.607.778-9.24-.771-10.279-4.906-.958-3.8,2.444-7.885,5.709-9.2a24.434,24.434,0,0,1,7.518-1.237c2.979-.212,5.964-.336,8.948-.4-.26-.977-.5-1.953-.74-2.929C400.339,993.034,393.784,992.555,388.25,994.166Z" fill="#f8076e"/>
    <path id="Path_1637" data-name="Path 1637" d="M451.816,928.8c23.643,2.208,47.125,8.3,65.638,23.83a57.485,57.485,0,0,1,7.53-5.641c-20.1-17.418-46.5-22.99-72.427-24.638A28.459,28.459,0,0,1,451.816,928.8Z" fill="#05abaa"/>
    <path id="Path_1638" data-name="Path 1638" d="M424.89,950.014c1.647,25.925,7.219,52.323,24.637,72.428a57.647,57.647,0,0,1,5.641-7.531c-15.534-18.513-21.622-41.994-23.83-65.637A28.5,28.5,0,0,1,424.89,950.014Z" fill="#05abaa"/>
    <path id="Path_1639" data-name="Path 1639" d="M500.465,753.612c-2.967-.013-7.239,1.038-9.049,3.637-3.887,5.585-1.928,13.215,3.116,17.195,4.365,3.445,9.744,5.876,14.7,8.382.7-.808,1.418-1.616,2.133-2.419-2.9-1.523-5.77-3.1-8.593-4.769a24.888,24.888,0,0,1-5.946-4.26c-2.419-2.649-3.855-8.134-1.038-11.119,2.947-3.128,8.651-1.872,11.505.547,4.06,3.439,6.921,8.937,9.707,13.433.74-.79,1.479-1.567,2.226-2.351-2.966-4.894-5.913-10.5-10-14.514A12.4,12.4,0,0,0,500.465,753.612Z" fill="#05abaa"/>
    <path id="Path_1640" data-name="Path 1640" d="M259.792,988.874c-2.6,1.81-3.65,6.082-3.638,9.048a12.4,12.4,0,0,0,3.762,8.762c4.011,4.086,9.62,7.033,14.515,10,.783-.747,1.56-1.487,2.35-2.227-4.5-2.786-9.993-5.646-13.432-9.707-2.419-2.854-3.675-8.557-.547-11.5,2.984-2.817,8.47-1.381,11.119,1.038a24.936,24.936,0,0,1,4.26,5.945c1.666,2.823,3.246,5.7,4.769,8.594.8-.715,1.61-1.43,2.419-2.133-2.506-4.956-4.937-10.335-8.383-14.7C273.006,986.946,265.376,984.987,259.792,988.874Z" fill="#05abaa"/>
    <path id="Path_1641" data-name="Path 1641" d="M495.925,878.45c.255-25.969,9.44-50.172,23.3-71.968A10.782,10.782,0,0,1,515,804.231c-15.1,19.1-26.255,40.887-25.707,66.172A15.935,15.935,0,0,1,495.925,878.45Z" fill="#fcf3e1"/>
    <path id="Path_1642" data-name="Path 1642" d="M380.992,993.382a15.934,15.934,0,0,1-8.047-6.635c-25.284-.547-47.068,10.609-66.172,25.708a10.755,10.755,0,0,1,2.251,4.229C330.82,1002.822,355.023,993.637,380.992,993.382Z" fill="#fcf3e1"/>
    <path id="Path_1643" data-name="Path 1643" d="M508.648,765.595a13.7,13.7,0,0,0-4.011-4.08c-2.164-1.225-5.7-1.492-7.319.653-3.327,4.4,1.8,8.762,5.167,10.814,3.322,2.022,6.729,3.893,10.174,5.7a.985.985,0,0,1,.162.1c.889-.988,1.79-1.971,2.693-2.947a.979.979,0,0,1-.15-.2C513.225,772.23,511.023,768.841,508.648,765.595Z" fill="#f8076e"/>
    <path id="Path_1644" data-name="Path 1644" d="M275.524,999.943c-2.051-3.37-6.417-8.494-10.813-5.168-2.146,1.623-1.878,5.156-.653,7.32a13.71,13.71,0,0,0,4.079,4.011c3.246,2.375,6.635,4.577,10.044,6.716a.966.966,0,0,1,.2.149c.976-.9,1.959-1.8,2.948-2.693a.956.956,0,0,1-.106-.161C279.418,1006.672,277.546,1003.264,275.524,999.943Z" fill="#f8076e"/>
    <path id="Path_1645" data-name="Path 1645" d="M515.682,902.137q-1.9,3.19-3.887,6.324,1.26.466,2.519.952C514.761,907.118,515.165,904.63,515.682,902.137Z" fill="#fcf3e1"/>
    <path id="Path_1646" data-name="Path 1646" d="M411,1009.252q-3.135,1.978-6.324,3.887c2.493-.516,4.98-.92,7.275-1.368Q411.47,1010.511,411,1009.252Z" fill="#fcf3e1"/>
    <path id="Path_1647" data-name="Path 1647" d="M448.1,937.266c22.319,2.543,44.247,8.911,61.639,23.668.809-1.039,1.649-2.071,2.544-3.1,1.138-1.312,2.345-2.556,3.588-3.75-18.189-15.23-41.447-21.1-64.654-23.208A28.484,28.484,0,0,1,448.1,937.266Z" fill="#fcf3e1"/>
    <path id="Path_1648" data-name="Path 1648" d="M433.415,948.677c2.108,23.208,7.979,46.465,23.208,64.655,1.194-1.244,2.437-2.45,3.75-3.588,1.032-.9,2.065-1.735,3.1-2.544-14.757-17.393-21.125-39.32-23.668-61.639A28.488,28.488,0,0,1,433.415,948.677Z" fill="#fcf3e1"/>
    <path id="Path_1649" data-name="Path 1649" d="M508.337,884.184c-5.242-.535-6.834,5.7-7.17,9.558-.317,3.693-.46,7.406-.534,11.112.453.131.907.243,1.355.373.946.274,1.884.566,2.817.859,1.922-3.166,3.787-6.368,5.5-9.645,1.082-2.071,2.213-4.291,2.077-6.7C512.268,887.622,510.75,884.426,508.337,884.184Z" fill="#05abaa"/>
    <path id="Path_1650" data-name="Path 1650" d="M386.727,1005.795c.242,2.413,3.438,3.93,5.558,4.048,2.407.137,4.627-.995,6.7-2.077,3.277-1.716,6.48-3.582,9.645-5.5-.292-.933-.585-1.872-.858-2.817-.13-.448-.243-.9-.373-1.356-3.707.075-7.419.218-11.113.535C392.422,998.96,386.191,1000.552,386.727,1005.795Z" fill="#05abaa"/>
    <path id="Path_1651" data-name="Path 1651" d="M504.961,787.882q1.407-1.707,2.848-3.4c-3.2-1.642-6.393-3.327-9.528-5.112Q501.715,783.554,504.961,787.882Z" fill="#fcf3e1"/>
    <path id="Path_1652" data-name="Path 1652" d="M287.029,1005.266q1.689-1.437,3.4-2.848-4.32-3.255-8.507-6.679C283.7,998.873,285.388,1002.064,287.029,1005.266Z" fill="#fcf3e1"/>
    <path id="Path_1653" data-name="Path 1653" d="M444.394,941.851a28.3,28.3,0,0,1-2.609,2.3c2.382,22.3,8.6,44.426,23.389,61.757A55.228,55.228,0,0,1,477.6,999a70.584,70.584,0,0,1,19.458-4.49,70.528,70.528,0,0,1,4.49-19.458,55.211,55.211,0,0,1,6.908-12.425C491.124,947.837,469,941.625,446.7,939.243A28.143,28.143,0,0,1,444.394,941.851Z" fill="#05abaa"/>
    <path id="Path_1654" data-name="Path 1654" d="M492.436,776.216a12.5,12.5,0,0,0-8.942-3.165c-3.122.193-7.481,1.729-9.1,4.62-3.278,5.889-.567,13.264,4.756,16.716,4.7,3.047,10.342,4.944,15.535,6.977.609-.877,1.231-1.76,1.859-2.63-4.963-1.99-10.9-3.874-15.025-7.307-2.873-2.4-5.061-7.823-2.456-11.237,2.811-3.675,8.93-2.612,12.045-.18,4.086,3.19,7.314,7.966,10.448,12.082q1.007-1.269,2.021-2.531C500.2,785.04,496.777,779.873,492.436,776.216Z" fill="#05abaa"/>
    <path id="Path_1655" data-name="Path 1655" d="M280.214,971.854c-2.892,1.616-4.428,5.976-4.62,9.1a12.49,12.49,0,0,0,3.165,8.943c3.656,4.34,8.824,7.761,13.344,11.144q1.26-1.017,2.532-2.022c-4.117-3.134-8.893-6.361-12.083-10.447-2.432-3.115-3.495-9.234.18-12.045,3.415-2.606,8.837-.417,11.237,2.456,3.433,4.123,5.317,10.062,7.307,15.024.871-.628,1.753-1.25,2.63-1.859-2.033-5.193-3.929-10.839-6.976-15.534C293.478,971.288,286.1,968.576,280.214,971.854Z" fill="#05abaa"/>
    <path id="Path_1656" data-name="Path 1656" d="M481.105,781.757c-3.2,4.229,1.68,8.352,5.187,10.1,3.644,1.822,7.413,3.427,11.182,4.956a1.266,1.266,0,0,1,.329.212q1.212-1.643,2.463-3.259a1.114,1.114,0,0,1-.287-.261C497.007,789.636,486.914,774.108,481.105,781.757Z" fill="#f8076e"/>
    <path id="Path_1657" data-name="Path 1657" d="M294.4,983.75c-1.753-3.507-5.876-8.389-10.1-5.186-7.649,5.808,7.88,15.9,11.754,18.873a1.147,1.147,0,0,1,.261.286q1.614-1.25,3.258-2.463a1.277,1.277,0,0,1-.212-.329C297.831,991.162,296.227,987.394,294.4,983.75Z" fill="#f8076e"/>
    <path id="Path_1658" data-name="Path 1658" d="M473.053,899.4c1,.13,2,.267,3,.4-.267-3.035-.473-6.07-.6-9.117a23.612,23.612,0,0,1,.436-7.6c1-3.383,4.744-7.164,8.612-6.567,4.359.678,6.374,6.387,5.833,10.124-.709,4.919-3.451,10.012-5.646,14.564.989.18,1.984.373,2.972.572,2.519-5.1,5.654-10.565,6.76-16.15,1.2-6.088-3.078-13.73-9.726-14.408-6.106-.622-11.666,4.975-12.518,10.578C471.311,887.473,472.412,893.7,473.053,899.4Z" fill="#f8076e"/>
    <path id="Path_1659" data-name="Path 1659" d="M388.169,991.878c5.584-1.107,11.044-4.241,16.149-6.76-.2-.989-.391-1.984-.572-2.973-4.552,2.2-9.644,4.938-14.563,5.647-3.738.541-9.447-1.474-10.124-5.833-.6-3.868,3.183-7.612,6.566-8.613a23.639,23.639,0,0,1,7.605-.435c3.047.124,6.083.329,9.118.6-.138-1-.275-2-.4-3-5.7-.64-11.927-1.741-17.6-.877-5.6.853-11.2,6.412-10.578,12.519C374.439,988.8,382.081,993.078,388.169,991.878Z" fill="#f8076e"/>
    <path id="Path_1660" data-name="Path 1660" d="M489.806,902.205q1.838.391,3.656.815c.013-3,.038-6.007.162-9.011C492.4,896.764,491.124,899.494,489.806,902.205Z" fill="#fcf3e1"/>
    <path id="Path_1661" data-name="Path 1661" d="M396.552,991.082c3-.125,6.013-.15,9.011-.162q-.421-1.82-.815-3.657C402.036,988.582,399.307,989.863,396.552,991.082Z" fill="#fcf3e1"/>
    <path id="Path_1662" data-name="Path 1662" d="M491.41,806.221c.665-1.026,1.35-2.046,2.04-3.066-3.053-1.213-6.1-2.462-9.11-3.793C486.746,801.594,489.1,803.9,491.41,806.221Z" fill="#fcf3e1"/>
    <path id="Path_1663" data-name="Path 1663" d="M305.7,990.907c1.021-.69,2.04-1.374,3.067-2.039-2.326-2.314-4.627-4.664-6.86-7.071C303.235,984.807,304.485,987.854,305.7,990.907Z" fill="#fcf3e1"/>
    <path id="Path_1664" data-name="Path 1664" d="M476.965,796.184a12.334,12.334,0,0,0-9.192-1.318c-2.773.678-6.56,2.692-7.7,5.516-2.469,6.15.977,13.183,6.66,15.926,4.957,2.394,10.728,3.544,16.094,4.831.486-.957.977-1.915,1.481-2.86-3-.784-5.989-1.623-8.956-2.55a25.165,25.165,0,0,1-6.765-2.779c-3-2.046-5.423-6.7-3.7-10.33,1.747-3.687,7.55-4.1,10.777-2.692,2.481,1.088,4.526,3.084,6.511,4.869,2.17,1.952,4.284,3.967,6.367,6.013.554-.92,1.12-1.841,1.7-2.748C486.218,803.92,481.971,798.989,476.965,796.184Z" fill="#05abaa"/>
    <path id="Path_1665" data-name="Path 1665" d="M302.924,957.532c-2.823,1.138-4.838,4.925-5.516,7.7a12.337,12.337,0,0,0,1.319,9.191c2.8,5.006,7.736,9.253,11.877,13.277.908-.579,1.829-1.145,2.749-1.7-2.046-2.083-4.061-4.2-6.014-6.368-1.784-1.984-3.78-4.03-4.869-6.511-1.411-3.227-.994-9.029,2.693-10.777,3.632-1.722,8.283.7,10.329,3.7a25.207,25.207,0,0,1,2.78,6.766c.926,2.967,1.766,5.952,2.549,8.955.946-.5,1.9-.995,2.861-1.48-1.287-5.367-2.438-11.138-4.832-16.094C316.107,958.508,309.074,955.063,302.924,957.532Z" fill="#05abaa"/>
    <path id="Path_1666" data-name="Path 1666" d="M482.512,900.812c1.673-3.575,3.314-7.2,4.682-10.9.815-2.2,1.548-4.54.858-6.884-.647-2.214-2.612-4.664-5.155-4.2-4.85.877-5.479,6.324-5.367,10.273.093,3.682.349,7.357.678,11.02C479.645,900.333,481.081,900.57,482.512,900.812Z" fill="#05abaa"/>
    <path id="Path_1667" data-name="Path 1667" d="M381.365,980.354c-.46,2.544,1.99,4.509,4.2,5.156,2.345.69,4.689-.044,6.884-.858,3.707-1.369,7.326-3.01,10.9-4.683-.242-1.43-.478-2.867-.7-4.3-3.663-.33-7.338-.585-11.019-.678C387.69,974.876,382.242,975.5,381.365,980.354Z" fill="#05abaa"/>
    <path id="Path_1668" data-name="Path 1668" d="M472.381,801.265c-2.45-.143-5.311.895-5.739,3.507-.79,4.844,4.016,7.2,7.76,8.42,3.607,1.181,7.264,2.2,10.933,3.147q1.017-1.839,2.077-3.657c-2.811-2.78-5.678-5.528-8.694-8.1C476.908,803.037,474.869,801.408,472.381,801.265Z" fill="#f8076e"/>
    <path id="Path_1669" data-name="Path 1669" d="M307.315,964.1c-2.613.429-3.651,3.29-3.508,5.74.143,2.487,1.772,4.527,3.315,6.336,2.574,3.017,5.322,5.883,8.1,8.694q1.819-1.064,3.656-2.077c-.946-3.669-1.965-7.325-3.147-10.932C314.51,968.116,312.158,963.309,307.315,964.1Z" fill="#f8076e"/>
    <path id="Path_1670" data-name="Path 1670" d="M480.5,826.04c.443-.983.9-1.965,1.362-2.936-2.661-.615-5.547-1.2-8.376-1.965C475.845,822.731,478.177,824.373,480.5,826.04Z" fill="#fcf3e1"/>
    <path id="Path_1671" data-name="Path 1671" d="M325.647,979.316c.97-.466,1.953-.92,2.935-1.362-1.667-2.319-3.309-4.651-4.9-7.014C324.446,973.769,325.031,976.654,325.647,979.316Z" fill="#fcf3e1"/>
    <path id="Path_1672" data-name="Path 1672" d="M448.663,825.051c-1.76,6.449,2.712,12.953,8.813,14.819,5.36,1.642,11.4,1.778,17,2.176.293-.982.59-1.965.914-2.941a.889.889,0,0,1,.044-.125c-5.187-.4-11.3-.516-16.076-2.493-3.469-1.437-7.033-5.734-5.777-9.8,1.25-4.048,6.972-5.31,10.535-4.29,5.1,1.467,9.937,5.491,14.246,8.581q.607-1.492,1.25-2.966c-4.527-3.308-9.228-7.064-14.371-9.278C459.546,816.283,450.511,818.3,448.663,825.051Z" fill="#05abaa"/>
    <path id="Path_1673" data-name="Path 1673" d="M327.594,946.121c-6.754,1.847-8.769,10.883-6.319,16.579,2.214,5.143,5.97,9.844,9.279,14.371q1.473-.643,2.966-1.25c-3.091-4.309-7.115-9.147-8.582-14.247-1.02-3.563.243-9.284,4.29-10.534,4.068-1.256,8.365,2.307,9.8,5.777,1.978,4.776,2.09,10.889,2.494,16.075a.826.826,0,0,1,.124-.043c.977-.324,1.959-.622,2.942-.915-.4-5.6-.535-11.641-2.177-17C340.547,948.832,334.042,944.361,327.594,946.121Z" fill="#05abaa"/>
    <path id="Path_1674" data-name="Path 1674" d="M461.492,824.118c-2.139-.025-5.4,1.2-5.889,3.588-.982,4.813,4.7,7.152,8.308,7.761,4.049.684,8.154,1.088,12.238,1.437.454-1.3.927-2.6,1.418-3.881-3.115-2.2-6.287-4.347-9.539-6.343C466.038,825.461,463.911,824.149,461.492,824.118Z" fill="#f8076e"/>
    <path id="Path_1675" data-name="Path 1675" d="M330.249,953.061c-2.389.485-3.613,3.75-3.589,5.889.031,2.419,1.344,4.546,2.563,6.536,2,3.252,4.141,6.424,6.342,9.539,1.282-.491,2.582-.964,3.881-1.418-.348-4.085-.753-8.19-1.436-12.238C337.4,957.756,335.061,952.078,330.249,953.061Z" fill="#f8076e"/>
    <path id="Path_1676" data-name="Path 1676" d="M463.358,843.346c3.258,1.281,6.48,2.643,9.689,4.048q.392-1.641.839-3.264c-3.818-.3-7.636-.647-11.436-1.138C462.755,843.11,463.054,843.222,463.358,843.346Z" fill="#fcf3e1"/>
    <path id="Path_1677" data-name="Path 1677" d="M345.534,959.908c.491,3.8.839,7.617,1.138,11.436q1.623-.449,3.264-.84c-1.4-3.209-2.766-6.43-4.047-9.688C345.764,960.511,345.652,960.212,345.534,959.908Z" fill="#fcf3e1"/>
    <path id="Path_1678" data-name="Path 1678" d="M441.63,854.235c.585,6.685,6.187,11.168,12.6,11.5,5.305.274,10.839-.7,16.118-1.43.088-1.076.188-2.152.3-3.221-3.134.379-6.274.7-9.427.926-2.662.193-5.478.485-8.065-.354-3.19-1.026-6.983-4.677-6.324-8.42.739-4.229,6.062-6.374,9.794-5.989,5.168.529,10.491,3.277,15.279,5.385.2-1.051.416-2.1.646-3.14-5.273-2.369-10.938-5.317-16.659-6.237C449.69,842.252,441,847.077,441.63,854.235Z" fill="#05abaa"/>
    <path id="Path_1679" data-name="Path 1679" d="M356.777,939.088c-7.158-.628-11.983,8.059-10.982,14.271.921,5.722,3.868,11.387,6.237,16.66,1.045-.23,2.09-.448,3.141-.647-2.108-4.788-4.857-10.111-5.386-15.279-.385-3.731,1.76-9.054,5.989-9.794,3.744-.659,7.394,3.134,8.42,6.324.839,2.587.547,5.4.355,8.066-.231,3.153-.548,6.293-.927,9.427,1.069-.118,2.146-.217,3.221-.305.734-5.279,1.7-10.814,1.43-16.118C367.946,945.275,363.462,939.672,356.777,939.088Z" fill="#05abaa"/>
    <path id="Path_1680" data-name="Path 1680" d="M460.087,850.286c-3.806-1.269-11.522-1.523-10.907,4.689.485,4.838,6.939,5.211,10.466,5.006,3.768-.224,7.524-.6,11.274-1.064q.261-2.07.609-4.141C467.773,853.165,463.968,851.579,460.087,850.286Z" fill="#f8076e"/>
    <path id="Path_1681" data-name="Path 1681" d="M357.518,946.637c-6.213-.615-5.958,7.1-4.69,10.908,1.294,3.88,2.88,7.686,4.49,11.442,1.381-.23,2.761-.436,4.142-.61.46-3.749.84-7.506,1.063-11.274C362.728,953.577,362.355,947.122,357.518,946.637Z" fill="#f8076e"/>
    <path id="Path_1682" data-name="Path 1682" d="M466.723,898.667c1.392.143,2.779.3,4.172.466-.354-3.277-.69-6.567-.895-9.856C468.992,892.436,467.86,895.558,466.723,898.667Z" fill="#fcf3e1"/>
    <path id="Path_1683" data-name="Path 1683" d="M401.676,968.353c-.168-1.393-.323-2.78-.467-4.173-3.109,1.138-6.231,2.27-9.39,3.277C395.108,967.662,398.4,968,401.676,968.353Z" fill="#fcf3e1"/>
    <path id="Path_1684" data-name="Path 1684" d="M470.024,872.928c0-2.164.056-4.328.181-6.48-1.959.255-3.924.5-5.89.722A16.736,16.736,0,0,1,470.024,872.928Z" fill="#fcf3e1"/>
    <path id="Path_1685" data-name="Path 1685" d="M369.712,961.773c-.218,1.965-.467,3.93-.722,5.889q3.23-.186,6.481-.18A16.756,16.756,0,0,1,369.712,961.773Z" fill="#fcf3e1"/>
    <path id="Path_1686" data-name="Path 1686" d="M450.013,897.4c1.008.05,2.009.106,3.016.168-1.076-5.229-2.761-11.355-1.971-16.622.535-3.551,3.837-8,7.9-7.792,3.962.211,6.735,4.987,6.885,8.495.118,2.723-.809,5.429-1.568,8-.845,2.867-1.772,5.7-2.755,8.525,1.008.088,2.009.181,3.016.28,2.04-5.547,4.814-11.622,5.268-17.561s-4.459-12.872-10.8-12.9c-6.257-.025-11.468,5.615-11.76,11.641-.274,5.833,1.548,12.07,2.761,17.741Z" fill="#f8076e"/>
    <path id="Path_1687" data-name="Path 1687" d="M383.436,967.264c5.939-.454,12.015-3.227,17.562-5.267-.1-1.007-.193-2.009-.28-3.016-2.823.983-5.659,1.909-8.526,2.755-2.568.759-5.273,1.685-8,1.567-3.507-.149-8.283-2.923-8.495-6.884-.211-4.067,4.241-7.369,7.792-7.9,5.268-.79,11.393.9,16.623,1.972-.062-1.008-.119-2.009-.168-3.017h-.025c-5.671-1.212-11.908-3.034-17.741-2.761-6.027.293-11.667,5.5-11.642,11.76C370.564,962.806,377.51,967.718,383.436,967.264Z" fill="#f8076e"/>
    <path id="Path_1688" data-name="Path 1688" d="M459.217,875.6c-5.423-.9-6.412,6.219-6,9.95.46,4.073,1.213,8.134,2,12.157,1.375.093,2.743.187,4.117.3,1.312-3.775,2.55-7.575,3.6-11.43C463.924,882.952,464.315,876.454,459.217,875.6Z" fill="#05abaa"/>
    <path id="Path_1689" data-name="Path 1689" d="M378.145,956.674c.851,5.1,7.35,4.707,10.975,3.725,3.856-1.051,7.655-2.288,11.43-3.6-.111-1.374-.2-2.742-.3-4.116-4.024-.79-8.085-1.543-12.158-2C384.363,950.263,377.242,951.251,378.145,956.674Z" fill="#05abaa"/>
    <path id="Path_1690" data-name="Path 1690" d="M423.758,947.862a26.955,26.955,0,0,0,8.246-.951,26.374,26.374,0,0,0,17.449-17.45,26.921,26.921,0,0,0,.951-8.245,26.626,26.626,0,0,0-1.535-7.506q-3.256-.075-6.517-.1a21.113,21.113,0,0,1-26.2,26.2c.019,2.17.05,4.347.1,6.517A26.634,26.634,0,0,0,423.758,947.862Z" fill="#f8076e"/>
    <path id="Path_1691" data-name="Path 1691" d="M447.817,897.3c-.7-3.271-1.368-6.554-1.915-9.857-.771,3.246-1.629,6.468-2.531,9.677C444.852,897.174,446.338,897.237,447.817,897.3Z" fill="#fcf3e1"/>
    <path id="Path_1692" data-name="Path 1692" d="M399.848,945.275c-.069-1.48-.131-2.966-.181-4.446-3.209.9-6.43,1.76-9.676,2.531C393.293,943.907,396.576,944.579,399.848,945.275Z" fill="#fcf3e1"/>
    <path id="Path_1693" data-name="Path 1693" d="M429.566,896.8q-1.251-4.626-2.276-9.3c-.541-2.506-1.2-5.124-.883-7.7.416-3.445,3.451-7.922,7.375-7.922,3.974,0,7.033,4.571,7.394,8.065.286,2.705-.442,5.46-1.014,8.078-.658,3-1.4,5.976-2.2,8.943,1.076.024,2.145.056,3.222.087,1.635-5.678,3.979-12.064,3.886-17.972-.087-5.858-4.931-12.412-11.287-12.462-6.554-.05-11.435,7.008-11.293,12.972.144,5.721,2.22,11.678,3.813,17.188C427.39,896.776,428.478,896.789,429.566,896.8Z" fill="#f8076e"/>
    <path id="Path_1694" data-name="Path 1694" d="M399.586,938.64c-.031-1.076-.062-2.145-.087-3.221-2.966.8-5.945,1.542-8.942,2.2-2.618.572-5.373,1.3-8.079,1.014-3.494-.361-8.065-3.42-8.065-7.394,0-3.924,4.478-6.959,7.923-7.375,2.58-.318,5.2.342,7.7.883q4.682,1.016,9.3,2.276c-.013-1.089-.026-2.177-.031-3.265-5.51-1.592-11.467-3.669-17.189-3.812-5.964-.143-13.021,4.738-12.972,11.293.05,6.355,6.6,11.2,12.462,11.287C387.522,942.62,393.908,940.275,399.586,938.64Z" fill="#f8076e"/>
    <path id="Path_1695" data-name="Path 1695" d="M435.53,932.988a18.664,18.664,0,0,0,4.7-19.042,1.18,1.18,0,0,1-.049-.348c-8.058-.038-16.072.074-23.949.093-.018,7.877-.13,15.891-.093,23.948a1.178,1.178,0,0,1,.348.05A18.664,18.664,0,0,0,435.53,932.988Z" fill="#05abaa"/>
    <path id="Path_1696" data-name="Path 1696" d="M438.707,878.5c-.684-1.971-2.68-4.316-4.925-4.316s-4.26,2.32-4.925,4.316c-.746,2.232-.292,4.633.162,6.878.765,3.8,1.709,7.586,2.73,11.336l.019.118c1.336.019,2.679.044,4.017.075a1.161,1.161,0,0,1,.03-.193c1.064-3.9,2.046-7.842,2.831-11.809C439.056,882.816,439.423,880.564,438.707,878.5Z" fill="#05abaa"/>
    <path id="Path_1697" data-name="Path 1697" d="M387.92,926.476c-2.245-.454-4.646-.908-6.878-.161-2,.665-4.315,2.686-4.315,4.925s2.344,4.241,4.315,4.925c2.064.715,4.316.348,6.4-.062,3.968-.784,7.9-1.766,11.81-2.83a1.157,1.157,0,0,1,.192-.031c-.031-1.337-.055-2.68-.074-4.017-.037-.006-.081-.012-.118-.019C395.507,928.186,391.726,927.241,387.92,926.476Z" fill="#05abaa"/>
    <path id="Path_1698" data-name="Path 1698" d="M424.088,896.752c-.958-3.427-1.879-6.872-2.668-10.348-.8,3.463-1.71,6.909-2.668,10.329C420.53,896.733,422.309,896.745,424.088,896.752Z" fill="#fcf3e1"/>
    <path id="Path_1699" data-name="Path 1699" d="M388.946,918.877c3.476.79,6.921,1.71,10.348,2.668-.006-1.779-.019-3.557-.019-5.335C395.855,917.167,392.41,918.081,388.946,918.877Z" fill="#fcf3e1"/>
    <path id="Path_1700" data-name="Path 1700" d="M404.822,896.752c-.821-3.066-1.586-6.151-2.257-9.254-.542-2.506-1.2-5.124-.889-7.7.423-3.445,3.451-7.922,7.381-7.922,3.974,0,7.027,4.571,7.394,8.065.286,2.705-.441,5.46-1.019,8.078-.641,2.923-1.363,5.827-2.14,8.719h3.252c1.63-5.6,3.894-11.859,3.8-17.661-.093-5.858-4.938-12.412-11.287-12.462-6.554-.05-11.442,7.008-11.293,12.972.143,5.715,2.214,11.666,3.806,17.17Z" fill="#f8076e"/>
    <path id="Path_1701" data-name="Path 1701" d="M399.275,914v-3.253c-2.891.778-5.8,1.5-8.718,2.14-2.618.578-5.373,1.306-8.079,1.02-3.494-.367-8.065-3.421-8.065-7.394,0-3.93,4.478-6.959,7.923-7.382,2.58-.311,5.2.348,7.7.889,3.1.672,6.187,1.437,9.253,2.258v-3.252c-5.5-1.593-11.455-3.663-17.17-3.806-5.964-.15-13.021,4.738-12.972,11.293.05,6.349,6.6,11.193,12.462,11.286C387.416,917.9,393.679,915.631,399.275,914Z" fill="#f8076e"/>
    <path id="Path_1702" data-name="Path 1702" d="M413.982,878.5c-.684-1.971-2.68-4.316-4.925-4.316s-4.26,2.32-4.925,4.316c-.746,2.232-.292,4.633.155,6.878.772,3.8,1.717,7.586,2.731,11.336a.069.069,0,0,1,.005.031c1.356,0,2.712-.006,4.061-.006a.043.043,0,0,0,.007-.025c1.056-3.9,2.046-7.842,2.823-11.809C414.324,882.816,414.7,880.564,413.982,878.5Z" fill="#05abaa"/>
    <path id="Path_1703" data-name="Path 1703" d="M387.92,901.745c-2.245-.448-4.646-.9-6.878-.155-2,.665-4.315,2.68-4.315,4.925s2.344,4.241,4.315,4.925c2.064.715,4.316.342,6.4-.069,3.968-.777,7.9-1.766,11.81-2.823a.06.06,0,0,0,.024-.006c0-1.35.007-2.705.007-4.061a.056.056,0,0,1-.031-.006C395.507,903.461,391.726,902.516,387.92,901.745Z" fill="#05abaa"/>
    <path id="Path_1704" data-name="Path 1704" d="M380.9,893.107a27.793,27.793,0,0,1,7.115.827,34.377,34.377,0,0,1-8.228-6.15c-2.513-2.761-4.092-8.5-1.026-11.566s8.8-1.487,11.566,1.026a34.374,34.374,0,0,1,6.151,8.227,27.831,27.831,0,0,1-.828-7.114c0-.006,0-.006,0-.013-2.227-3.494-4.8-6.915-8.955-8.134-3.613-1.063-8.868-.5-11.648,2.289s-3.351,8.034-2.288,11.647c1.219,4.154,4.639,6.729,8.134,8.955A.019.019,0,0,1,380.9,893.107Z" fill="#f8076e"/>
  </g>
</svg>
