<svg xmlns="http://www.w3.org/2000/svg" width="358.429" height="355.876" viewBox="0 0 358.429 355.876">
  <g id="Group_70" data-name="Group 70" transform="translate(-105.096 -145)">
    <path id="Path_865" data-name="Path 865" d="M119.014,494.2c2.531-3.681,2.68-7.866,2.04-12.051a14.258,14.258,0,0,0,7.443,2.182c3,.044,7.282-.833,9.533-2.991,4.005-3.843,4.577-10.907,2.388-15.963a14.355,14.355,0,0,0,6.331,1.548c3,.044,7.282-.833,9.533-2.991,4.3-4.123,4.639-11.977,1.86-17.057,5.173,2.642,12.816,2.22,16.883-2.115,2.04-2.17,2.854-6.256,2.873-9.11a14.373,14.373,0,0,0-2.027-7.518c5.317,1.946,12.9.827,16.336-3.856,3.488-4.745,2.419-12.549-1.076-17,5.516,1.268,12.81-1.014,15.684-6.045,1.473-2.587,1.331-6.747.7-9.533a14.191,14.191,0,0,0-4.123-7.232c5.808.733,13.724-2.886,15.366-8.9,1.549-5.684-1.573-12.58-6.386-15.665a13.941,13.941,0,0,0-1.573-.858,13.977,13.977,0,0,0,2.275-.05c5.423-.578,12.052-5.522,12.774-11.3.709-5.74-3.806-12.1-8.874-14.3a14.834,14.834,0,0,0-4.2-1.1,15.317,15.317,0,0,0,6.032-6.449c1.841,4.95,7.214,9.838,12.611,9.838,5.174,0,10.323-4.483,12.363-9.222,2.039,4.733,7.189,9.222,12.363,9.222,5.776,0,11.535-5.6,12.953-10.888,2.338,3.283,5.186,6.162,9.271,7.188,4.118,1.033,10.243.311,13.408-2.854s3.886-9.291,2.854-13.407c-1.025-4.086-3.9-6.934-7.188-9.272,5.292-1.418,10.888-7.177,10.888-12.954,0-5.174-4.489-10.323-9.221-12.362,4.738-2.04,9.221-7.189,9.221-12.363,0-5.4-4.887-10.771-9.838-12.611a15.325,15.325,0,0,0,6.45-6.032,14.782,14.782,0,0,0,1.1,4.2c2.207,5.069,8.563,9.583,14.3,8.874,5.783-.721,10.727-7.35,11.306-12.773a14.1,14.1,0,0,0,.049-2.276,13.936,13.936,0,0,0,.858,1.574c3.085,4.813,9.981,7.935,15.665,6.386,6.014-1.641,9.633-9.558,8.9-15.366a14.194,14.194,0,0,0,7.233,4.123c2.786.634,6.946.777,9.533-.7,5.031-2.874,7.313-10.168,6.045-15.684,4.452,3.5,12.257,4.565,17,1.076,4.682-3.439,5.8-11.019,3.855-16.336a14.369,14.369,0,0,0,7.519,2.027c2.854-.019,6.94-.833,9.11-2.873,4.334-4.067,4.757-11.71,2.114-16.884,5.081,2.78,12.935,2.444,17.058-1.859,2.158-2.251,3.035-6.536,2.991-9.533a14.356,14.356,0,0,0-1.548-6.331c5.056,2.189,12.12,1.617,15.963-2.387,2.158-2.252,3.035-6.536,2.992-9.534A14.278,14.278,0,0,0,444.8,158.4c4.184.64,8.37.491,12.051-2.04,3.258-2.245,6.679-6.828,6.679-10.988,0-.125-.013-.251-.019-.377h-2.282c.006.126.019.251.019.377,0,3.88-3.24,7.972-6.505,9.8-3.75,2.1-7.96,1.561-11.977.678a29.884,29.884,0,0,0-5.883-4.577c.914.2,1.835.4,2.755.591,2.631.541,5.367,1.194,8.072.883,3.457-.392,8.271-3.346,8.271-7.375,0-.128-.019-.251-.029-.377h-2.316a3.158,3.158,0,0,1,.025.377c0,2.3-2.525,4.278-4.571,4.925-2.375.746-4.875.286-7.251-.162-4-.752-7.972-1.71-11.908-2.73a1.277,1.277,0,0,0-.3-.031c-.933-.466-1.853-.926-2.742-1.381a1.1,1.1,0,0,0,.2-.621,1.126,1.126,0,0,0-.076-.377h-2.8l.357.377c-8.2,8.656-16.325,17.368-24.72,25.838C369.325,202,332.673,231.56,286.954,230.354c4.122-2.792,7.568-8.812,6.585-13.756a9.075,9.075,0,0,0-.317-1.2,87.179,87.179,0,0,0,28.252-4.353c33.99-11.193,58.79-39.743,82.638-64.916a1.059,1.059,0,0,0,.231-1.129h-3.436l.308.377c-4.851,5.982-10.634,12.611-18.769,13.37-7.449.7-16.391-5.249-16.391-13.37,0-.128.021-.25.025-.377h-2.072c-.008.126-.031.249-.032.377a7.884,7.884,0,0,0,.1,1.194,17.687,17.687,0,0,0,.988,3.575q-3.5.831-6.92,1.891a80.209,80.209,0,0,1-9.639,1.349c-5.373.4-12.73-1.144-12.73-8.009,0-.132.021-.249.026-.377h-2.138c-.005.126-.021.249-.021.377,0,5.7,5.062,9.639,10.335,10.161a33.51,33.51,0,0,0,4.416.124,22.124,22.124,0,0,0-4.77,2.786,11.315,11.315,0,0,0-2.568,2.886,1.042,1.042,0,0,0-.193.018,314.854,314.854,0,0,1-62.609,5.852,8.956,8.956,0,0,0-.74-1.9c-2.911-5.484-11.094-7.468-16.6-5.59a23.743,23.743,0,0,0,5-14.34c0-.126-.014-.251-.015-.377h-2.128c0,.126.01.251.01.377a21.941,21.941,0,0,1-6.355,15.142c-4.105,4.1-9.291,5.87-14.975,6.337q-1.771-2.8-3.706-5.5c9.16.541,17.686-6.182,17.686-15.982,0-.129-.018-.25-.021-.377h-2.135c0,.127.023.248.023.377,0,9.041-8.47,15.2-17.014,13.693a.8.8,0,0,0-.243-.019,110.654,110.654,0,0,0-12.1-13.606c0-.024,0-.046.005-.068s0-.045-.005-.069c.106-.1.205-.207.311-.308h-2.407c0,.126.006.251.006.377a55.865,55.865,0,0,1-3.015,18.326,54.639,54.639,0,0,1-7.917,15.565,64.744,64.744,0,0,1-11.778,12.1c-9.551,7.55-20.969,11.02-32.983,12.089a1.215,1.215,0,0,0-1.063,1.064c-1.071,12.014-4.541,23.431-12.089,32.983a64.81,64.81,0,0,1-12.1,11.778,54.652,54.652,0,0,1-15.565,7.917,55.858,55.858,0,0,1-18.327,3.015c-.976,0-1.954-.03-2.929-.078v5.05c.968-.943,1.926-1.9,2.861-2.882a.56.56,0,0,0,.068,0,.549.549,0,0,0,.069,0,110.654,110.654,0,0,0,13.606,12.1.8.8,0,0,0,.019.243c1.511,8.544-4.652,17.014-13.694,17.014a13.849,13.849,0,0,1-2.929-.324V293.5a16.07,16.07,0,0,0,2.929.286c9.8,0,16.524-8.526,15.983-17.686q2.7,1.931,5.5,3.706c-.467,5.684-2.233,10.871-6.337,14.975a21.943,21.943,0,0,1-15.143,6.355,19.871,19.871,0,0,1-2.929-.224v2.148a20.847,20.847,0,0,0,2.929.209,23.74,23.74,0,0,0,14.341-5c-1.879,5.5.106,13.688,5.59,16.6a8.9,8.9,0,0,0,1.9.74A314.854,314.854,0,0,1,124,378.214a1.052,1.052,0,0,0-.019.193,11.324,11.324,0,0,0-2.884,2.568,22.11,22.11,0,0,0-2.787,4.77,33.338,33.338,0,0,0-.125-4.416c-.522-5.273-4.464-10.335-10.161-10.335a9.107,9.107,0,0,0-2.929.48v2.214a7.577,7.577,0,0,1,2.929-.561c6.866,0,8.415,7.357,8.01,12.73a79.968,79.968,0,0,1-1.35,9.638q-1.062,3.425-1.89,6.922a17.708,17.708,0,0,0-3.575-.989,7.107,7.107,0,0,0-2.388,0c-.586.1-1.165.229-1.736.383V403.8a11,11,0,0,1,2.929-.4c8.122,0,14.074,8.943,13.371,16.393-.759,8.134-7.388,13.917-13.371,18.768-.968-.787-1.954-1.6-2.929-2.441v3.28q1.09,1.031,2.177,2.058a1.086,1.086,0,0,0,1.5,0c25.173-23.848,53.723-48.648,64.916-82.639a87.2,87.2,0,0,0,4.353-28.251,9.076,9.076,0,0,0,1.2.317c4.944.983,10.964-2.462,13.756-6.585,1.206,45.719-28.351,82.371-59.139,112.886-8.469,8.395-17.182,16.523-25.839,24.719q-1.462-1.386-2.929-2.769v2.936l.684.648c-.228.44-.456.89-.684,1.339v6.778q.437-1.787.9-3.565a1.278,1.278,0,0,0,.031-.3c.466-.932.927-1.853,1.381-2.742a1.083,1.083,0,0,0,1.243,0c.455.889.914,1.81,1.381,2.742a1.23,1.23,0,0,0,.032.3c1.019,3.936,1.977,7.9,2.729,11.908.447,2.376.908,4.876.162,7.251-.647,2.046-2.625,4.571-4.926,4.571a4.319,4.319,0,0,1-2.929-1.372v2.8a5.469,5.469,0,0,0,2.929.9c4.031,0,6.984-4.814,7.376-8.271.311-2.7-.342-5.441-.883-8.072-.193-.92-.392-1.841-.591-2.755a29.885,29.885,0,0,0,4.577,5.883c.883,4.017,1.418,8.227-.678,11.977-1.828,3.265-5.92,6.505-9.8,6.505a8.425,8.425,0,0,1-2.929-.565v2.333a9.378,9.378,0,0,0,2.929.514C112.185,500.876,116.769,497.456,119.014,494.2ZM217.94,320.362c-.293,6.026-5.5,11.666-11.76,11.641-6.336-.024-11.249-6.971-10.795-12.9s3.227-12.014,5.267-17.561c1.007.1,2.008.192,3.016.279-.983,2.824-1.909,5.659-2.755,8.526-.759,2.568-1.685,5.274-1.567,8,.149,3.508,2.923,8.284,6.884,8.5,4.067.211,7.369-4.241,7.9-7.792.79-5.267-.9-11.392-1.972-16.622,1.008.062,2.009.118,3.017.168v.025C216.392,308.292,218.213,314.529,217.94,320.362Zm-22.773,6.71a16.756,16.756,0,0,0,5.709,5.759c-1.966.217-3.931.466-5.89.721C195.111,331.4,195.173,329.236,195.167,327.072Zm-.87-26.2c1.393.168,2.779.323,4.172.466-1.138,3.11-2.27,6.231-3.278,9.39C194.986,307.434,194.65,304.144,194.3,300.867Zm11.554,1.125c1.374.112,2.742.206,4.117.3.789,4.023,1.542,8.084,2,12.157.417,3.731-.573,10.852-5.995,9.95-5.1-.852-4.707-7.35-3.725-10.976C203.3,309.567,204.538,305.767,205.851,301.992Zm11.523.7c1.479.069,2.966.131,4.446.18-.9,3.209-1.76,6.431-2.531,9.677C218.742,309.249,218.07,305.966,217.374,302.7Zm14.035,30.7c-6.355-.05-11.2-6.6-11.287-12.462-.093-5.908,2.251-12.294,3.887-17.972,1.076.031,2.145.063,3.221.087-.795,2.967-1.542,5.945-2.2,8.943-.572,2.618-1.3,5.373-1.013,8.078.36,3.495,3.419,8.065,7.393,8.065,3.924,0,6.959-4.477,7.375-7.922.318-2.581-.342-5.2-.883-7.7q-1.016-4.683-2.276-9.3c1.089.012,2.177.025,3.265.031,1.592,5.51,3.669,11.467,3.812,17.188C242.845,326.382,237.964,333.44,231.409,333.39Zm-2.033-30.1a1.083,1.083,0,0,0,.03-.193c1.338.031,2.681.056,4.018.075l.018.118c1.021,3.75,1.965,7.531,2.731,11.336.454,2.245.907,4.646.161,6.878-.665,2-2.687,4.316-4.925,4.316s-4.241-2.345-4.925-4.316c-.715-2.064-.348-4.316.062-6.4C227.33,311.128,228.313,307.191,229.376,303.286Zm11.727-.038c1.78.007,3.558.019,5.337.019-.959,3.42-1.873,6.866-2.668,10.329C242.982,310.12,242.061,306.675,241.1,303.248Zm15.032,30.142c-6.35-.05-11.2-6.6-11.287-12.462-.094-5.8,2.17-12.064,3.8-17.661H251.9c-.777,2.892-1.5,5.8-2.139,8.719-.578,2.618-1.306,5.373-1.02,8.078.367,3.495,3.42,8.065,7.4,8.065,3.93,0,6.958-4.477,7.381-7.922.311-2.581-.348-5.2-.889-7.7-.672-3.1-1.437-6.188-2.258-9.254h3.252c1.593,5.5,3.663,11.455,3.807,17.17C267.576,326.382,262.689,333.44,256.135,333.39Zm-2.034-30.1a.049.049,0,0,1,.006-.025c1.349,0,2.706-.006,4.061-.006a.059.059,0,0,0,.006.031c1.014,3.75,1.959,7.531,2.73,11.336.448,2.245.9,4.646.156,6.878-.665,2-2.681,4.316-4.925,4.316s-4.241-2.345-4.926-4.316c-.715-2.064-.342-4.316.068-6.4C252.055,311.128,253.044,307.191,254.1,303.286ZM264.642,243.2c3.774-1.312,7.574-2.55,11.429-3.6,3.625-.983,10.124-1.374,10.976,3.725.9,5.423-6.219,6.411-9.949,5.995-4.074-.46-8.135-1.213-12.158-2C264.847,245.944,264.753,244.576,264.642,243.2Zm.7,11.523c3.271.7,6.554,1.368,9.856,1.915-3.246.771-6.467,1.629-9.676,2.531C265.475,257.691,265.412,256.2,265.344,254.725Zm.461,48.43h0q1.939.541,3.9,1.064a1,1,0,0,0,.3.267c3.539,2.046,7.046,4.173,10.441,6.461a14.2,14.2,0,0,1,4.316,3.9c1.256,1.984,1.846,5.473.031,7.3s-5.311,1.225-7.294-.031A14.184,14.184,0,0,1,273.6,317.8c-2.288-3.395-4.415-6.9-6.461-10.441a1.006,1.006,0,0,0-.268-.305q-.521-1.959-1.062-3.9Zm-.063-36.4a1.167,1.167,0,0,0,.193-.031c3.9-1.064,7.841-2.046,11.809-2.83,2.089-.41,4.341-.777,6.4-.062,1.971.684,4.316,2.68,4.316,4.925s-2.319,4.26-4.316,4.925c-2.232.746-4.632.292-6.877-.161-3.806-.765-7.587-1.71-11.337-2.73l-.119-.019C265.8,269.438,265.773,268.1,265.742,266.758Zm26.7,49.1c1.063,3.613.5,8.867-2.289,11.647s-8.035,3.352-11.647,2.289c-4.154-1.219-6.729-4.64-8.955-8.134,0-.007,0-.007-.006-.013a27.824,27.824,0,0,0-.827-7.114,34.372,34.372,0,0,0,6.15,8.227c2.761,2.513,8.5,4.092,11.567,1.026s1.486-8.805-1.027-11.566a34.371,34.371,0,0,0-8.227-6.15,27.78,27.78,0,0,0,7.114.827l.007.006C287.8,309.125,291.22,311.7,292.439,315.854Zm3.6-22.369c.05,6.555-7.008,11.443-12.972,11.293-5.714-.143-11.666-2.213-17.17-3.806V297.72c3.066.821,6.151,1.586,9.253,2.257,2.507.542,5.125,1.2,7.705.89,3.446-.423,7.923-3.451,7.923-7.382,0-3.973-4.571-7.027-8.065-7.394-2.705-.286-5.46.442-8.078,1.02-2.923.641-5.827,1.362-8.719,2.14V286c5.6-1.629,11.859-3.893,17.661-3.8C289.435,282.292,295.989,287.136,296.039,293.485ZM265.9,278.455c3.427.958,6.873,1.878,10.348,2.668-3.464.8-6.909,1.71-10.329,2.668C265.916,282.012,265.9,280.234,265.9,278.455Zm.013,13a.053.053,0,0,1,.019-.006c3.911-1.057,7.847-2.046,11.815-2.823,2.089-.411,4.341-.784,6.4-.069,1.971.684,4.316,2.68,4.316,4.925s-2.319,4.26-4.316,4.925c-2.232.747-4.632.293-6.877-.155-3.806-.771-7.587-1.716-11.337-2.73a.059.059,0,0,0-.032-.006C265.9,294.163,265.91,292.807,265.91,291.458Zm30.129-22.7c.05,6.555-7.008,11.436-12.972,11.293-5.721-.143-11.678-2.22-17.188-3.812-.006-1.088-.019-2.176-.031-3.265q4.628,1.251,9.3,2.276c2.507.541,5.125,1.2,7.705.883,3.446-.416,7.923-3.451,7.923-7.375,0-3.974-4.571-7.033-8.065-7.394-2.705-.286-5.46.442-8.078,1.014-3,.659-5.977,1.4-8.943,2.2-.025-1.076-.055-2.145-.087-3.221,5.678-1.635,12.064-3.98,17.972-3.887C289.435,257.56,295.989,262.4,296.039,268.76ZM421.648,151.57a.89.89,0,0,0,.15.106c4.477,2.413,20.833,9.4,15.111,16.71-1.673,2.139-5.174,1.8-7.332.541a14.517,14.517,0,0,1-4.19-4.484c-2.245-3.172-4.328-6.461-6.344-9.782a1.332,1.332,0,0,0-.137-.18Zm-4.247,4.509c2.774,4.608,5.654,10.385,9.857,13.8,2.8,2.276,8.32,3.383,11.175.417,2.979-3.1,1.375-8.75-1.194-11.449-3.688-3.862-9.415-6.368-14.092-8.867.741-.79,1.487-1.574,2.227-2.357,5.068,2.63,10.776,5.205,15.061,8.979,4.608,4.067,6.076,11.554,2.314,16.778-1.934,2.68-6.536,3.669-9.6,3.5a12.5,12.5,0,0,1-8.5-4.191c-3.825-4.086-6.629-9.421-9.471-14.241C415.922,157.658,416.661,156.869,417.4,156.079Zm-3.75,3.986c1.7,2.941,3.452,6.237,5.492,9.259-3.11-1.877-6.487-3.451-9.527-5.005Q411.639,162.192,413.651,160.065Zm-9.358,9.788a.732.732,0,0,0,.105.075c4.471,2.413,20.827,9.39,15.106,16.7-1.673,2.139-5.175,1.81-7.332.547a14.532,14.532,0,0,1-4.192-4.483c-2.245-3.172-4.322-6.468-6.342-9.782a1.2,1.2,0,0,0-.144-.193C402.427,171.768,403.366,170.811,404.293,169.853Zm-4.328,4.415c2.779,4.621,5.665,10.435,9.893,13.862,2.8,2.276,8.315,3.383,11.169.416,2.979-3.1,1.374-8.755-1.194-11.448-3.663-3.843-9.353-6.343-14.011-8.831q1.13-1.165,2.258-2.344c5.037,2.618,10.7,5.18,14.949,8.93,4.609,4.061,6.076,11.554,2.314,16.778-1.934,2.68-6.529,3.662-9.6,3.5a12.54,12.54,0,0,1-8.507-4.192c-3.855-4.129-6.679-9.527-9.551-14.383C398.453,175.8,399.206,175.033,399.965,174.268Zm-3.837,3.837c1.716,2.967,3.482,6.3,5.54,9.366-3.028-2.1-6.343-3.912-9.309-5.678C393.621,180.568,394.878,179.343,396.128,178.1Zm-9.315,8.924a.918.918,0,0,0,.2.149c3.408,2.139,6.8,4.341,10.044,6.716a13.722,13.722,0,0,1,4.079,4.011c1.224,2.164,1.492,5.7-.654,7.32-4.4,3.326-8.761-1.8-10.813-5.168-2.021-3.321-3.894-6.729-5.7-10.174a.959.959,0,0,0-.107-.161C384.853,188.832,385.836,187.931,386.813,187.029Zm-4.572,4.148c1.524,2.9,3.1,5.771,4.77,8.594a24.882,24.882,0,0,0,4.26,5.945c2.649,2.419,8.134,3.855,11.119,1.038,3.128-2.947,1.872-8.65-.547-11.5-3.44-4.061-8.937-6.921-13.433-9.707.79-.74,1.568-1.48,2.351-2.227,4.894,2.967,10.5,5.914,14.514,10a12.4,12.4,0,0,1,3.762,8.762c.013,2.966-1.038,7.238-3.638,9.048-5.584,3.887-13.214,1.928-17.194-3.115-3.445-4.366-5.877-9.745-8.383-14.7C380.631,192.607,381.44,191.892,382.241,191.177Zm-4.079,3.557c1.642,3.2,3.327,6.393,5.111,9.527q-4.178-3.434-8.506-6.679Q376.472,196.174,378.162,194.734Zm-9.284,7.543a1.111,1.111,0,0,0,.261.286c3.874,2.972,19.4,13.065,11.754,18.873-4.23,3.2-8.353-1.679-10.106-5.186-1.822-3.644-3.427-7.412-4.956-11.181a1.275,1.275,0,0,0-.212-.329Q367.261,203.526,368.878,202.277ZM363.915,206c1.99,4.962,3.874,10.9,7.308,15.024,2.4,2.873,7.822,5.062,11.236,2.456,3.676-2.811,2.612-8.93.181-12.045-3.191-4.086-7.966-7.313-12.083-10.447q1.268-1.008,2.531-2.022c4.52,3.383,9.688,6.8,13.345,11.144a12.5,12.5,0,0,1,3.165,8.943c-.193,3.121-1.729,7.48-4.62,9.1-5.889,3.278-13.264.566-16.716-4.757-3.047-4.7-4.944-10.341-6.977-15.534C362.162,207.246,363.045,206.624,363.915,206Zm-4.421,3.1c1.212,3.053,2.462,6.1,3.793,9.11-2.232-2.407-4.533-4.757-6.859-7.071C357.454,210.467,358.474,209.783,359.494,209.093Zm-9.527,6.038c2.78,2.811,5.528,5.677,8.1,8.693,1.543,1.81,3.172,3.85,3.316,6.337.142,2.45-.9,5.311-3.508,5.74-4.844.79-7.2-4.017-8.42-7.761-1.182-3.607-2.2-7.263-3.147-10.932Q348.148,216.191,349.967,215.131Zm-5.6,3.1c.783,3,1.623,5.988,2.55,8.955a25.189,25.189,0,0,0,2.779,6.766c2.046,3,6.7,5.422,10.329,3.7,3.688-1.748,4.1-7.55,2.694-10.777-1.089-2.482-3.085-4.527-4.869-6.511-1.954-2.17-3.968-4.285-6.014-6.368.92-.553,1.841-1.119,2.748-1.7,4.141,4.024,9.073,8.271,11.878,13.277a12.341,12.341,0,0,1,1.318,9.191c-.678,2.774-2.692,6.561-5.515,7.7-6.151,2.469-13.184-.976-15.926-6.66-2.4-4.957-3.545-10.727-4.832-16.094C342.467,219.229,343.425,218.738,344.37,218.234Zm-4.825,2.45c.615,2.662,1.2,5.547,1.965,8.376-1.592-2.363-3.234-4.695-4.9-7.014C337.592,221.6,338.574,221.15,339.545,220.684Zm-9.919,4.291c2.2,3.115,4.347,6.287,6.343,9.539,1.219,1.99,2.531,4.117,2.562,6.536.025,2.139-1.2,5.4-3.589,5.889-4.812.983-7.151-4.695-7.76-8.308-.684-4.048-1.088-8.153-1.437-12.238C327.045,225.939,328.345,225.466,329.626,224.975Zm-6.082,2.176a.828.828,0,0,0,.124-.043c.4,5.186.517,11.3,2.494,16.075,1.437,3.47,5.734,7.033,9.8,5.777,4.048-1.25,5.31-6.971,4.291-10.534-1.468-5.1-5.491-9.938-8.582-14.247q1.492-.606,2.966-1.25c3.308,4.527,7.064,9.228,9.278,14.371,2.45,5.7.436,14.732-6.318,16.579-6.449,1.76-12.953-2.711-14.819-8.812-1.641-5.36-1.778-11.4-2.176-17C321.585,227.773,322.567,227.475,323.544,227.151Zm-5.024,1.505c.3,3.819.646,7.637,1.137,11.436-.118-.3-.229-.6-.354-.908-1.281-3.258-2.643-6.479-4.048-9.688Q316.9,229.1,318.52,228.656ZM302.668,242.9c.224-3.769.6-7.525,1.063-11.274,1.381-.174,2.761-.38,4.142-.61,1.61,3.756,3.2,7.562,4.49,11.442,1.269,3.806,1.524,11.524-4.689,10.908C302.836,252.878,302.463,246.423,302.668,242.9Zm-4.321-10.708c1.075-.088,2.151-.187,3.22-.3-.378,3.134-.7,6.274-.926,9.427-.193,2.662-.485,5.479.354,8.066,1.027,3.19,4.677,6.983,8.42,6.324,4.23-.74,6.374-6.063,5.989-9.794-.529-5.168-3.277-10.491-5.385-15.279,1.05-.2,2.1-.417,3.14-.647,2.369,5.273,5.317,10.938,6.238,16.66,1,6.212-3.825,14.9-10.983,14.271-6.685-.584-11.169-6.187-11.5-12.6C296.643,243,297.612,237.468,298.347,232.189Zm-2.146.149c-.255,1.959-.5,3.924-.722,5.889a16.745,16.745,0,0,0-5.758-5.709C291.885,232.524,294.049,232.462,296.2,232.338Zm-1.549,11.193c.026,6.256-5.615,11.467-11.641,11.76-5.833.273-12.071-1.549-17.741-2.762h-.026c-.049-1.007-.1-2.008-.168-3.015,5.231,1.075,11.356,2.761,16.623,1.971,3.551-.535,8-3.837,7.792-7.9-.212-3.961-4.987-6.735-8.495-6.884-2.724-.118-5.429.808-8,1.567-2.866.846-5.7,1.772-8.525,2.755-.087-1.008-.181-2.009-.281-3.016,5.547-2.04,11.623-4.813,17.562-5.267S294.628,237.194,294.652,243.531Zm-30.67-7.711c-.143-1.393-.3-2.78-.466-4.172,3.277.354,6.567.69,9.856.9C270.213,233.55,267.092,234.682,263.982,235.82Zm16.871-5.453c-5.677.864-11.909-.237-17.605-.877-.13-1-.267-2-.4-3,3.035.268,6.07.473,9.117.6a23.641,23.641,0,0,0,7.605-.435c3.383-1,7.163-4.745,6.567-8.613-.678-4.359-6.387-6.374-10.124-5.833-4.919.709-10.012,3.451-14.564,5.647-.18-.989-.373-1.984-.572-2.973,5.105-2.518,10.566-5.653,16.149-6.76,6.088-1.2,13.731,3.079,14.41,9.726C292.053,223.955,286.456,229.515,280.853,230.367Zm-18.32-6.033c-.218-1.436-.454-2.873-.7-4.3,3.575-1.673,7.194-3.314,10.9-4.682,2.2-.815,4.539-1.549,6.884-.859,2.214.647,4.664,2.612,4.2,5.156-.877,4.85-6.324,5.478-10.273,5.366C269.871,224.919,266.2,224.664,262.533,224.334Zm4.788-20.714a24.435,24.435,0,0,0,7.519-1.237c3.264-1.319,6.666-5.4,5.709-9.2-1.039-4.135-6.673-5.684-10.279-4.906-5.026,1.082-9.975,4.608-14.378,7.363-.311-.952-.622-1.9-.952-2.842,4.894-3.128,10.224-7.083,15.821-8.682a11.648,11.648,0,0,1,9.259,1.132c2.363,1.393,5.293,4.073,5.752,6.934.952,5.97-3.2,12.014-8.831,13.656-5.534,1.611-12.088,1.132-17.828,1.119-.236-.976-.479-1.952-.74-2.929C261.357,203.956,264.343,203.832,267.321,203.62Zm-9.526-1.71c-.131-.454-.243-.908-.373-1.356-.274-.945-.567-1.884-.858-2.817,3.164-1.921,6.368-3.787,9.644-5.5,2.071-1.082,4.291-2.214,6.7-2.077,2.12.118,5.317,1.635,5.559,4.048.535,5.243-5.7,6.834-9.558,7.17C265.214,201.692,261.5,201.835,257.8,201.91Zm-3.607-11.162q-.467-1.26-.952-2.519c2.3-.448,4.783-.852,7.276-1.368Q257.323,188.765,254.188,190.748Zm19.427-9.278a.136.136,0,0,0,.031-.025,1.142,1.142,0,0,0,.143.018C273.733,181.463,273.677,181.47,273.615,181.47Zm14.508,11.759a1.208,1.208,0,0,0,.161.019c24.072.4,47.069-6.032,68.38-16.884a11.828,11.828,0,0,0-.833,4.633c-21.9,14.066-46.185,23.4-72.385,23.5A15.739,15.739,0,0,0,288.123,193.229ZM268.64,208.918c-2.755,1.219-5.485,2.5-8.2,3.819-.26-1.225-.534-2.444-.814-3.657C262.627,209.068,265.637,209.043,268.64,208.918Zm23.606,4.335a15.93,15.93,0,0,0-8.047-6.635c25.969-.255,50.172-9.44,71.968-23.3a10.782,10.782,0,0,0,2.251,4.229C339.315,202.644,317.53,213.8,292.246,213.253Zm83.2-53.3a17.545,17.545,0,0,0,10.448.286,20.335,20.335,0,0,0,2.928-1.088q-3.189,3.321-6.417,6.6a276.356,276.356,0,0,1-22.325,20.466c-4.533-5.174-1.125-10.92,2.948-15.23,1.81-1.921,3.712-3.762,5.677-5.516.653-.553,1.3-1.119,1.941-1.685q2.266-1.912,4.632-3.681A1.261,1.261,0,0,0,375.444,159.953Zm-33.773,5.031c.858-3.427,3.719-5.479,6.723-6.952a67.066,67.066,0,0,1,8.687-3.464c3.109-.622,6.169-1.431,9.042-2.226a16.665,16.665,0,0,0,2.251,3.071,17.01,17.01,0,0,0,4.5,3.427q-1.652,1.567-3.357,3.066c-1.232,1.007-2.451,2.039-3.632,3.109-1.051.871-2.115,1.735-3.191,2.581-4.421,3.47-10.478,8.7-16.429,6.349A7.435,7.435,0,0,1,341.671,164.984Zm.684,9.048a10.113,10.113,0,0,0,9.981,2.1c-20.067,9.695-41.564,15.354-64.052,14.981a1.039,1.039,0,0,0-.46.087c-.013-.044-.018-.087-.031-.131-1.467-5.46-8.184-9.589-13.618-9.608a226.486,226.486,0,0,0,66.5-9.433A9.022,9.022,0,0,0,342.355,174.032Zm-63.741-4.695a318.435,318.435,0,0,0,61.31-5.64,10.036,10.036,0,0,0-.162,6.374,224.508,224.508,0,0,1-64.182,9.259A15.8,15.8,0,0,0,278.614,169.337Zm-19.6-6.4c5.142-2.954,12.8-2.264,16.336,3.047,1.878,2.817,1.013,7.531-.392,10.367A12.226,12.226,0,0,1,268.746,182c-5.044,2.251-10.9,3.128-16.324,4.217-.361-.89-.74-1.773-1.126-2.65,2.78-.615,5.554-1.274,8.308-2.008,2.538-.678,5.274-1.294,7.506-2.755,2.861-1.872,5.547-6.517,3.769-9.968-1.885-3.651-7.543-3.862-10.765-2.457-4.6,2-8.7,6.163-12.443,9.589-.442-.858-.9-1.716-1.362-2.562a.33.33,0,0,1,.062-.043C250.308,169.76,254.368,165.606,259.014,162.938Zm-8.588,18.65c-.56-1.225-1.145-2.444-1.741-3.651,2.723-2.425,5.5-4.807,8.375-7.052,2.9-2.276,9.764-5.808,11.841-.609,1.941,4.863-4.3,7.668-7.854,8.681C257.533,179.952,253.989,180.8,250.426,181.588Zm-1.182-13.849c-1.374,1.281-2.705,2.568-4,3.762-.51-.883-1.025-1.76-1.555-2.63A31.426,31.426,0,0,0,249.244,167.739Zm-28.183-1.057a86.3,86.3,0,0,1,15.422,22.368c9.285,19.415,11.8,40.856,12.4,62.354a28.555,28.555,0,0,0-6.443-1.325c-1.692-26.727-7.5-53.815-25.621-74.436A59.344,59.344,0,0,0,221.061,166.682Zm7.11,98.84a20.7,20.7,0,0,0-5.331,20.868c-2.17-.019-4.347-.05-6.518-.1a26.62,26.62,0,0,1-1.535-7.506,26.952,26.952,0,0,1,.951-8.245,26.383,26.383,0,0,1,17.45-17.45,26.951,26.951,0,0,1,8.246-.951,26.636,26.636,0,0,1,7.506,1.536c.049,2.17.081,4.347.1,6.517A20.7,20.7,0,0,0,228.171,265.522Zm20.881-3.161c.037,8.057-.075,16.071-.094,23.948-7.877.019-15.891.131-23.948.093a1.188,1.188,0,0,0-.05-.348A18.968,18.968,0,0,1,248.7,262.311,1.181,1.181,0,0,0,249.052,262.361Zm-33.388-84.8c17.418,20.1,22.99,46.5,24.638,72.428a28.515,28.515,0,0,0-6.449.74c-2.207-23.643-8.295-47.125-23.83-65.637A57.647,57.647,0,0,0,215.664,177.558Zm-10.846,12.7c1.313-1.138,2.556-2.344,3.75-3.588,15.23,18.19,21.1,41.447,23.208,64.655a28.461,28.461,0,0,0-6.393,3.116c-2.543-22.319-8.911-44.246-23.668-61.639C202.754,191.991,203.786,191.152,204.818,190.256Zm-41.173,34.688a70.565,70.565,0,0,0,4.49-19.458A70.592,70.592,0,0,0,187.593,201a55.254,55.254,0,0,0,12.425-6.909c14.793,17.331,21.006,39.457,23.388,61.757a28.272,28.272,0,0,0-4.913,4.913c-22.3-2.382-44.426-8.594-61.757-23.388A55.253,55.253,0,0,0,163.645,224.944ZM152.9,242.169c.9-1.032,1.736-2.064,2.544-3.1,17.393,14.757,39.321,21.125,61.639,23.668a28.481,28.481,0,0,0-3.116,6.393c-23.207-2.108-46.465-7.978-64.655-23.208C150.56,244.725,151.768,243.481,152.9,242.169Zm-5.168,5.2C166.25,262.908,189.732,269,213.375,271.2a28.515,28.515,0,0,0-.74,6.449c-25.925-1.648-52.324-7.22-72.428-24.638A57.478,57.478,0,0,0,147.737,247.374Zm-9.445,6.8c20.62,18.121,47.709,23.93,74.436,25.621a28.536,28.536,0,0,0,1.325,6.442c-21.5-.6-42.94-3.115-62.354-12.4a86.273,86.273,0,0,1-22.368-15.422A59.149,59.149,0,0,0,138.292,254.171Zm-27.313,8.047a61.262,61.262,0,0,0,16.088-3.01c24.88,24.315,60.345,28.656,93.609,29.2,9.782.168,19.563.037,29.351.031a1.079,1.079,0,0,0,1.064-1.063c.007-9.788.137-19.57-.031-29.352-.547-33.263-4.888-68.728-29.2-93.609a61.3,61.3,0,0,0,3.01-16.087,111.99,111.99,0,0,1,20.858,28.276c19.713,38.026,18.077,82.85,18.04,124.509-41.659.037-86.483,1.672-124.509-18.041A112.009,112.009,0,0,1,110.979,262.218Zm94.567,77.8c3.526-.205,9.98.168,10.466,5.006.615,6.213-7.1,5.958-10.908,4.689-3.88-1.293-7.686-2.879-11.442-4.49q.347-2.07.61-4.141C198.022,340.622,201.777,340.243,205.546,340.019Zm-23.251-18.842c-2.544.46-4.509-1.99-5.155-4.2-.691-2.344.043-4.689.857-6.884,1.368-3.706,3.01-7.325,4.683-10.9,1.43.242,2.867.479,4.3.7.33,3.663.585,7.338.678,11.02C187.773,314.852,187.145,320.3,182.295,321.177ZM175.386,297.8c-1.319,2.711-2.6,5.441-3.819,8.2.124-3,.15-6.014.162-9.011Q173.547,297.4,175.386,297.8Zm-38.705,81.911a9.074,9.074,0,0,0-2-1.685,226.488,226.488,0,0,0,9.433-66.5c.019,5.436,4.148,12.152,9.608,13.619.044.013.087.019.131.031a1.054,1.054,0,0,0-.087.461c.373,22.486-5.286,43.984-14.981,64.051A10.113,10.113,0,0,0,136.681,379.706ZM144.094,311a.109.109,0,0,0,.024-.031c0,.062-.006.118-.006.174A1.161,1.161,0,0,0,144.094,311Zm11.8,14.639a1.185,1.185,0,0,0-.019-.162,15.738,15.738,0,0,0,11.269-4.677c-.1,26.2-9.435,50.489-23.5,72.385a11.868,11.868,0,0,0-4.633.833C149.864,372.7,156.3,349.708,155.9,325.636Zm-1.07-2.513c-2.86-.46-5.541-3.389-6.933-5.752a11.636,11.636,0,0,1-1.132-9.259c1.6-5.6,5.553-10.927,8.68-15.821.94.33,1.891.641,2.842.952-2.755,4.4-6.28,9.353-7.362,14.377-.777,3.607.77,9.241,4.906,10.28,3.8.957,7.885-2.444,9.2-5.709a24.436,24.436,0,0,0,1.239-7.518c.21-2.979.335-5.964.4-8.949.975.261,1.952.5,2.929.74.012,5.74.491,12.294-1.12,17.829C166.841,319.921,160.8,324.075,154.827,323.123Zm-5.317-25.26c.516-2.493.921-4.981,1.368-7.276q1.26.486,2.519.952Q151.419,294.672,149.51,297.863Zm10.877-3.949c.932.293,1.871.585,2.816.859.448.13.9.242,1.356.373-.075,3.706-.217,7.419-.535,11.112-.335,3.862-1.927,10.093-7.17,9.558-2.413-.242-3.93-3.439-4.048-5.559-.137-2.407.995-4.627,2.077-6.7C156.6,300.282,158.465,297.08,160.387,293.914Zm-16.151-6.137c-.783,3.563-1.634,7.108-2.63,10.621-1.013,3.557-3.818,9.794-8.681,7.854-5.2-2.077-1.666-8.936.609-11.84,2.245-2.879,4.627-5.653,7.052-8.377C141.793,286.632,143.012,287.217,144.236,287.777ZM134.15,282.6c-1.194,1.293-2.481,2.624-3.762,4a31.434,31.434,0,0,0,1.132-5.553Q132.827,281.834,134.15,282.6Zm-5.516,30.1c-5.311-3.538-6-11.194-3.047-16.336,2.668-4.646,6.822-8.707,10.429-12.643a.3.3,0,0,1,.044-.062c.845.466,1.7.92,2.561,1.362-3.427,3.743-7.587,7.848-9.589,12.443-1.4,3.221-1.194,8.88,2.456,10.765,3.452,1.778,8.1-.908,9.969-3.769,1.461-2.232,2.077-4.968,2.755-7.506.733-2.755,1.392-5.528,2.009-8.308.877.386,1.759.765,2.648,1.126-1.088,5.422-1.965,11.28-4.216,16.324A12.218,12.218,0,0,1,139,312.309C136.165,313.715,131.451,314.579,128.634,312.7Zm3.352,3.265a15.808,15.808,0,0,0,9.993-3.035,224.543,224.543,0,0,1-9.259,64.182,10.043,10.043,0,0,0-6.374.162A318.43,318.43,0,0,0,131.986,315.966Zm-13.923,89.759a16.665,16.665,0,0,0-3.073-2.251c.8-2.873,1.605-5.933,2.227-9.042a66.726,66.726,0,0,1,3.464-8.687c1.473-3,3.525-5.864,6.952-6.723a7.434,7.434,0,0,1,8.961,4.6c2.35,5.951-2.879,12.008-6.349,16.429-.846,1.076-1.711,2.14-2.581,3.191-1.069,1.181-2.1,2.4-3.109,3.631q-1.5,1.707-3.066,3.358A17.027,17.027,0,0,0,118.063,405.725ZM128.4,419.754q-3.273,3.237-6.6,6.418a20.469,20.469,0,0,0,1.088-2.929A17.55,17.55,0,0,0,122.6,412.8a1.4,1.4,0,0,0,.156-.168q1.773-2.37,3.682-4.633c.565-.641,1.13-1.287,1.684-1.94,1.754-1.965,3.6-3.868,5.516-5.678,4.309-4.073,10.055-7.481,15.229-2.948A276.157,276.157,0,0,1,128.4,419.754Zm21.79-23.985a10.785,10.785,0,0,0-4.228-2.251c13.86-21.8,23.046-46,23.3-71.968A15.924,15.924,0,0,0,175.9,329.6C176.449,354.882,165.293,376.666,150.194,395.769ZM193.016,318.2c-.853,5.6-6.413,11.2-12.519,10.578-6.647-.678-10.926-8.32-9.725-14.408,1.106-5.585,4.241-11.045,6.759-16.15.989.2,1.984.392,2.973.572-2.195,4.552-4.938,9.645-5.647,14.564-.541,3.737,1.474,9.446,5.833,10.124,3.869.6,7.612-3.184,8.613-6.567a23.64,23.64,0,0,0,.435-7.6c-.124-3.047-.33-6.082-.6-9.117,1,.137,2,.274,3,.4C192.779,306.3,193.88,312.527,193.016,318.2Zm.26,29.166c4.789,2.108,10.112,4.856,15.28,5.385,3.731.385,9.054-1.76,9.794-5.989.659-3.743-3.134-7.394-6.325-8.42-2.586-.839-5.4-.547-8.065-.354-3.152.23-6.293.547-9.427.926.117-1.069.217-2.145.3-3.221,5.279-.734,10.813-1.7,16.118-1.43,6.418.33,12.021,4.813,12.605,11.5.629,7.158-8.059,11.983-14.272,10.982-5.721-.92-11.386-3.868-16.659-6.237C192.86,349.465,193.077,348.421,193.276,347.37Zm-1.131,5.236c3.208,1.4,6.43,2.767,9.688,4.048.305.124.6.236.908.354-3.8-.491-7.618-.839-11.435-1.138Q191.751,354.247,192.145,352.606Zm-3.1,10.49c4.085.349,8.189.753,12.238,1.437,3.613.609,9.29,2.948,8.308,7.761-.485,2.388-3.75,3.613-5.889,3.588-2.419-.031-4.546-1.343-6.536-2.562-3.252-2-6.424-4.142-9.539-6.343C188.115,365.7,188.588,364.4,189.042,363.1Zm-2.214,5.927c4.31,3.091,9.148,7.114,14.246,8.582,3.564,1.019,9.285-.243,10.535-4.291,1.256-4.067-2.307-8.364-5.777-9.8-4.776-1.977-10.889-2.089-16.075-2.493a1.242,1.242,0,0,0,.044-.125c.323-.976.621-1.959.914-2.941,5.6.4,11.64.535,17,2.176,6.1,1.866,10.572,8.37,8.812,14.819-1.847,6.754-10.882,8.768-16.579,6.318-5.142-2.214-9.844-5.97-14.371-9.278Q186.222,370.516,186.828,369.023ZM184.7,373.96c2.32,1.667,4.652,3.309,7.014,4.9-2.829-.765-5.715-1.35-8.376-1.965C183.8,375.926,184.253,374.943,184.7,373.96Zm-4.839,9.7c3.669.946,7.327,1.966,10.933,3.147,3.744,1.225,8.551,3.576,7.761,8.42-.429,2.612-3.289,3.65-5.74,3.507-2.488-.143-4.527-1.772-6.336-3.314-3.017-2.575-5.883-5.323-8.695-8.1Q178.843,385.5,179.856,383.661Zm-3.208,5.529c2.083,2.046,4.2,4.061,6.368,6.013,1.984,1.785,4.03,3.781,6.51,4.869,3.228,1.412,9.031.995,10.778-2.692,1.722-3.632-.7-8.284-3.7-10.329a25.121,25.121,0,0,0-6.765-2.78c-2.967-.927-5.951-1.766-8.955-2.55.5-.945,1-1.9,1.48-2.86,5.366,1.287,11.137,2.437,16.094,4.832,5.684,2.742,9.129,9.775,6.66,15.925-1.139,2.824-4.926,4.838-7.7,5.516a12.332,12.332,0,0,1-9.191-1.318c-5.006-2.805-9.253-7.736-13.277-11.878C175.528,391.03,176.1,390.11,176.648,389.19Zm-2.867,4.589c2.314,2.326,4.664,4.627,7.071,6.859-3.01-1.331-6.057-2.581-9.111-3.793C172.432,395.825,173.116,394.8,173.781,393.779Zm-6.392,9.191a1.234,1.234,0,0,0,.329.212c3.768,1.529,7.537,3.134,11.181,4.956,3.507,1.753,8.389,5.877,5.187,10.105-5.809,7.649-15.9-7.879-18.874-11.753a1.127,1.127,0,0,0-.286-.261Q166.176,404.615,167.389,402.97Zm-3.756,4.938c3.134,4.117,6.361,8.892,10.447,12.082,3.115,2.432,9.235,3.495,12.045-.18,2.6-3.414.417-8.836-2.456-11.237-4.123-3.432-10.062-5.317-15.024-7.307.627-.87,1.25-1.753,1.859-2.63,5.192,2.033,10.839,3.93,15.534,6.977,5.323,3.452,8.034,10.827,4.757,16.716-1.616,2.891-5.976,4.427-9.1,4.62a12.5,12.5,0,0,1-8.942-3.165c-4.341-3.657-7.761-8.824-11.144-13.345Q162.628,409.179,163.633,407.908Zm-3.4,4.21q3.257,4.318,6.68,8.507c-3.135-1.785-6.325-3.47-9.527-5.112Q158.82,413.826,160.23,412.118Zm-7.86,9.1a1.078,1.078,0,0,0,.162.105c3.446,1.8,6.853,3.676,10.174,5.7,3.37,2.052,8.494,6.417,5.167,10.814-1.623,2.145-5.154,1.878-7.318.653a13.7,13.7,0,0,1-4.012-4.08c-2.375-3.246-4.576-6.635-6.716-10.043a1.013,1.013,0,0,0-.149-.2C150.58,423.187,151.481,422.2,152.37,421.216Zm-4.179,4.545c2.787,4.5,5.647,9.994,9.707,13.433,2.855,2.419,8.558,3.675,11.505.547,2.818-2.985,1.381-8.47-1.038-11.119a24.881,24.881,0,0,0-5.945-4.26c-2.823-1.666-5.7-3.246-8.594-4.77.715-.8,1.43-1.61,2.133-2.419,4.956,2.507,10.335,4.938,14.7,8.383,5.044,3.98,7,11.61,3.116,17.2-1.809,2.6-6.082,3.65-9.048,3.638a12.406,12.406,0,0,1-8.762-3.763c-4.086-4.011-7.033-9.62-10-14.514C146.712,427.328,147.451,426.551,148.191,425.761Zm-3.75,3.949c1.767,2.966,3.577,6.281,5.678,9.31-3.065-2.059-6.4-3.825-9.365-5.541Q142.611,431.6,144.441,429.71Zm-9.072,9.135a1.17,1.17,0,0,0,.192.143c3.315,2.022,6.611,4.1,9.783,6.343a14.52,14.52,0,0,1,4.483,4.192c1.263,2.158,1.592,5.659-.547,7.332-7.313,5.721-14.291-10.634-16.7-15.106a.793.793,0,0,0-.075-.1C133.46,440.717,134.417,439.778,135.369,438.845Zm-4.453,4.328c2.488,4.658,4.987,10.348,8.831,14.011,2.693,2.568,8.345,4.173,11.448,1.194,2.966-2.854,1.86-8.37-.417-11.169-3.425-4.228-9.24-7.114-13.861-9.893.766-.759,1.53-1.512,2.289-2.276,4.857,2.873,10.254,5.7,14.384,9.551a12.541,12.541,0,0,1,4.191,8.507c.161,3.066-.821,7.662-3.5,9.6-5.223,3.762-12.716,2.294-16.777-2.314-3.75-4.247-6.312-9.912-8.93-14.949C129.355,444.678,130.139,443.926,130.916,443.173Zm-3.948,3.794c1.554,3.041,3.128,6.418,5.006,9.527-3.023-2.04-6.319-3.787-9.26-5.491Q124.841,448.987,126.968,446.967Zm-9.838,9.29a1.215,1.215,0,0,0,.18.137c3.321,2.015,6.61,4.1,9.782,6.343a14.509,14.509,0,0,1,4.483,4.192c1.263,2.158,1.6,5.658-.541,7.331-7.312,5.721-14.3-10.633-16.709-15.111a.9.9,0,0,0-.1-.149Zm2.12,21.529c-3.774-4.284-6.349-9.993-8.979-15.061.783-.74,1.567-1.486,2.356-2.226,2.5,4.676,5.007,10.4,8.868,14.091,2.7,2.568,8.352,4.173,11.448,1.194,2.967-2.854,1.86-8.37-.416-11.175-3.414-4.2-9.191-7.083-13.8-9.856q1.185-1.11,2.37-2.227c4.819,2.842,10.154,5.647,14.24,9.471a12.51,12.51,0,0,1,4.191,8.5c.168,3.066-.821,7.668-3.5,9.6C130.8,483.862,123.317,482.394,119.25,477.786Z" fill="#4c081b"/>
    <path id="Path_866" data-name="Path 866" d="M126.352,257.194a54.652,54.652,0,0,0,15.565-7.917,64.81,64.81,0,0,0,12.1-11.778c7.548-9.552,11.018-20.969,12.089-32.983a1.215,1.215,0,0,1,1.063-1.064c12.014-1.069,23.432-4.539,32.983-12.089a64.744,64.744,0,0,0,11.778-12.1,54.639,54.639,0,0,0,7.917-15.565,55.865,55.865,0,0,0,3.015-18.326c0-.126-.006-.251-.006-.377h-9.233c0,.126,0,.251,0,.377A44.405,44.405,0,0,1,211.342,160a48.077,48.077,0,0,1-7.6,14.725,59.028,59.028,0,0,1-12.685,11.884c-5.006,3.539-11.666,5.684-17.655,6.722a43.759,43.759,0,0,1-9.589.946,62.339,62.339,0,0,1-7.908-1.017,62.121,62.121,0,0,1,1.018,7.907,43.7,43.7,0,0,1-.945,9.589c-1.039,5.989-3.185,12.649-6.723,17.655a59.03,59.03,0,0,1-11.884,12.685,48.121,48.121,0,0,1-14.725,7.6,44.407,44.407,0,0,1-14.621,2.281c-.976.009-1.954-.021-2.929-.073v9.23c.975.048,1.953.08,2.929.078A55.858,55.858,0,0,0,126.352,257.194Z" fill="#fcf3e1"/>
    <path id="Path_867" data-name="Path 867" d="M122.646,248.693a48.121,48.121,0,0,0,14.725-7.6,59.03,59.03,0,0,0,11.884-12.685c3.538-5.006,5.684-11.666,6.723-17.655a43.7,43.7,0,0,0,.945-9.589,62.121,62.121,0,0,0-1.018-7.907,62.339,62.339,0,0,0,7.908,1.017,43.759,43.759,0,0,0,9.589-.946c5.989-1.038,12.649-3.183,17.655-6.722a59.028,59.028,0,0,0,12.685-11.884,48.077,48.077,0,0,0,7.6-14.725,44.405,44.405,0,0,0,2.281-14.62c0-.126,0-.251,0-.377H211.5c0,.126.012.251.013.377a49.64,49.64,0,0,1-3.471,17.48,48,48,0,0,1-11.286,16.759,17.685,17.685,0,0,0,1.274-7.1,14.17,14.17,0,0,0-2.842-8.178,24.609,24.609,0,0,0-7.692-6.019c-.615-.349-1.231-.685-1.846-1.02.945.224,1.89.448,2.835.659,3.339.734,6.859,1.269,10.223.379,5.3-1.4,10.927-7.17,10.927-12.959,0-.126-.018-.251-.023-.377h-2.282c0,.126.024.249.023.377.049,6.554-7.015,11.436-12.973,11.293-5.715-.143-11.672-2.22-17.182-3.812a22.48,22.48,0,0,0,.87-3.178c2.9.8,5.822,1.536,8.756,2.189,2.445.541,5.007,1.2,7.525.883,3.433-.423,7.742-3.507,7.742-7.375,0-.128-.017-.251-.025-.377H199.75c.008.127.031.243.031.377,0,5.6-7.207,5.522-10.876,4.763-3.532-.727-7.04-1.623-10.522-2.587a19.266,19.266,0,0,0,.105-2.176c0-.126-.006-.251-.008-.377h-2.134c0,.126.009.251.009.377A21.936,21.936,0,0,1,170,160.519c-4,4-9.029,5.777-14.539,6.3a19.547,19.547,0,0,0-2.73-5.447c9.048.392,17.413-6.293,17.413-15.994,0-.129-.018-.25-.021-.377h-2.135c0,.127.023.248.023.377,0,9.041-8.477,15.2-17.015,13.693a1.386,1.386,0,0,0-.218-.019,20.724,20.724,0,0,0-20.346-5.864,20.452,20.452,0,0,0-4.82,2.015,22.148,22.148,0,0,0,2.612-8.519c7.182,0,14.378.012,21.566-.05a41.685,41.685,0,0,0,1.989,4.042c.847,1.828,1.761,3.632,2.681,5.429.622,1.225,2.463.143,1.841-1.076-.809-1.58-1.617-3.165-2.376-4.776-.286-.609-.715-1.356-1.1-2.12,2.133,1.38,4.3,2.692,6.53,3.924,1.206.665,2.283-1.176,1.076-1.841q-3.106-1.727-6.076-3.638c2.257-.037,4.509-.075,6.76-.131a1.025,1.025,0,0,0,1.031-1.069,1.174,1.174,0,0,0-.063-.377H126.09c.005.126.022.251.025.377a19.9,19.9,0,0,1-5.223,12.866,19.9,19.9,0,0,1-12.867,5.223,18.67,18.67,0,0,1-2.929-.307v2.2c.539.092,1.08.17,1.624.22,0,7.182-.013,14.377.05,21.566a12.367,12.367,0,0,0-1.674.749v2.378c.059-.031.115-.062.175-.092-.06.092-.116.187-.175.28v4.037q.846-1.407,1.729-2.788c.038,2.258.075,4.509.131,6.76a1.071,1.071,0,0,0,2.14,0c.055-2.251.093-4.5.13-6.76q1.913,2.976,3.637,6.076c.666,1.206,2.507.131,1.841-1.076-1.231-2.232-2.543-4.4-3.924-6.529.765.385,1.512.814,2.121,1.1,1.611.759,3.2,1.567,4.776,2.376,1.219.622,2.3-1.219,1.076-1.841-1.8-.92-3.6-1.834-5.429-2.68a41.563,41.563,0,0,0-4.042-1.99c.062-7.189.05-14.384.05-21.566a22.158,22.158,0,0,0,8.52-2.612,20.422,20.422,0,0,0-2.016,4.819A20.728,20.728,0,0,0,121.7,188.13a1.385,1.385,0,0,0,.019.217c1.511,8.538-4.652,17.014-13.694,17.014a13.784,13.784,0,0,1-2.929-.324v2.172a16.072,16.072,0,0,0,2.929.285c9.7,0,16.387-8.364,15.995-17.412a19.539,19.539,0,0,0,5.448,2.73c-.523,5.51-2.3,10.541-6.3,14.539a21.939,21.939,0,0,1-15.143,6.356,20.008,20.008,0,0,1-2.929-.224v5.045q.368-1.4.754-2.794a22.387,22.387,0,0,0,4.352,0c.964,3.483,1.859,6.99,2.587,10.522.759,3.669.84,10.876-4.764,10.876a4.513,4.513,0,0,1-2.929-.96v2.414a5.727,5.727,0,0,0,2.929.853c3.869,0,6.953-4.309,7.376-7.742.317-2.518-.342-5.08-.883-7.524-.653-2.935-1.393-5.852-2.189-8.756a22.8,22.8,0,0,0,3.178-.871c1.592,5.51,3.669,11.467,3.811,17.182.144,5.958-4.738,13.022-11.293,12.972a9.037,9.037,0,0,1-2.929-.483v2.3a9.973,9.973,0,0,0,2.929.47c5.79,0,11.561-5.622,12.96-10.927.89-3.364.355-6.884-.38-10.223-.21-.945-.434-1.89-.659-2.836.336.616.672,1.232,1.021,1.847a24.624,24.624,0,0,0,6.019,7.693,14.186,14.186,0,0,0,8.178,2.842,17.706,17.706,0,0,0,7.1-1.275,48.02,48.02,0,0,1-16.76,11.287,49.662,49.662,0,0,1-17.481,3.47c-.977-.009-1.954-.062-2.929-.134V250.9c.975.052,1.953.082,2.929.073A44.407,44.407,0,0,0,122.646,248.693Zm49.189-87.03a24.094,24.094,0,0,0,1.8-2.145c5.279,2.562,19.576,8.563,14.389,15.7-3.382,4.651-9.135-.4-11.368-3.47-2.107-2.9-4.079-5.914-5.988-8.949C171.064,162.434,171.455,162.061,171.835,161.663Zm-2.817,2.494q2.229,3.536,4.608,6.977c1.492,2.139,2.991,4.484,5.118,6.063,2.816,2.09,8.134,2.792,10.808-.074,2.829-3.029,1.424-8.47-1.082-11.119-3.483-3.675-9.048-5.995-13.625-8.258a23.992,23.992,0,0,0,1.554-2.9c5.031,2.475,10.628,4.906,14.894,8.513,4.7,3.974,6.3,11.417,2.661,16.728-1.878,2.742-6.448,3.787-9.52,3.706a12.436,12.436,0,0,1-8.588-4.017c-3.843-3.955-6.729-9.135-9.62-13.849A22.5,22.5,0,0,0,169.018,164.157ZM156.009,168.9a29.351,29.351,0,0,0,8.276-2.059c3.52,5.759,7.19,13.053,12.9,16.834a15.784,15.784,0,0,0,11.71,1.859c-.822.467-1.655.915-2.506,1.306a55.515,55.515,0,0,1-15.093,4.677,46.675,46.675,0,0,1-16.3-.6,1.1,1.1,0,0,0-.348-.044A1.134,1.134,0,0,0,153.522,192a1.046,1.046,0,0,0,.043.348,46.651,46.651,0,0,1,.6,16.3,55.5,55.5,0,0,1-4.677,15.092c-.391.852-.839,1.686-1.306,2.506a15.783,15.783,0,0,0-1.859-11.709c-3.781-5.709-11.075-9.378-16.834-12.9a29.332,29.332,0,0,0,2.059-8.277,19.245,19.245,0,0,0,6.274.3,22.083,22.083,0,0,0,12.357-5.752,1.977,1.977,0,0,0,.373-.373,22.073,22.073,0,0,0,5.752-12.357A19.328,19.328,0,0,0,156.009,168.9ZM122.69,186.227a18.517,18.517,0,1,1,26.186-26.187c7.406,7.407,6.747,18.693,0,26.187C141.382,192.974,130.1,193.633,122.69,186.227Zm1.623,22.959c.4-.38.77-.771,1.131-1.163,3.034,1.909,6.051,3.88,8.949,5.988,3.072,2.233,8.121,7.985,3.469,11.368-7.133,5.186-13.134-9.11-15.695-14.39A24.241,24.241,0,0,0,124.313,209.186Zm1.7,19.458c-3.607-4.266-6.038-9.863-8.514-14.894a24.068,24.068,0,0,0,2.9-1.554c2.263,4.577,4.583,10.142,8.257,13.625,2.65,2.506,8.091,3.911,11.12,1.082,2.867-2.674,2.163-7.991.075-10.808-1.58-2.127-3.925-3.626-6.064-5.118q-3.432-2.388-6.977-4.608a22.265,22.265,0,0,0,1.772-2.792c4.714,2.891,9.894,5.777,13.849,9.62a12.434,12.434,0,0,1,4.017,8.588c.081,3.072-.964,7.642-3.706,9.52C137.428,234.943,129.983,233.345,126.01,228.644Z" fill="#4c081b"/>
    <path id="Path_868" data-name="Path 868" d="M404.112,146.129c-23.848,25.173-48.648,53.723-82.638,64.916a87.179,87.179,0,0,1-28.252,4.353,9.075,9.075,0,0,1,.317,1.2c.983,4.944-2.463,10.964-6.585,13.756C332.673,231.56,369.325,202,399.84,171.215c8.395-8.47,16.523-17.182,24.72-25.838L424.2,145h-19.86a1.059,1.059,0,0,1-.231,1.129Z" fill="#ffad0e"/>
    <path id="Path_869" data-name="Path 869" d="M133.864,437.191C164.652,406.676,194.209,370.024,193,324.3c-2.792,4.123-8.812,7.568-13.756,6.585a9.076,9.076,0,0,1-1.2-.317,87.2,87.2,0,0,1-4.353,28.251c-11.193,33.991-39.743,58.791-64.916,82.639a1.086,1.086,0,0,1-1.5,0q-1.084-1.027-2.177-2.058v19.736q1.464,1.385,2.929,2.769C116.682,453.714,125.395,445.586,133.864,437.191Z" fill="#ffad0e"/>
    <path id="Path_870" data-name="Path 870" d="M198.705,158.336c-3.364.89-6.884.355-10.223-.379-.945-.211-1.89-.435-2.835-.659.615.335,1.231.671,1.846,1.02a24.609,24.609,0,0,1,7.692,6.019,14.17,14.17,0,0,1,2.842,8.178,17.685,17.685,0,0,1-1.274,7.1,48,48,0,0,0,11.286-16.759,49.64,49.64,0,0,0,3.471-17.48c0-.126-.011-.251-.013-.377h-1.888c.005.126.023.251.023.377C209.632,151.166,204.01,156.937,198.705,158.336Z" fill="#ffad0e"/>
    <path id="Path_871" data-name="Path 871" d="M125.506,245.391a48.02,48.02,0,0,0,16.76-11.287,17.706,17.706,0,0,1-7.1,1.275,14.186,14.186,0,0,1-8.178-2.842,24.624,24.624,0,0,1-6.019-7.693c-.349-.615-.685-1.231-1.021-1.847.225.946.449,1.891.659,2.836.735,3.339,1.27,6.859.38,10.223-1.4,5.3-7.17,10.927-12.96,10.927a9.973,9.973,0,0,1-2.929-.47v2.214c.975.072,1.952.125,2.929.134A49.662,49.662,0,0,0,125.506,245.391Z" fill="#ffad0e"/>
    <path id="Path_872" data-name="Path 872" d="M108.029,328.676h0Z" fill="#fcf3e1"/>
    <path id="Path_873" data-name="Path 873" d="M118.186,381.329a33.338,33.338,0,0,1,.125,4.416,22.11,22.11,0,0,1,2.787-4.77,11.324,11.324,0,0,1,2.884-2.568,1.052,1.052,0,0,1,.019-.193,314.854,314.854,0,0,0,5.852-62.609,8.9,8.9,0,0,1-1.9-.74c-5.484-2.91-7.469-11.094-5.59-16.6a23.74,23.74,0,0,1-14.341,5,20.847,20.847,0,0,1-2.929-.209v4.17a9.761,9.761,0,0,1,2.426-.708,1.728,1.728,0,0,1,1.007,0c4,.621,7.288,3.55,7.028,7.922a7.683,7.683,0,0,1-7.532,7.151,7.269,7.269,0,0,1-2.929-.625v8.492a9.763,9.763,0,0,1,2.426-.709,1.705,1.705,0,0,1,1.007,0c3.762.585,6.894,3.212,7.036,7.16.01.263.008.532-.008.806a7.684,7.684,0,0,1-7.532,7.152,7.27,7.27,0,0,1-2.929-.626v8.448a9.76,9.76,0,0,1,2.426-.708,1.685,1.685,0,0,1,1.007,0c3.776.587,6.914,3.232,7.035,7.2.011.264.009.535-.007.811a7.683,7.683,0,0,1-7.532,7.152,7.253,7.253,0,0,1-2.929-.626v5.95a9.107,9.107,0,0,1,2.929-.48C113.722,370.994,117.664,376.056,118.186,381.329Z" fill="#fcf3e1"/>
    <path id="Path_874" data-name="Path 874" d="M291.325,145.38v0Z" fill="#fcf3e1"/>
    <path id="Path_875" data-name="Path 875" d="M260.916,159.717c5.5-1.878,13.687.106,16.6,5.59a8.956,8.956,0,0,1,.74,1.9,314.854,314.854,0,0,0,62.609-5.852,1.042,1.042,0,0,1,.193-.018,11.315,11.315,0,0,1,2.568-2.886,22.124,22.124,0,0,1,4.77-2.786,33.51,33.51,0,0,1-4.416-.124c-5.273-.522-10.335-4.465-10.335-10.161,0-.128.016-.251.021-.377h-4.885c.007.126.02.25.02.377a7.682,7.682,0,0,1-7.152,7.53,7.866,7.866,0,0,1-.811.008c-3.973-.12-6.617-3.26-7.2-7.035a.937.937,0,0,1-.076-.5.912.912,0,0,1,.037-.377h-7.1c.007.126.02.25.02.377a7.682,7.682,0,0,1-7.152,7.53,7.77,7.77,0,0,1-.806.008c-3.948-.141-6.575-3.274-7.16-7.035a1.764,1.764,0,0,1-.039-.88h-7.137c.005.126.018.25.018.377a7.682,7.682,0,0,1-7.151,7.53c-4.371.262-7.3-3.028-7.922-7.027a.908.908,0,0,1-.075-.5.894.894,0,0,1,.036-.377H265.9c0,.126.016.251.015.377A23.743,23.743,0,0,1,260.916,159.717Z" fill="#fcf3e1"/>
    <path id="Path_876" data-name="Path 876" d="M108.029,350.908h0Z" fill="#fcf3e1"/>
    <path id="Path_877" data-name="Path 877" d="M313.557,145.38v0Z" fill="#fcf3e1"/>
    <path id="Path_878" data-name="Path 878" d="M238.747,161.359q1.931,2.7,3.706,5.5c5.684-.467,10.87-2.233,14.975-6.337a21.941,21.941,0,0,0,6.355-15.142c0-.126-.008-.251-.01-.377h-7.361c0,.127.021.248.021.377C256.433,155.177,247.907,161.9,238.747,161.359Z" fill="#f8076e"/>
    <path id="Path_879" data-name="Path 879" d="M123.168,294.779c4.1-4.1,5.87-9.291,6.337-14.975q-2.8-1.771-5.5-3.706c.541,9.16-6.182,17.686-15.983,17.686a16.07,16.07,0,0,1-2.929-.286v7.412a19.871,19.871,0,0,0,2.929.224A21.943,21.943,0,0,0,123.168,294.779Z" fill="#f8076e"/>
    <path id="Path_880" data-name="Path 880" d="M152.731,161.371a19.547,19.547,0,0,1,2.73,5.447c5.51-.522,10.541-2.3,14.539-6.3a21.936,21.936,0,0,0,6.355-15.142c0-.126-.007-.251-.009-.377h-6.223c0,.127.021.248.021.377C170.144,155.078,161.779,161.763,152.731,161.371Z" fill="#05abaa"/>
    <path id="Path_881" data-name="Path 881" d="M123.168,207.351c4-4,5.777-9.029,6.3-14.539a19.539,19.539,0,0,1-5.448-2.73c.392,9.048-6.293,17.412-15.995,17.412a16.072,16.072,0,0,1-2.929-.285v6.274a20.008,20.008,0,0,0,2.929.224A21.939,21.939,0,0,0,123.168,207.351Z" fill="#05abaa"/>
    <path id="Path_882" data-name="Path 882" d="M224.953,145.377c0,.022,0,.044-.005.068a110.654,110.654,0,0,1,12.1,13.606.8.8,0,0,1,.243.019c8.544,1.511,17.014-4.652,17.014-13.693,0-.129-.019-.25-.023-.377H225.259c-.106.1-.205.208-.311.308C224.951,145.332,224.952,145.355,224.953,145.377Z" fill="#05abaa"/>
    <path id="Path_883" data-name="Path 883" d="M121.719,274.637a.8.8,0,0,1-.019-.243,110.654,110.654,0,0,1-13.606-12.1.549.549,0,0,1-.069,0,.56.56,0,0,1-.068,0c-.935.984-1.893,1.939-2.861,2.882v26.146a13.849,13.849,0,0,0,2.929.324C117.067,291.651,123.23,283.181,121.719,274.637Z" fill="#05abaa"/>
    <path id="Path_884" data-name="Path 884" d="M161.114,146.446c-2.251.056-4.5.094-6.76.131q2.976,1.913,6.076,3.638c1.207.665.13,2.506-1.076,1.841-2.233-1.232-4.4-2.544-6.53-3.924.386.764.815,1.511,1.1,2.12.759,1.611,1.567,3.2,2.376,4.776.622,1.219-1.219,2.3-1.841,1.076-.92-1.8-1.834-3.6-2.681-5.429a41.685,41.685,0,0,1-1.989-4.042c-7.188.062-14.384.05-21.566.05a22.148,22.148,0,0,1-2.612,8.519,20.452,20.452,0,0,1,4.82-2.015,20.724,20.724,0,0,1,20.346,5.864,1.386,1.386,0,0,1,.218.019c8.538,1.511,17.015-4.652,17.015-13.693,0-.129-.02-.25-.023-.377h-5.906a1.174,1.174,0,0,1,.063.377A1.025,1.025,0,0,1,161.114,146.446Z" fill="#fcf3e1"/>
    <path id="Path_885" data-name="Path 885" d="M105.1,190.268v.188c.059-.093.115-.188.175-.28C105.211,190.206,105.155,190.237,105.1,190.268Z" fill="#fcf3e1"/>
    <path id="Path_886" data-name="Path 886" d="M121.719,188.347a1.385,1.385,0,0,1-.019-.217,20.728,20.728,0,0,1-5.864-20.348,20.422,20.422,0,0,1,2.016-4.819,22.158,22.158,0,0,1-8.52,2.612c0,7.182.012,14.377-.05,21.566a41.563,41.563,0,0,1,4.042,1.99c1.828.846,3.631,1.76,5.429,2.68,1.225.622.143,2.463-1.076,1.841-1.579-.809-3.165-1.617-4.776-2.376-.609-.286-1.356-.715-2.121-1.1,1.381,2.133,2.693,4.3,3.924,6.529.666,1.207-1.175,2.282-1.841,1.076q-1.725-3.106-3.637-6.076c-.037,2.258-.075,4.509-.13,6.76a1.071,1.071,0,0,1-2.14,0c-.056-2.251-.093-4.5-.131-6.76q-.886,1.38-1.729,2.788v10.544a13.784,13.784,0,0,0,2.929.324C117.067,205.361,123.23,196.885,121.719,188.347Z" fill="#fcf3e1"/>
    <path id="Path_887" data-name="Path 887" d="M106.72,165.575c-.544-.05-1.085-.128-1.624-.22V187.89a12.367,12.367,0,0,1,1.674-.749C106.707,179.952,106.72,172.757,106.72,165.575Z" fill="#fcf3e1"/>
    <path id="Path_888" data-name="Path 888" d="M120.892,158.243a19.9,19.9,0,0,0,5.223-12.866c0-.126-.02-.251-.025-.377h-8.045c-.01.126-.023.251-.032.377a81.833,81.833,0,0,0,1.324,10,1.083,1.083,0,0,1-1.312,1.312,82.02,82.02,0,0,0-10-1.324c-.979.069-1.956.16-2.929.264v7.531a18.67,18.67,0,0,0,2.929.307A19.9,19.9,0,0,0,120.892,158.243Z" fill="#05abaa"/>
    <path id="Path_889" data-name="Path 889" d="M121.4,419.8c.7-7.45-5.249-16.393-13.371-16.393a11,11,0,0,0-2.929.4v5.858a9.76,9.76,0,0,1,2.426-.708.972.972,0,0,1,.5-.076h.016a.968.968,0,0,1,.5.076c3.769.586,6.9,3.222,7.035,7.183q.016.4-.007.809a7.683,7.683,0,0,1-7.532,7.152,7.253,7.253,0,0,1-2.929-.626v12.654c.975.841,1.961,1.654,2.929,2.441C114.008,433.715,120.637,427.932,121.4,419.8Z" fill="#f8076e"/>
    <path id="Path_890" data-name="Path 890" d="M382.446,158.747c8.135-.759,13.918-7.388,18.769-13.37l-.308-.377h-14.18c.006.126.019.25.019.377a7.682,7.682,0,0,1-7.151,7.53,7.852,7.852,0,0,1-.81.008c-3.961-.13-6.6-3.266-7.183-7.035a.971.971,0,0,1-.076-.5v-.017a1,1,0,0,1,.038-.368H366.08c0,.127-.025.249-.025.377C366.055,153.5,375,159.449,382.446,158.747Z" fill="#f8076e"/>
    <path id="Path_891" data-name="Path 891" d="M118.025,156.688a1.083,1.083,0,0,0,1.312-1.312,81.833,81.833,0,0,1-1.324-10c.009-.126.022-.251.032-.377H115.91l-.006.053a2.192,2.192,0,0,0,0,.647c.218,2.9.585,5.765,1.082,8.619l-.022,0,0,.023c-2.855-.5-5.721-.865-8.619-1.082a2.106,2.106,0,0,0-.647,0c-.873.065-1.739.17-2.606.263v2.109c.973-.1,1.95-.2,2.929-.264A82.02,82.02,0,0,1,118.025,156.688Z" fill="#4c081b"/>
    <path id="Path_892" data-name="Path 892" d="M194.346,152.752c-2.518.317-5.08-.342-7.525-.883-2.934-.653-5.851-1.393-8.756-2.189a22.48,22.48,0,0,1-.87,3.178c5.51,1.592,11.467,3.669,17.182,3.812,5.958.143,13.022-4.739,12.973-11.293,0-.128-.019-.251-.023-.377h-5.264c.008.126.025.249.025.377C202.088,149.245,197.779,152.329,194.346,152.752Z" fill="#f8076e"/>
    <path id="Path_893" data-name="Path 893" d="M119.318,231.728c-.142-5.715-2.219-11.672-3.811-17.182a22.8,22.8,0,0,1-3.178.871c.8,2.9,1.536,5.821,2.189,8.756.541,2.444,1.2,5.006.883,7.524-.423,3.433-3.507,7.742-7.376,7.742a5.727,5.727,0,0,1-2.929-.853v5.631a9.037,9.037,0,0,0,2.929.483C114.58,244.75,119.462,237.686,119.318,231.728Z" fill="#f8076e"/>
    <path id="Path_894" data-name="Path 894" d="M447.7,152.752c-2.7.311-5.441-.342-8.072-.883-.92-.193-1.841-.392-2.755-.591a29.884,29.884,0,0,1,5.883,4.577c4.017.883,8.227,1.418,11.977-.678,3.265-1.828,6.505-5.92,6.505-9.8,0-.126-.013-.251-.019-.377h-5.277c.01.126.029.249.029.377C455.976,149.406,451.162,152.36,447.7,152.752Z" fill="#05abaa"/>
    <path id="Path_895" data-name="Path 895" d="M117.826,492.089c2.1-3.75,1.561-7.96.678-11.977a29.885,29.885,0,0,1-4.577-5.883c.2.914.4,1.835.591,2.755.541,2.631,1.194,5.367.883,8.072-.392,3.457-3.345,8.271-7.376,8.271a5.469,5.469,0,0,1-2.929-.9v5.6a8.425,8.425,0,0,0,2.929.565C111.906,498.594,116,495.354,117.826,492.089Z" fill="#05abaa"/>
    <path id="Path_896" data-name="Path 896" d="M348.506,153.386a80.209,80.209,0,0,0,9.639-1.349q3.423-1.063,6.92-1.891a17.687,17.687,0,0,1-.988-3.575,7.884,7.884,0,0,1-.1-1.194c0-.128.024-.251.032-.377H335.8c-.005.128-.026.245-.026.377C335.776,152.242,343.133,153.791,348.506,153.386Zm.859-8.013v0Z" fill="#05abaa"/>
    <path id="Path_897" data-name="Path 897" d="M108.025,401.327a7.886,7.886,0,0,1,1.195.1,17.708,17.708,0,0,1,3.575.989q.831-3.5,1.89-6.922a79.968,79.968,0,0,0,1.35-9.638c.4-5.373-1.144-12.73-8.01-12.73a7.577,7.577,0,0,0-2.929.561v28.123c.571-.154,1.15-.285,1.736-.383A7.871,7.871,0,0,1,108.025,401.327Zm0-14.61h0Z" fill="#05abaa"/>
    <path id="Path_898" data-name="Path 898" d="M108.025,153.231a1.333,1.333,0,0,1,.324.025c2.9.217,5.764.584,8.619,1.082l0-.023.022,0c-.5-2.854-.864-5.721-1.082-8.619a2.192,2.192,0,0,1,0-.647l.006-.053H105.1v8.519c.867-.093,1.733-.2,2.606-.263A1.333,1.333,0,0,1,108.025,153.231Z" fill="#fcf3e1"/>
    <path id="Path_899" data-name="Path 899" d="M269.169,145.88c.621,4,3.551,7.289,7.922,7.027a7.682,7.682,0,0,0,7.151-7.53c0-.127-.013-.251-.018-.377h-2.135c.01.125.02.25.02.377a5.558,5.558,0,0,1-5.441,5.441c-3.146,0-5.137-2.531-5.441-5.441.013-.127.034-.252.053-.377h-2.15a.894.894,0,0,0-.036.377A.908.908,0,0,0,269.169,145.88Z" fill="#4c081b"/>
    <path id="Path_900" data-name="Path 900" d="M115.557,314.442c.26-4.372-3.029-7.3-7.028-7.922a1.728,1.728,0,0,0-1.007,0,9.761,9.761,0,0,0-2.426.708v2.335a6.9,6.9,0,0,1,2.929-.985c2.91.3,5.442,2.295,5.442,5.441a5.559,5.559,0,0,1-5.442,5.441,5.293,5.293,0,0,1-2.929-.907v2.415a7.269,7.269,0,0,0,2.929.625A7.683,7.683,0,0,0,115.557,314.442Z" fill="#4c081b"/>
    <path id="Path_901" data-name="Path 901" d="M115.557,358.9c.014-.244.013-.483.007-.718-.121-3.972-3.259-6.617-7.035-7.2a1.685,1.685,0,0,0-1.007,0,9.76,9.76,0,0,0-2.426.708v2.335a6.9,6.9,0,0,1,2.929-.985c2.91.305,5.442,2.3,5.442,5.441,0,.016,0,.03,0,.046s0,.031,0,.048a5.555,5.555,0,0,1-5.442,5.441,5.3,5.3,0,0,1-2.929-.906v2.32a7.269,7.269,0,0,0,2.929.625A7.683,7.683,0,0,0,115.557,358.9Zm-7.532-8h0Z" fill="#4c081b"/>
    <path id="Path_902" data-name="Path 902" d="M115.557,336.674c.015-.26.016-.514.008-.763-.142-3.948-3.274-6.575-7.036-7.16a1.705,1.705,0,0,0-1.007,0,9.763,9.763,0,0,0-2.426.709v2.334a6.908,6.908,0,0,1,2.929-.985c2.91.305,5.442,2.3,5.442,5.442v.05a5.553,5.553,0,0,1-5.442,5.434,5.307,5.307,0,0,1-2.929-.9V343.2a7.253,7.253,0,0,0,2.929.626A7.683,7.683,0,0,0,115.557,336.674Zm-7.532-8h0Z" fill="#4c081b"/>
    <path id="Path_903" data-name="Path 903" d="M291.4,145.88c.585,3.761,3.212,6.894,7.16,7.035.25.009.5.008.762-.008a7.682,7.682,0,0,0,7.152-7.53c0-.127-.013-.251-.019-.377h-2.091c.01.125.021.25.021.377a5.554,5.554,0,0,1-5.436,5.441h-.05c-3.146,0-5.136-2.531-5.441-5.441.014-.127.034-.252.054-.377h-2.151a1.764,1.764,0,0,0,.039.88Zm-.075-.5v0Z" fill="#4c081b"/>
    <path id="Path_904" data-name="Path 904" d="M313.632,145.88c.587,3.775,3.231,6.915,7.2,7.035.235.007.474.007.718-.008a7.682,7.682,0,0,0,7.151-7.53c0-.127-.012-.251-.019-.377h-2.04c.009.125.02.25.02.377a5.555,5.555,0,0,1-5.441,5.441c-.017,0-.033,0-.048,0s-.03,0-.046,0c-3.147,0-5.137-2.531-5.441-5.441.013-.127.034-.252.053-.377h-2.15a.912.912,0,0,0-.037.377A.937.937,0,0,0,313.632,145.88Zm-.075-.5v0Z" fill="#4c081b"/>
    <path id="Path_905" data-name="Path 905" d="M371.672,145.88c.583,3.747,3.19,6.871,7.113,7.035a7.852,7.852,0,0,0,.81-.008,7.682,7.682,0,0,0,7.151-7.53c0-.127-.013-.251-.019-.377h-2.134c.009.125.02.25.02.377a5.559,5.559,0,0,1-5.441,5.441l-.036,0-.034,0c-3.148,0-5.137-2.531-5.442-5.441.013-.127.033-.252.053-.377h-2.08a.946.946,0,0,0-.037.377A.937.937,0,0,0,371.672,145.88Zm-.074-.5v0Z" fill="#4c081b"/>
    <path id="Path_906" data-name="Path 906" d="M115.557,416.945q.024-.412.007-.809c-.165-3.922-3.289-6.53-7.035-7.113a1.705,1.705,0,0,0-1.007,0,9.72,9.72,0,0,0-2.426.709V412a6.9,6.9,0,0,1,2.929-.985c2.91.305,5.442,2.3,5.442,5.441,0,.012,0,.023,0,.034s0,.024,0,.037a5.559,5.559,0,0,1-5.442,5.441,5.294,5.294,0,0,1-2.929-.908v2.415a7.253,7.253,0,0,0,2.929.626A7.683,7.683,0,0,0,115.557,416.945Zm-7.532-8h0Z" fill="#4c081b"/>
    <path id="Path_907" data-name="Path 907" d="M349.366,145.377v0Z" fill="#4c081b"/>
    <path id="Path_908" data-name="Path 908" d="M108.029,386.716h0Z" fill="#4c081b"/>
    <path id="Path_909" data-name="Path 909" d="M426.885,146c.889.455,1.809.915,2.742,1.381a1.277,1.277,0,0,1,.3.031c3.936,1.02,7.9,1.978,11.908,2.73,2.376.448,4.876.908,7.251.162,2.046-.647,4.571-2.624,4.571-4.925a3.158,3.158,0,0,0-.025-.377H427.005a1.126,1.126,0,0,1,.076.377A1.1,1.1,0,0,1,426.885,146Z" fill="#f8076e"/>
    <path id="Path_910" data-name="Path 910" d="M112.951,486.436c.746-2.375.285-4.875-.162-7.251-.752-4-1.71-7.972-2.729-11.908a1.23,1.23,0,0,1-.032-.3c-.467-.932-.926-1.853-1.381-2.742a1.083,1.083,0,0,1-1.243,0c-.454.889-.915,1.81-1.381,2.742a1.278,1.278,0,0,1-.031.3q-.46,1.777-.9,3.565v18.793a4.319,4.319,0,0,0,2.929,1.372C110.326,491.007,112.3,488.482,112.951,486.436Z" fill="#f8076e"/>
    <path id="Path_911" data-name="Path 911" d="M178.383,147.553c3.482.964,6.99,1.86,10.522,2.587,3.669.759,10.876.84,10.876-4.763,0-.134-.023-.25-.031-.377H178.48c0,.126.01.251.008.377A19.266,19.266,0,0,1,178.383,147.553Z" fill="#fcf3e1"/>
    <path id="Path_912" data-name="Path 912" d="M112.789,226.256c-.728-3.532-1.623-7.039-2.587-10.522a22.387,22.387,0,0,1-4.352,0q-.387,1.394-.754,2.794v17.644a4.513,4.513,0,0,0,2.929.96C113.629,237.132,113.548,229.925,112.789,226.256Z" fill="#fcf3e1"/>
    <path id="Path_913" data-name="Path 913" d="M379.1,150.818l.034,0a5.558,5.558,0,0,0,5.406-5.439c0-.127-.011-.252-.02-.377H373.713c-.02.125-.04.25-.053.377C373.965,148.287,375.954,150.818,379.1,150.818Z" fill="#fcf3e1"/>
    <path id="Path_914" data-name="Path 914" d="M113.465,416.486c0-.011,0-.022,0-.034,0-3.146-2.532-5.136-5.442-5.441A6.9,6.9,0,0,0,105.1,412v8.99a5.293,5.293,0,0,0,2.929.907A5.559,5.559,0,0,0,113.465,416.486Z" fill="#fcf3e1"/>
    <path id="Path_915" data-name="Path 915" d="M321.177,150.815c.015,0,.031,0,.048,0a5.555,5.555,0,0,0,5.441-5.441c0-.127-.011-.252-.02-.377H315.838c-.021.125-.041.25-.055.377C316.093,148.272,318.065,150.789,321.177,150.815Z" fill="#05abaa"/>
    <path id="Path_916" data-name="Path 916" d="M113.467,358.576c0-.017,0-.032,0-.048-.026-3.113-2.544-5.084-5.44-5.394a6.94,6.94,0,0,0-2.929.989v8.988a5.3,5.3,0,0,0,2.929.906A5.555,5.555,0,0,0,113.467,358.576Z" fill="#05abaa"/>
    <path id="Path_917" data-name="Path 917" d="M298.924,150.817h.025a5.554,5.554,0,0,0,5.436-5.441c0-.127-.011-.252-.021-.377h-10.8c-.019.125-.039.25-.053.377C293.813,148.279,295.792,150.8,298.924,150.817Z" fill="#05abaa"/>
    <path id="Path_918" data-name="Path 918" d="M113.467,336.3v-.026c-.015-3.132-2.538-5.112-5.441-5.416a6.908,6.908,0,0,0-2.929.985v8.986a5.307,5.307,0,0,0,2.929.9A5.553,5.553,0,0,0,113.467,336.3Z" fill="#05abaa"/>
    <path id="Path_919" data-name="Path 919" d="M276.668,150.818a5.558,5.558,0,0,0,5.441-5.441c0-.127-.01-.252-.02-.377H271.28c-.019.125-.04.25-.053.377C271.531,148.287,273.522,150.818,276.668,150.818Z" fill="#05abaa"/>
    <path id="Path_920" data-name="Path 920" d="M113.467,314.019c0-3.146-2.532-5.136-5.442-5.441a6.9,6.9,0,0,0-2.929.985v8.99a5.293,5.293,0,0,0,2.929.907A5.559,5.559,0,0,0,113.467,314.019Z" fill="#05abaa"/>
    <path id="Path_921" data-name="Path 921" d="M136.028,480.1c2.68-1.934,3.669-6.536,3.5-9.6a12.51,12.51,0,0,0-4.191-8.5c-4.086-3.824-9.421-6.629-14.24-9.471q-1.185,1.121-2.37,2.227c4.608,2.773,10.385,5.652,13.8,9.856,2.276,2.8,3.383,8.321.416,11.175-3.1,2.979-8.749,1.374-11.448-1.194-3.861-3.688-6.368-9.415-8.868-14.091-.789.74-1.573,1.486-2.356,2.226,2.63,5.068,5.2,10.777,8.979,15.061C123.317,482.394,130.8,483.862,136.028,480.1Z" fill="#05abaa"/>
    <path id="Path_922" data-name="Path 922" d="M105.1,462.077v1.987c.228-.449.456-.9.684-1.339Z" fill="#05abaa"/>
    <path id="Path_923" data-name="Path 923" d="M433.147,176.88c3.066.168,7.668-.821,9.6-3.5,3.762-5.224,2.294-12.711-2.314-16.778-4.285-3.774-9.993-6.349-15.061-8.979-.74.783-1.486,1.567-2.227,2.357,4.677,2.5,10.4,5,14.092,8.867,2.569,2.7,4.173,8.352,1.194,11.449-2.855,2.966-8.37,1.859-11.175-.417-4.2-3.414-7.083-9.191-9.857-13.8-.74.79-1.479,1.579-2.225,2.369,2.842,4.82,5.646,10.155,9.471,14.241A12.5,12.5,0,0,0,433.147,176.88Z" fill="#05abaa"/>
    <path id="Path_924" data-name="Path 924" d="M131.034,474.26c2.14-1.673,1.8-5.173.541-7.331a14.509,14.509,0,0,0-4.483-4.192c-3.172-2.245-6.461-4.328-9.782-6.343a1.215,1.215,0,0,1-.18-.137L114.22,459a.9.9,0,0,1,.1.149C116.738,463.627,123.722,479.981,131.034,474.26Z" fill="#f8076e"/>
    <path id="Path_925" data-name="Path 925" d="M425.387,164.443a14.517,14.517,0,0,0,4.19,4.484c2.158,1.262,5.659,1.6,7.332-.541,5.722-7.314-10.634-14.3-15.111-16.71a.89.89,0,0,1-.15-.106l-2.742,2.911a1.332,1.332,0,0,1,.137.18C421.059,157.982,423.142,161.271,425.387,164.443Z" fill="#f8076e"/>
    <path id="Path_926" data-name="Path 926" d="M127.664,403.238c.87-1.051,1.735-2.115,2.581-3.191,3.47-4.421,8.7-10.478,6.349-16.429a7.434,7.434,0,0,0-8.961-4.6c-3.427.859-5.479,3.719-6.952,6.723a66.726,66.726,0,0,0-3.464,8.687c-.622,3.109-1.431,6.169-2.227,9.042a16.665,16.665,0,0,1,3.073,2.251,17.027,17.027,0,0,1,3.426,4.5q1.566-1.65,3.066-3.358C125.563,405.638,126.6,404.419,127.664,403.238Z" fill="#05abaa"/>
    <path id="Path_927" data-name="Path 927" d="M346.267,173.945c5.951,2.351,12.008-2.879,16.429-6.349,1.076-.846,2.14-1.71,3.191-2.581,1.181-1.07,2.4-2.1,3.632-3.109q1.705-1.5,3.357-3.066a17.01,17.01,0,0,1-4.5-3.427,16.665,16.665,0,0,1-2.251-3.071c-2.873.795-5.933,1.6-9.042,2.226a67.066,67.066,0,0,0-8.687,3.464c-3,1.473-5.865,3.525-6.723,6.952A7.435,7.435,0,0,0,346.267,173.945Z" fill="#05abaa"/>
    <path id="Path_928" data-name="Path 928" d="M263.765,301.116c.037-41.659,1.673-86.483-18.04-124.509a111.99,111.99,0,0,0-20.858-28.276,61.3,61.3,0,0,1-3.01,16.087c24.315,24.881,28.656,60.346,29.2,93.609.168,9.782.038,19.564.031,29.352a1.079,1.079,0,0,1-1.064,1.063c-9.788.006-19.569.137-29.351-.031-33.264-.547-68.729-4.888-93.609-29.2a61.262,61.262,0,0,1-16.088,3.01,112.009,112.009,0,0,0,28.277,20.857C177.282,302.788,222.106,301.153,263.765,301.116Z" fill="#ffad0e"/>
    <path id="Path_929" data-name="Path 929" d="M146.444,221.785a12.434,12.434,0,0,0-4.017-8.588c-3.955-3.843-9.135-6.729-13.849-9.62a22.265,22.265,0,0,1-1.772,2.792q3.535,2.229,6.977,4.608c2.139,1.492,4.484,2.991,6.064,5.118,2.088,2.817,2.792,8.134-.075,10.808-3.029,2.829-8.47,1.424-11.12-1.082-3.674-3.483-5.994-9.048-8.257-13.625a24.068,24.068,0,0,1-2.9,1.554c2.476,5.031,4.907,10.628,8.514,14.894,3.973,4.7,11.418,6.3,16.728,2.661C145.48,229.427,146.525,224.857,146.444,221.785Z" fill="#f8076e"/>
    <path id="Path_930" data-name="Path 930" d="M184.434,183.795c3.072.081,7.642-.964,9.52-3.706,3.638-5.311,2.04-12.754-2.661-16.728-4.266-3.607-9.863-6.038-14.894-8.513a23.992,23.992,0,0,1-1.554,2.9c4.577,2.263,10.142,4.583,13.625,8.258,2.506,2.649,3.911,8.09,1.082,11.119-2.674,2.866-7.992,2.164-10.808.074-2.127-1.579-3.626-3.924-5.118-6.063q-2.388-3.432-4.608-6.977a22.5,22.5,0,0,1-2.792,1.772c2.891,4.714,5.777,9.894,9.62,13.849A12.436,12.436,0,0,0,184.434,183.795Z" fill="#f8076e"/>
    <path id="Path_931" data-name="Path 931" d="M148.876,186.227c6.747-7.494,7.406-18.78,0-26.187a18.517,18.517,0,1,0-26.186,26.187C130.1,193.633,141.382,192.974,148.876,186.227Zm-22.885-3.3a13.847,13.847,0,0,1,19.582-19.583c5.479,5.479,5.026,13.756.187,19.365a.979.979,0,0,1-.187.218.955.955,0,0,1-.218.186C139.747,187.949,131.47,188.4,125.991,182.925Z" fill="#fcf3e1"/>
    <path id="Path_932" data-name="Path 932" d="M133.64,400.377c-1.921,1.81-3.762,3.713-5.516,5.678-.554.653-1.119,1.3-1.684,1.94q-1.914,2.267-3.682,4.633a1.4,1.4,0,0,1-.156.168,17.55,17.55,0,0,1,.286,10.447,20.469,20.469,0,0,1-1.088,2.929q3.321-3.19,6.6-6.418a276.157,276.157,0,0,0,20.465-22.325C143.7,392.9,137.949,396.3,133.64,400.377Z" fill="#05abaa"/>
    <path id="Path_933" data-name="Path 933" d="M368.7,165.475c-1.965,1.754-3.867,3.6-5.677,5.516-4.073,4.31-7.481,10.056-2.948,15.23A276.356,276.356,0,0,0,382.4,165.755q3.235-3.274,6.417-6.6a20.335,20.335,0,0,1-2.928,1.088,17.545,17.545,0,0,1-10.448-.286,1.261,1.261,0,0,1-.168.156q-2.369,1.771-4.632,3.681C370,164.356,369.356,164.922,368.7,165.475Z" fill="#05abaa"/>
    <path id="Path_934" data-name="Path 934" d="M126.968,446.967q-2.127,2.023-4.254,4.036c2.941,1.7,6.237,3.451,9.26,5.491C130.1,453.385,128.522,450.008,126.968,446.967Z" fill="#fcf3e1"/>
    <path id="Path_935" data-name="Path 935" d="M413.651,160.065q-2.013,2.127-4.035,4.254c3.04,1.554,6.417,3.128,9.527,5.005C417.1,166.3,415.355,163.006,413.651,160.065Z" fill="#fcf3e1"/>
    <path id="Path_936" data-name="Path 936" d="M137.862,225.379c4.652-3.383-.4-9.135-3.469-11.368-2.9-2.108-5.915-4.079-8.949-5.988-.361.392-.734.783-1.131,1.163a24.241,24.241,0,0,1-2.146,1.8C124.728,216.269,130.729,230.565,137.862,225.379Z" fill="#fcf3e1"/>
    <path id="Path_937" data-name="Path 937" d="M188.028,175.214c5.187-7.133-9.11-13.134-14.389-15.7a24.094,24.094,0,0,1-1.8,2.145c-.38.4-.771.771-1.163,1.132,1.909,3.035,3.881,6.051,5.988,8.949C178.893,174.816,184.646,179.865,188.028,175.214Z" fill="#fcf3e1"/>
    <path id="Path_938" data-name="Path 938" d="M139,312.309a12.218,12.218,0,0,0,5.652-6.212c2.251-5.044,3.128-10.9,4.216-16.324-.889-.361-1.771-.74-2.648-1.126-.617,2.78-1.276,5.553-2.009,8.308-.678,2.538-1.294,5.274-2.755,7.506-1.872,2.861-6.517,5.547-9.969,3.769-3.65-1.885-3.861-7.544-2.456-10.765,2-4.6,6.162-8.7,9.589-12.443-.858-.442-1.716-.9-2.561-1.362a.3.3,0,0,0-.044.062c-3.607,3.936-7.761,8-10.429,12.643-2.954,5.142-2.264,12.8,3.047,16.336C131.451,314.579,136.165,313.715,139,312.309Z" fill="#f8076e"/>
    <path id="Path_939" data-name="Path 939" d="M246.309,173.41c.466.846.92,1.7,1.362,2.562,3.743-3.426,7.848-7.586,12.443-9.589,3.222-1.4,8.88-1.194,10.765,2.457,1.778,3.451-.908,8.1-3.769,9.968-2.232,1.461-4.968,2.077-7.506,2.755-2.754.734-5.528,1.393-8.308,2.008.386.877.765,1.76,1.126,2.65,5.423-1.089,11.28-1.966,16.324-4.217a12.226,12.226,0,0,0,6.212-5.652c1.4-2.836,2.27-7.55.392-10.367-3.539-5.311-11.194-6-16.336-3.047-4.646,2.668-8.706,6.822-12.643,10.429A.33.33,0,0,0,246.309,173.41Z" fill="#f8076e"/>
    <path id="Path_940" data-name="Path 940" d="M145.573,182.925a.979.979,0,0,0,.187-.218c4.839-5.609,5.292-13.886-.187-19.365a13.847,13.847,0,0,0-19.582,19.583c5.479,5.478,13.756,5.024,19.364.186A.955.955,0,0,0,145.573,182.925ZM127.5,181.42a11.719,11.719,0,0,1,16.572-16.573c4.74,4.664,4.223,11.847,0,16.573C139.343,185.642,132.16,186.158,127.5,181.42Z" fill="#4c081b"/>
    <path id="Path_941" data-name="Path 941" d="M144.068,164.847A11.719,11.719,0,0,0,127.5,181.42c4.664,4.738,11.847,4.222,16.572,0C148.291,176.694,148.808,169.511,144.068,164.847Z" fill="#f8076e"/>
    <path id="Path_942" data-name="Path 942" d="M154.279,462.694c2.681-1.934,3.663-6.53,3.5-9.6a12.541,12.541,0,0,0-4.191-8.507c-4.13-3.855-9.527-6.678-14.384-9.551-.759.764-1.523,1.517-2.289,2.276,4.621,2.779,10.436,5.665,13.861,9.893,2.277,2.8,3.383,8.315.417,11.169-3.1,2.979-8.755,1.374-11.448-1.194-3.844-3.663-6.343-9.353-8.831-14.011-.777.753-1.561,1.505-2.344,2.258,2.618,5.037,5.18,10.7,8.93,14.949C141.563,464.988,149.056,466.456,154.279,462.694Z" fill="#05abaa"/>
    <path id="Path_943" data-name="Path 943" d="M415.747,195.132c3.067.161,7.662-.821,9.6-3.5,3.762-5.224,2.3-12.717-2.314-16.778-4.247-3.75-9.912-6.312-14.949-8.93q-1.129,1.176-2.258,2.344c4.658,2.488,10.348,4.988,14.011,8.831,2.568,2.693,4.173,8.345,1.194,11.448-2.854,2.967-8.371,1.86-11.169-.416-4.228-3.427-7.114-9.241-9.893-13.862-.759.765-1.512,1.53-2.276,2.289,2.872,4.856,5.7,10.254,9.551,14.383A12.54,12.54,0,0,0,415.747,195.132Z" fill="#05abaa"/>
    <path id="Path_944" data-name="Path 944" d="M132.72,377.113a224.543,224.543,0,0,0,9.259-64.182,15.808,15.808,0,0,1-9.993,3.035,318.43,318.43,0,0,1-5.64,61.309A10.043,10.043,0,0,1,132.72,377.113Z" fill="#ffad0e"/>
    <path id="Path_945" data-name="Path 945" d="M339.762,170.071a10.036,10.036,0,0,1,.162-6.374,318.435,318.435,0,0,1-61.31,5.64,15.8,15.8,0,0,1-3.034,9.993A224.508,224.508,0,0,0,339.762,170.071Z" fill="#ffad0e"/>
    <path id="Path_946" data-name="Path 946" d="M150.555,187.533a1.977,1.977,0,0,1-.373.373,22.083,22.083,0,0,1-12.357,5.752,19.245,19.245,0,0,1-6.274-.3,29.332,29.332,0,0,1-2.059,8.277c5.759,3.52,13.053,7.189,16.834,12.9a15.783,15.783,0,0,1,1.859,11.709c.467-.82.915-1.654,1.306-2.506a55.5,55.5,0,0,0,4.677-15.092,46.651,46.651,0,0,0-.6-16.3,1.046,1.046,0,0,1-.043-.348,1.134,1.134,0,0,1,1.125-1.126,1.1,1.1,0,0,1,.348.044,46.675,46.675,0,0,0,16.3.6,55.515,55.515,0,0,0,15.093-4.677c.851-.391,1.684-.839,2.506-1.306a15.784,15.784,0,0,1-11.71-1.859c-5.708-3.781-9.378-11.075-12.9-16.834a29.351,29.351,0,0,1-8.276,2.059,19.328,19.328,0,0,1,.3,6.274A22.073,22.073,0,0,1,150.555,187.533Z" fill="#ffad0e"/>
    <path id="Path_947" data-name="Path 947" d="M134.15,282.6q-1.324-.765-2.63-1.555a31.434,31.434,0,0,1-1.132,5.553C131.669,285.221,132.956,283.89,134.15,282.6Z" fill="#fcf3e1"/>
    <path id="Path_948" data-name="Path 948" d="M249.244,167.739a31.426,31.426,0,0,1-5.554,1.132c.53.87,1.045,1.747,1.555,2.63C246.539,170.307,247.87,169.02,249.244,167.739Z" fill="#fcf3e1"/>
    <path id="Path_949" data-name="Path 949" d="M149.28,456.855c2.139-1.673,1.81-5.174.547-7.332a14.52,14.52,0,0,0-4.483-4.192c-3.172-2.244-6.468-4.321-9.783-6.343a1.17,1.17,0,0,1-.192-.143c-.952.933-1.909,1.872-2.867,2.8a.793.793,0,0,1,.075.1C134.989,446.221,141.967,462.576,149.28,456.855Z" fill="#f8076e"/>
    <path id="Path_950" data-name="Path 950" d="M407.98,182.7a14.532,14.532,0,0,0,4.192,4.483c2.157,1.263,5.659,1.592,7.332-.547,5.721-7.313-10.635-14.29-15.106-16.7a.732.732,0,0,1-.105-.075c-.927.958-1.866,1.915-2.8,2.867a1.2,1.2,0,0,1,.144.193C403.658,176.227,405.735,179.523,407.98,182.7Z" fill="#f8076e"/>
    <path id="Path_951" data-name="Path 951" d="M132.925,306.252c4.863,1.94,7.668-4.3,8.681-7.854,1-3.513,1.847-7.058,2.63-10.621-1.224-.56-2.443-1.145-3.65-1.742-2.425,2.724-4.807,5.5-7.052,8.377C131.259,297.316,127.727,304.175,132.925,306.252Z" fill="#05abaa"/>
    <path id="Path_952" data-name="Path 952" d="M268.9,170.276c-2.077-5.2-8.936-1.667-11.841.609-2.878,2.245-5.652,4.627-8.375,7.052.6,1.207,1.181,2.426,1.741,3.651,3.563-.784,7.107-1.636,10.621-2.631C264.6,177.944,270.842,175.139,268.9,170.276Z" fill="#05abaa"/>
    <path id="Path_953" data-name="Path 953" d="M153.764,325.636a1.054,1.054,0,0,1,.087-.461c-.044-.012-.087-.018-.131-.031-5.46-1.467-9.589-8.183-9.608-13.619a226.488,226.488,0,0,1-9.433,66.5,9.074,9.074,0,0,1,2,1.685,10.113,10.113,0,0,1,2.1,9.981C148.478,369.62,154.137,348.122,153.764,325.636Z" fill="#fcf3e1"/>
    <path id="Path_954" data-name="Path 954" d="M274.175,181.463c5.434.019,12.151,4.148,13.618,9.608.013.044.018.087.031.131a1.039,1.039,0,0,1,.46-.087c22.488.373,43.985-5.286,64.052-14.981a10.113,10.113,0,0,1-9.981-2.1,9.022,9.022,0,0,1-1.685-2A226.486,226.486,0,0,1,274.175,181.463Z" fill="#fcf3e1"/>
    <path id="Path_955" data-name="Path 955" d="M214.053,286.234a28.536,28.536,0,0,1-1.325-6.442c-26.727-1.691-53.816-7.5-74.436-25.621a59.149,59.149,0,0,1-8.961,4.241A86.273,86.273,0,0,0,151.7,273.834C171.113,283.119,192.556,285.631,214.053,286.234Z" fill="#fcf3e1"/>
    <path id="Path_956" data-name="Path 956" d="M248.884,251.4c-.6-21.5-3.116-42.939-12.4-62.354a86.3,86.3,0,0,0-15.422-22.368,59.344,59.344,0,0,1-4.241,8.961c18.121,20.621,23.929,47.709,25.621,74.436A28.555,28.555,0,0,1,248.884,251.4Z" fill="#fcf3e1"/>
    <path id="Path_957" data-name="Path 957" d="M144.441,429.71q-1.836,1.895-3.687,3.769c2.967,1.716,6.3,3.482,9.365,5.541C148.018,435.991,146.208,432.676,144.441,429.71Z" fill="#fcf3e1"/>
    <path id="Path_958" data-name="Path 958" d="M396.128,178.1c-1.25,1.238-2.507,2.463-3.769,3.688,2.966,1.766,6.281,3.576,9.309,5.678C399.61,184.4,397.844,181.072,396.128,178.1Z" fill="#fcf3e1"/>
    <path id="Path_959" data-name="Path 959" d="M167.147,320.8a15.738,15.738,0,0,1-11.269,4.677,1.185,1.185,0,0,1,.019.162c.4,24.072-6.033,47.068-16.884,68.379a11.868,11.868,0,0,1,4.633-.833C157.712,371.286,167.047,347,167.147,320.8Z" fill="#ffad0e"/>
    <path id="Path_960" data-name="Path 960" d="M356.664,176.364c-21.311,10.852-44.308,17.288-68.38,16.884a1.208,1.208,0,0,1-.161-.019,15.739,15.739,0,0,1-4.677,11.268c26.2-.1,50.489-9.434,72.385-23.5A11.828,11.828,0,0,1,356.664,176.364Z" fill="#ffad0e"/>
    <path id="Path_961" data-name="Path 961" d="M144.118,310.966a.109.109,0,0,1-.024.031,1.161,1.161,0,0,1,.018.143C144.112,311.084,144.118,311.028,144.118,310.966Z" fill="#fcf3e1"/>
    <path id="Path_962" data-name="Path 962" d="M273.615,181.47c.062,0,.118-.007.174-.007a1.142,1.142,0,0,1-.143-.018A.136.136,0,0,1,273.615,181.47Z" fill="#fcf3e1"/>
    <path id="Path_963" data-name="Path 963" d="M169.6,296.464c-.977-.236-1.954-.479-2.929-.74-.069,2.985-.194,5.97-.4,8.949a24.436,24.436,0,0,1-1.239,7.518c-1.318,3.265-5.4,6.666-9.2,5.709-4.136-1.039-5.683-6.673-4.906-10.28,1.082-5.024,4.607-9.974,7.362-14.377-.951-.311-1.9-.622-2.842-.952-3.127,4.894-7.083,10.224-8.68,15.821a11.636,11.636,0,0,0,1.132,9.259c1.392,2.363,4.073,5.292,6.933,5.752,5.97.952,12.014-3.2,13.656-8.83C170.094,308.758,169.615,302.2,169.6,296.464Z" fill="#f8076e"/>
    <path id="Path_964" data-name="Path 964" d="M276.941,205.834c5.628-1.642,9.783-7.686,8.831-13.656-.459-2.861-3.389-5.541-5.752-6.934a11.648,11.648,0,0,0-9.259-1.132c-5.6,1.6-10.927,5.554-15.821,8.682.33.939.641,1.89.952,2.842,4.4-2.755,9.352-6.281,14.378-7.363,3.606-.778,9.24.771,10.279,4.906.957,3.8-2.445,7.885-5.709,9.2a24.435,24.435,0,0,1-7.519,1.237c-2.978.212-5.964.336-8.948.4.261.977.5,1.953.74,2.929C264.853,206.966,271.407,207.445,276.941,205.834Z" fill="#f8076e"/>
    <path id="Path_965" data-name="Path 965" d="M213.375,271.2c-23.643-2.207-47.125-8.3-65.638-23.83a57.478,57.478,0,0,1-7.53,5.641c20.1,17.418,46.5,22.99,72.428,24.638A28.515,28.515,0,0,1,213.375,271.2Z" fill="#05abaa"/>
    <path id="Path_966" data-name="Path 966" d="M240.3,249.986c-1.648-25.925-7.22-52.323-24.638-72.428a57.647,57.647,0,0,1-5.641,7.531c15.535,18.512,21.623,41.994,23.83,65.637A28.515,28.515,0,0,1,240.3,249.986Z" fill="#05abaa"/>
    <path id="Path_967" data-name="Path 967" d="M164.727,446.389c2.966.012,7.239-1.039,9.048-3.638,3.887-5.585,1.928-13.215-3.116-17.2-4.365-3.445-9.744-5.876-14.7-8.383-.7.809-1.418,1.617-2.133,2.419,2.9,1.524,5.771,3.1,8.594,4.77a24.881,24.881,0,0,1,5.945,4.26c2.419,2.649,3.856,8.134,1.038,11.119-2.947,3.128-8.65,1.872-11.505-.547-4.06-3.439-6.92-8.937-9.707-13.433-.74.79-1.479,1.567-2.225,2.351,2.966,4.894,5.913,10.5,10,14.514A12.406,12.406,0,0,0,164.727,446.389Z" fill="#05abaa"/>
    <path id="Path_968" data-name="Path 968" d="M405.4,211.126c2.6-1.81,3.651-6.082,3.638-9.048a12.4,12.4,0,0,0-3.762-8.762c-4.01-4.086-9.62-7.033-14.514-10-.783.747-1.561,1.487-2.351,2.227,4.5,2.786,9.993,5.646,13.433,9.707,2.419,2.854,3.675,8.557.547,11.5-2.985,2.817-8.47,1.381-11.119-1.038a24.882,24.882,0,0,1-4.26-5.945c-1.666-2.823-3.246-5.7-4.77-8.594-.8.715-1.61,1.43-2.419,2.133,2.506,4.956,4.938,10.335,8.383,14.7C392.185,213.054,399.815,215.013,405.4,211.126Z" fill="#05abaa"/>
    <path id="Path_969" data-name="Path 969" d="M169.267,321.55c-.255,25.969-9.441,50.172-23.3,71.968a10.785,10.785,0,0,1,4.228,2.251c15.1-19.1,26.255-40.887,25.707-66.172A15.924,15.924,0,0,1,169.267,321.55Z" fill="#fcf3e1"/>
    <path id="Path_970" data-name="Path 970" d="M284.2,206.618a15.93,15.93,0,0,1,8.047,6.635c25.284.547,47.069-10.609,66.172-25.708a10.782,10.782,0,0,1-2.251-4.229C334.371,197.178,310.168,206.363,284.2,206.618Z" fill="#fcf3e1"/>
    <path id="Path_971" data-name="Path 971" d="M156.543,434.4a13.7,13.7,0,0,0,4.012,4.08c2.164,1.225,5.7,1.492,7.318-.653,3.327-4.4-1.8-8.762-5.167-10.814-3.321-2.021-6.728-3.893-10.174-5.7a1.078,1.078,0,0,1-.162-.105c-.889.988-1.79,1.971-2.692,2.947a1.013,1.013,0,0,1,.149.2C151.967,427.77,154.168,431.159,156.543,434.4Z" fill="#f8076e"/>
    <path id="Path_972" data-name="Path 972" d="M389.667,200.057c2.052,3.37,6.417,8.494,10.813,5.168,2.146-1.624,1.878-5.156.654-7.32a13.722,13.722,0,0,0-4.079-4.011c-3.246-2.375-6.636-4.577-10.044-6.716a.918.918,0,0,1-.2-.149c-.977.9-1.96,1.8-2.949,2.693a.959.959,0,0,1,.107.161C385.773,193.328,387.646,196.736,389.667,200.057Z" fill="#f8076e"/>
    <path id="Path_973" data-name="Path 973" d="M149.51,297.863q1.9-3.189,3.887-6.324-1.26-.467-2.519-.952C150.431,292.882,150.026,295.37,149.51,297.863Z" fill="#fcf3e1"/>
    <path id="Path_974" data-name="Path 974" d="M254.188,190.748q3.134-1.979,6.324-3.887c-2.493.516-4.981.92-7.276,1.368Q253.722,189.489,254.188,190.748Z" fill="#fcf3e1"/>
    <path id="Path_975" data-name="Path 975" d="M217.088,262.734c-22.318-2.543-44.246-8.911-61.639-23.668-.808,1.039-1.648,2.071-2.544,3.1-1.137,1.312-2.345,2.556-3.588,3.75,18.19,15.23,41.448,21.1,64.655,23.208A28.481,28.481,0,0,1,217.088,262.734Z" fill="#fcf3e1"/>
    <path id="Path_976" data-name="Path 976" d="M231.776,251.323c-2.108-23.208-7.978-46.465-23.208-64.655-1.194,1.244-2.437,2.45-3.75,3.588-1.032.9-2.064,1.735-3.1,2.544,14.757,17.393,21.125,39.32,23.668,61.639A28.461,28.461,0,0,1,231.776,251.323Z" fill="#fcf3e1"/>
    <path id="Path_977" data-name="Path 977" d="M156.854,315.816c5.243.535,6.835-5.7,7.17-9.558.318-3.693.46-7.406.535-11.112-.454-.131-.908-.243-1.356-.373-.945-.274-1.884-.566-2.816-.859-1.922,3.166-3.787,6.368-5.5,9.646-1.082,2.07-2.214,4.29-2.077,6.7C152.924,312.377,154.441,315.574,156.854,315.816Z" fill="#05abaa"/>
    <path id="Path_978" data-name="Path 978" d="M278.465,194.205c-.242-2.413-3.439-3.93-5.559-4.048-2.407-.137-4.627.995-6.7,2.077-3.276,1.716-6.48,3.582-9.644,5.5.291.933.584,1.872.858,2.817.13.448.242.9.373,1.356,3.706-.075,7.419-.218,11.112-.535C272.77,201.039,279,199.448,278.465,194.205Z" fill="#05abaa"/>
    <path id="Path_979" data-name="Path 979" d="M160.23,412.118q-1.407,1.707-2.847,3.395c3.2,1.642,6.392,3.327,9.527,5.112Q163.477,416.446,160.23,412.118Z" fill="#fcf3e1"/>
    <path id="Path_980" data-name="Path 980" d="M378.162,194.734q-1.689,1.436-3.395,2.848,4.32,3.255,8.506,6.679C381.489,201.127,379.8,197.936,378.162,194.734Z" fill="#fcf3e1"/>
    <path id="Path_981" data-name="Path 981" d="M220.8,258.149a28.155,28.155,0,0,1,2.608-2.3c-2.382-22.3-8.6-44.426-23.388-61.757A55.254,55.254,0,0,1,187.593,201a70.592,70.592,0,0,1-19.458,4.49,70.565,70.565,0,0,1-4.49,19.458,55.253,55.253,0,0,1-6.909,12.425c17.331,14.794,39.457,21.006,61.757,23.388A28.284,28.284,0,0,1,220.8,258.149Z" fill="#05abaa"/>
    <path id="Path_982" data-name="Path 982" d="M172.755,423.784a12.5,12.5,0,0,0,8.942,3.165c3.122-.193,7.482-1.729,9.1-4.62,3.277-5.889.566-13.264-4.757-16.716-4.695-3.047-10.342-4.944-15.534-6.977-.609.877-1.232,1.76-1.859,2.63,4.962,1.99,10.9,3.875,15.024,7.307,2.873,2.4,5.061,7.823,2.456,11.237-2.81,3.675-8.93,2.612-12.045.18-4.086-3.19-7.313-7.965-10.447-12.082q-1.008,1.268-2.022,2.531C164.994,414.96,168.414,420.127,172.755,423.784Z" fill="#05abaa"/>
    <path id="Path_983" data-name="Path 983" d="M384.978,228.146c2.891-1.617,4.427-5.976,4.62-9.1a12.5,12.5,0,0,0-3.165-8.943c-3.657-4.34-8.825-7.761-13.345-11.144q-1.26,1.017-2.531,2.022c4.117,3.134,8.892,6.361,12.083,10.447,2.431,3.115,3.495,9.234-.181,12.045-3.414,2.606-8.837.417-11.236-2.456-3.434-4.123-5.318-10.062-7.308-15.024-.87.628-1.753,1.25-2.63,1.859,2.033,5.193,3.93,10.839,6.977,15.534C371.714,228.712,379.089,231.424,384.978,228.146Z" fill="#05abaa"/>
    <path id="Path_984" data-name="Path 984" d="M184.086,418.243c3.2-4.228-1.68-8.352-5.187-10.105-3.644-1.822-7.413-3.427-11.181-4.956a1.234,1.234,0,0,1-.329-.212q-1.214,1.643-2.463,3.259a1.127,1.127,0,0,1,.286.261C168.185,410.364,178.277,425.892,184.086,418.243Z" fill="#f8076e"/>
    <path id="Path_985" data-name="Path 985" d="M370.787,216.25c1.753,3.507,5.876,8.389,10.106,5.186,7.648-5.808-7.88-15.9-11.754-18.873a1.111,1.111,0,0,1-.261-.286q-1.614,1.25-3.259,2.463a1.275,1.275,0,0,1,.212.329C367.36,208.838,368.965,212.606,370.787,216.25Z" fill="#f8076e"/>
    <path id="Path_986" data-name="Path 986" d="M192.139,300.6c-1-.13-2-.267-3-.4.266,3.035.472,6.07.6,9.117a23.64,23.64,0,0,1-.435,7.6c-1,3.383-4.744,7.164-8.613,6.567-4.359-.678-6.374-6.387-5.833-10.124.709-4.919,3.452-10.012,5.647-14.564-.989-.18-1.984-.373-2.973-.572-2.518,5.105-5.653,10.565-6.759,16.15-1.2,6.088,3.078,13.73,9.725,14.408,6.106.622,11.666-4.975,12.519-10.578C193.88,312.527,192.779,306.3,192.139,300.6Z" fill="#f8076e"/>
    <path id="Path_987" data-name="Path 987" d="M277.022,208.122c-5.583,1.107-11.044,4.242-16.149,6.76.2.989.392,1.984.572,2.973,4.552-2.2,9.645-4.938,14.564-5.647,3.737-.541,9.446,1.474,10.124,5.833.6,3.868-3.184,7.612-6.567,8.613a23.641,23.641,0,0,1-7.605.435c-3.047-.124-6.082-.329-9.117-.6.137,1,.274,2,.4,3,5.7.64,11.928,1.741,17.605.877,5.6-.852,11.2-6.412,10.579-12.519C290.753,211.2,283.11,206.922,277.022,208.122Z" fill="#f8076e"/>
    <path id="Path_988" data-name="Path 988" d="M175.386,297.8q-1.839-.392-3.657-.815c-.012,3-.038,6.007-.162,9.011C172.786,303.236,174.067,300.506,175.386,297.8Z" fill="#fcf3e1"/>
    <path id="Path_989" data-name="Path 989" d="M268.64,208.918c-3,.125-6.013.15-9.011.162.28,1.213.554,2.432.814,3.657C263.155,211.418,265.885,210.137,268.64,208.918Z" fill="#fcf3e1"/>
    <path id="Path_990" data-name="Path 990" d="M173.781,393.779c-.665,1.026-1.349,2.046-2.04,3.066,3.054,1.212,6.1,2.462,9.111,3.793C178.445,398.406,176.1,396.105,173.781,393.779Z" fill="#fcf3e1"/>
    <path id="Path_991" data-name="Path 991" d="M359.494,209.093c-1.02.69-2.04,1.374-3.066,2.039,2.326,2.314,4.627,4.664,6.859,7.071C361.956,215.193,360.706,212.146,359.494,209.093Z" fill="#fcf3e1"/>
    <path id="Path_992" data-name="Path 992" d="M188.227,403.816a12.332,12.332,0,0,0,9.191,1.318c2.773-.678,6.56-2.692,7.7-5.516,2.469-6.15-.976-13.183-6.66-15.925-4.957-2.395-10.728-3.545-16.094-4.832-.485.957-.976,1.915-1.48,2.86,3,.784,5.988,1.623,8.955,2.55a25.121,25.121,0,0,1,6.765,2.78c3,2.045,5.423,6.7,3.7,10.329-1.747,3.687-7.55,4.1-10.778,2.692-2.48-1.088-4.526-3.084-6.51-4.869-2.17-1.952-4.285-3.967-6.368-6.013-.553.92-1.12,1.84-1.7,2.748C178.974,396.08,183.221,401.011,188.227,403.816Z" fill="#05abaa"/>
    <path id="Path_993" data-name="Path 993" d="M362.268,242.468c2.823-1.138,4.837-4.925,5.515-7.7a12.341,12.341,0,0,0-1.318-9.191c-2.8-5.006-7.737-9.253-11.878-13.277-.907.579-1.828,1.145-2.748,1.7,2.046,2.083,4.06,4.2,6.014,6.368,1.784,1.984,3.78,4.029,4.869,6.511,1.411,3.227.994,9.029-2.694,10.777-3.631,1.722-8.283-.7-10.329-3.7a25.189,25.189,0,0,1-2.779-6.766c-.927-2.967-1.767-5.951-2.55-8.955-.945.5-1.9,1-2.86,1.48,1.287,5.367,2.437,11.137,4.832,16.094C349.084,241.492,356.117,244.937,362.268,242.468Z" fill="#05abaa"/>
    <path id="Path_994" data-name="Path 994" d="M182.68,299.188c-1.673,3.576-3.315,7.2-4.683,10.9-.814,2.2-1.548,4.54-.857,6.884.646,2.214,2.611,4.664,5.155,4.2,4.85-.877,5.478-6.325,5.366-10.273-.093-3.682-.348-7.357-.678-11.02C185.547,299.667,184.11,299.43,182.68,299.188Z" fill="#05abaa"/>
    <path id="Path_995" data-name="Path 995" d="M283.826,219.646c.46-2.544-1.99-4.509-4.2-5.156-2.345-.69-4.688.044-6.884.859-3.707,1.368-7.326,3.009-10.9,4.682.242,1.43.478,2.867.7,4.3,3.663.33,7.338.585,11.02.678C277.5,225.124,282.949,224.5,283.826,219.646Z" fill="#05abaa"/>
    <path id="Path_996" data-name="Path 996" d="M192.81,398.735c2.451.143,5.311-.895,5.74-3.507.79-4.844-4.017-7.2-7.761-8.42-3.606-1.181-7.264-2.2-10.933-3.147q-1.016,1.837-2.077,3.657c2.812,2.78,5.678,5.528,8.695,8.1C188.283,396.963,190.322,398.592,192.81,398.735Z" fill="#f8076e"/>
    <path id="Path_997" data-name="Path 997" d="M357.877,235.9c2.612-.429,3.65-3.29,3.508-5.74-.144-2.487-1.773-4.527-3.316-6.337-2.574-3.016-5.322-5.882-8.1-8.693q-1.82,1.063-3.657,2.077c.946,3.669,1.965,7.325,3.147,10.932C350.682,231.884,353.033,236.691,357.877,235.9Z" fill="#f8076e"/>
    <path id="Path_998" data-name="Path 998" d="M184.7,373.96c-.442.983-.9,1.966-1.362,2.936,2.661.615,5.547,1.2,8.376,1.965C189.347,377.269,187.015,375.627,184.7,373.96Z" fill="#fcf3e1"/>
    <path id="Path_999" data-name="Path 999" d="M339.545,220.684c-.971.466-1.953.92-2.936,1.362,1.667,2.319,3.309,4.651,4.9,7.014C340.745,226.231,340.16,223.346,339.545,220.684Z" fill="#fcf3e1"/>
    <path id="Path_1000" data-name="Path 1000" d="M216.528,374.949c1.76-6.449-2.712-12.953-8.812-14.819-5.361-1.641-11.4-1.778-17-2.176-.293.982-.591,1.965-.914,2.941a1.242,1.242,0,0,1-.044.125c5.186.4,11.3.516,16.075,2.493,3.47,1.437,7.033,5.734,5.777,9.8-1.25,4.048-6.971,5.31-10.535,4.291-5.1-1.468-9.936-5.491-14.246-8.582q-.606,1.492-1.25,2.966c4.527,3.308,9.229,7.064,14.371,9.278C205.646,383.717,214.681,381.7,216.528,374.949Z" fill="#05abaa"/>
    <path id="Path_1001" data-name="Path 1001" d="M337.6,253.879c6.754-1.847,8.768-10.882,6.318-16.579-2.214-5.143-5.97-9.844-9.278-14.371q-1.475.644-2.966,1.25c3.091,4.309,7.114,9.148,8.582,14.247,1.019,3.563-.243,9.284-4.291,10.534-4.067,1.256-8.364-2.307-9.8-5.777-1.977-4.776-2.09-10.889-2.494-16.075a.828.828,0,0,1-.124.043c-.977.324-1.959.622-2.941.915.4,5.6.535,11.641,2.176,17C324.645,251.168,331.149,255.639,337.6,253.879Z" fill="#05abaa"/>
    <path id="Path_1002" data-name="Path 1002" d="M203.7,375.882c2.139.025,5.4-1.2,5.889-3.588.982-4.813-4.695-7.152-8.308-7.761-4.049-.684-8.153-1.088-12.238-1.437-.454,1.3-.927,2.6-1.418,3.881,3.115,2.2,6.287,4.347,9.539,6.343C199.153,374.539,201.28,375.851,203.7,375.882Z" fill="#f8076e"/>
    <path id="Path_1003" data-name="Path 1003" d="M334.942,246.939c2.389-.485,3.614-3.75,3.589-5.889-.031-2.419-1.343-4.546-2.562-6.536-2-3.252-4.142-6.424-6.343-9.539-1.281.491-2.581.964-3.881,1.418.349,4.085.753,8.19,1.437,12.238C327.791,242.244,330.13,247.922,334.942,246.939Z" fill="#f8076e"/>
    <path id="Path_1004" data-name="Path 1004" d="M201.833,356.654c-3.258-1.281-6.48-2.643-9.688-4.048q-.392,1.641-.839,3.264c3.817.3,7.635.647,11.435,1.138C202.436,356.89,202.138,356.778,201.833,356.654Z" fill="#fcf3e1"/>
    <path id="Path_1005" data-name="Path 1005" d="M319.657,240.092c-.491-3.8-.839-7.617-1.137-11.436q-1.623.448-3.265.84c1.4,3.209,2.767,6.43,4.048,9.688C319.428,239.489,319.539,239.788,319.657,240.092Z" fill="#fcf3e1"/>
    <path id="Path_1006" data-name="Path 1006" d="M223.561,345.765c-.584-6.685-6.187-11.168-12.605-11.5-5.3-.274-10.839.7-16.118,1.43-.088,1.076-.188,2.152-.3,3.221,3.134-.379,6.275-.7,9.427-.926,2.662-.193,5.479-.485,8.065.354,3.191,1.026,6.984,4.677,6.325,8.42-.74,4.229-6.063,6.374-9.794,5.989-5.168-.529-10.491-3.277-15.28-5.385-.2,1.051-.416,2.1-.646,3.14,5.273,2.369,10.938,5.317,16.659,6.237C215.5,357.748,224.19,352.923,223.561,345.765Z" fill="#05abaa"/>
    <path id="Path_1007" data-name="Path 1007" d="M308.414,260.912c7.158.628,11.983-8.059,10.983-14.271-.921-5.722-3.869-11.387-6.238-16.66-1.045.23-2.09.448-3.14.647,2.108,4.788,4.856,10.111,5.385,15.279.385,3.731-1.759,9.054-5.989,9.794-3.743.659-7.393-3.134-8.42-6.324-.839-2.587-.547-5.4-.354-8.066.23-3.153.548-6.293.926-9.427-1.069.118-2.145.217-3.22.3-.735,5.279-1.7,10.814-1.431,16.118C297.245,254.725,301.729,260.328,308.414,260.912Z" fill="#05abaa"/>
    <path id="Path_1008" data-name="Path 1008" d="M205.1,349.714c3.806,1.269,11.523,1.524,10.908-4.689-.486-4.838-6.94-5.211-10.466-5.006-3.769.224-7.524.6-11.274,1.064q-.261,2.07-.61,4.141C197.418,346.835,201.224,348.421,205.1,349.714Z" fill="#f8076e"/>
    <path id="Path_1009" data-name="Path 1009" d="M307.674,253.363c6.213.616,5.958-7.1,4.689-10.908-1.294-3.88-2.88-7.686-4.49-11.442-1.381.23-2.761.436-4.142.61-.459,3.749-.839,7.505-1.063,11.274C302.463,246.423,302.836,252.878,307.674,253.363Z" fill="#f8076e"/>
    <path id="Path_1010" data-name="Path 1010" d="M198.469,301.333c-1.393-.143-2.779-.3-4.172-.466.353,3.277.689,6.567.894,9.856C196.2,307.564,197.331,304.443,198.469,301.333Z" fill="#fcf3e1"/>
    <path id="Path_1011" data-name="Path 1011" d="M263.516,231.648c.168,1.392.323,2.779.466,4.172,3.11-1.138,6.231-2.27,9.39-3.277C270.083,232.338,266.793,232,263.516,231.648Z" fill="#fcf3e1"/>
    <path id="Path_1012" data-name="Path 1012" d="M195.167,327.072c.006,2.164-.056,4.328-.181,6.48,1.959-.255,3.924-.5,5.89-.721A16.756,16.756,0,0,1,195.167,327.072Z" fill="#fcf3e1"/>
    <path id="Path_1013" data-name="Path 1013" d="M295.479,238.227c.218-1.965.467-3.93.722-5.889-2.152.124-4.316.186-6.48.18A16.745,16.745,0,0,1,295.479,238.227Z" fill="#fcf3e1"/>
    <path id="Path_1014" data-name="Path 1014" d="M215.179,302.6c-1.008-.05-2.009-.106-3.017-.168,1.076,5.23,2.762,11.355,1.972,16.622-.535,3.551-3.837,8-7.9,7.792-3.961-.211-6.735-4.987-6.884-8.5-.118-2.723.808-5.429,1.567-8,.846-2.867,1.772-5.7,2.755-8.526-1.008-.087-2.009-.18-3.016-.279-2.04,5.547-4.813,11.622-5.267,17.561s4.459,12.873,10.795,12.9c6.256.025,11.467-5.615,11.76-11.641.273-5.833-1.548-12.07-2.761-17.741Z" fill="#f8076e"/>
    <path id="Path_1015" data-name="Path 1015" d="M281.755,232.736c-5.939.454-12.015,3.227-17.562,5.267.1,1.007.194,2.008.281,3.016,2.823-.983,5.659-1.909,8.525-2.755,2.568-.759,5.273-1.685,8-1.567,3.508.149,8.283,2.923,8.495,6.884.211,4.067-4.241,7.369-7.792,7.9-5.267.79-11.392-.9-16.623-1.971.063,1.007.119,2.008.168,3.015h.026c5.67,1.213,11.908,3.035,17.741,2.762,6.026-.293,11.667-5.5,11.641-11.76C294.628,237.194,287.682,232.282,281.755,232.736Z" fill="#f8076e"/>
    <path id="Path_1016" data-name="Path 1016" d="M205.975,324.4c5.422.9,6.412-6.219,5.995-9.95-.46-4.073-1.213-8.134-2-12.157-1.375-.093-2.743-.187-4.117-.3-1.313,3.775-2.55,7.575-3.6,11.43C201.268,317.048,200.876,323.546,205.975,324.4Z" fill="#05abaa"/>
    <path id="Path_1017" data-name="Path 1017" d="M287.047,243.326c-.852-5.1-7.351-4.708-10.976-3.725-3.855,1.051-7.655,2.289-11.429,3.6.111,1.374.2,2.742.3,4.116,4.023.79,8.084,1.543,12.158,2C280.828,249.737,287.949,248.749,287.047,243.326Z" fill="#05abaa"/>
    <path id="Path_1018" data-name="Path 1018" d="M241.434,252.138a26.951,26.951,0,0,0-8.246.951,26.383,26.383,0,0,0-17.45,17.45,26.952,26.952,0,0,0-.951,8.245,26.62,26.62,0,0,0,1.535,7.506c2.171.05,4.348.081,6.518.1a21.112,21.112,0,0,1,26.2-26.2c-.018-2.17-.05-4.347-.1-6.517A26.636,26.636,0,0,0,241.434,252.138Z" fill="#f8076e"/>
    <path id="Path_1019" data-name="Path 1019" d="M217.374,302.7c.7,3.271,1.368,6.554,1.915,9.857.771-3.246,1.629-6.468,2.531-9.677C220.34,302.826,218.853,302.764,217.374,302.7Z" fill="#fcf3e1"/>
    <path id="Path_1020" data-name="Path 1020" d="M265.344,254.725c.068,1.48.131,2.966.18,4.446,3.209-.9,6.43-1.76,9.676-2.531C271.9,256.093,268.615,255.421,265.344,254.725Z" fill="#fcf3e1"/>
    <path id="Path_1021" data-name="Path 1021" d="M235.625,303.2q1.251,4.626,2.276,9.3c.541,2.506,1.2,5.124.883,7.7-.416,3.445-3.451,7.922-7.375,7.922-3.974,0-7.033-4.57-7.393-8.065-.287-2.7.441-5.46,1.013-8.078.659-3,1.406-5.976,2.2-8.943-1.076-.024-2.145-.056-3.221-.087-1.636,5.678-3.98,12.064-3.887,17.972.087,5.858,4.932,12.412,11.287,12.462,6.555.05,11.436-7.008,11.293-12.972-.143-5.721-2.22-11.678-3.812-17.188C237.8,303.224,236.714,303.211,235.625,303.2Z" fill="#f8076e"/>
    <path id="Path_1022" data-name="Path 1022" d="M265.605,261.36c.032,1.076.062,2.145.087,3.221,2.966-.8,5.946-1.542,8.943-2.2,2.618-.572,5.373-1.3,8.078-1.014,3.494.361,8.065,3.42,8.065,7.394,0,3.924-4.477,6.959-7.923,7.375-2.58.318-5.2-.342-7.705-.883q-4.682-1.017-9.3-2.276c.012,1.089.025,2.177.031,3.265,5.51,1.592,11.467,3.669,17.188,3.812,5.964.143,13.022-4.738,12.972-11.293-.05-6.355-6.6-11.2-12.462-11.287C277.669,257.38,271.283,259.725,265.605,261.36Z" fill="#f8076e"/>
    <path id="Path_1023" data-name="Path 1023" d="M229.661,267.012a18.664,18.664,0,0,0-4.7,19.042,1.188,1.188,0,0,1,.05.348c8.057.038,16.071-.074,23.948-.093.019-7.877.131-15.891.094-23.948a1.181,1.181,0,0,1-.349-.05A18.664,18.664,0,0,0,229.661,267.012Z" fill="#05abaa"/>
    <path id="Path_1024" data-name="Path 1024" d="M226.484,321.5c.684,1.971,2.68,4.316,4.925,4.316s4.26-2.32,4.925-4.316c.746-2.232.293-4.633-.161-6.878-.766-3.805-1.71-7.586-2.731-11.336l-.018-.118c-1.337-.019-2.68-.044-4.018-.075a1.083,1.083,0,0,1-.03.193c-1.063,3.9-2.046,7.842-2.83,11.809C226.136,317.184,225.769,319.436,226.484,321.5Z" fill="#05abaa"/>
    <path id="Path_1025" data-name="Path 1025" d="M277.272,273.524c2.245.453,4.645.907,6.877.161,2-.665,4.316-2.686,4.316-4.925s-2.345-4.241-4.316-4.925c-2.064-.715-4.316-.348-6.4.062-3.968.784-7.9,1.766-11.809,2.83a1.167,1.167,0,0,1-.193.031c.031,1.337.056,2.68.074,4.017l.119.019C269.685,271.814,273.466,272.759,277.272,273.524Z" fill="#05abaa"/>
    <path id="Path_1026" data-name="Path 1026" d="M241.1,303.248c.958,3.427,1.879,6.872,2.669,10.348.795-3.463,1.709-6.909,2.668-10.329C244.661,303.267,242.883,303.255,241.1,303.248Z" fill="#fcf3e1"/>
    <path id="Path_1027" data-name="Path 1027" d="M276.245,281.123c-3.475-.79-6.921-1.71-10.348-2.668.006,1.779.019,3.557.019,5.336C269.336,282.833,272.781,281.919,276.245,281.123Z" fill="#fcf3e1"/>
    <path id="Path_1028" data-name="Path 1028" d="M260.369,303.248c.821,3.066,1.586,6.151,2.258,9.254.541,2.506,1.2,5.124.889,7.7-.423,3.445-3.451,7.922-7.381,7.922-3.975,0-7.028-4.57-7.4-8.065-.286-2.7.442-5.46,1.02-8.078.64-2.923,1.362-5.827,2.139-8.719h-3.252c-1.629,5.6-3.893,11.859-3.8,17.661.092,5.858,4.937,12.412,11.287,12.462,6.554.05,11.441-7.008,11.293-12.972-.144-5.715-2.214-11.666-3.807-17.17Z" fill="#f8076e"/>
    <path id="Path_1029" data-name="Path 1029" d="M265.916,286v3.253c2.892-.778,5.8-1.5,8.719-2.14,2.618-.578,5.373-1.306,8.078-1.02,3.494.367,8.065,3.421,8.065,7.394,0,3.931-4.477,6.959-7.923,7.382-2.58.311-5.2-.348-7.705-.89-3.1-.671-6.187-1.436-9.253-2.257v3.252c5.5,1.593,11.456,3.663,17.17,3.806,5.964.15,13.022-4.738,12.972-11.293-.05-6.349-6.6-11.193-12.462-11.286C277.775,282.105,271.513,284.369,265.916,286Z" fill="#f8076e"/>
    <path id="Path_1030" data-name="Path 1030" d="M251.209,321.5c.685,1.971,2.681,4.316,4.926,4.316s4.26-2.32,4.925-4.316c.746-2.232.292-4.633-.156-6.878-.771-3.805-1.716-7.586-2.73-11.336a.059.059,0,0,1-.006-.031c-1.355,0-2.712.006-4.061.006a.049.049,0,0,0-.006.025c-1.057,3.9-2.046,7.842-2.824,11.809C250.867,317.184,250.494,319.436,251.209,321.5Z" fill="#05abaa"/>
    <path id="Path_1031" data-name="Path 1031" d="M277.272,298.255c2.245.448,4.645.9,6.877.155,2-.665,4.316-2.68,4.316-4.925s-2.345-4.241-4.316-4.925c-2.064-.715-4.316-.342-6.4.069-3.968.777-7.9,1.766-11.809,2.823a.066.066,0,0,0-.025.006c0,1.349-.007,2.7-.007,4.061a.059.059,0,0,1,.032.006C269.685,296.539,273.466,297.484,277.272,298.255Z" fill="#05abaa"/>
    <path id="Path_1032" data-name="Path 1032" d="M284.292,306.893a27.78,27.78,0,0,1-7.114-.827,34.371,34.371,0,0,1,8.227,6.15c2.513,2.761,4.092,8.5,1.027,11.566s-8.806,1.487-11.567-1.026a34.372,34.372,0,0,1-6.15-8.227,27.824,27.824,0,0,1,.827,7.114c.006.006.006.006.006.013,2.226,3.494,4.8,6.915,8.955,8.134,3.612,1.063,8.867.5,11.647-2.289s3.352-8.034,2.289-11.647c-1.219-4.154-4.639-6.729-8.134-8.955A.022.022,0,0,1,284.292,306.893Z" fill="#f8076e"/>
  </g>
</svg>
