<svg id="Group_50" data-name="Group 50" xmlns="http://www.w3.org/2000/svg" width="324.783" height="87.53" viewBox="0 0 324.783 87.53">
  <g id="Group_30" data-name="Group 30" transform="translate(161.888)">
    <path id="Path_154" data-name="Path 154" d="M366.177,191.788s-3.223-9.639,1.477-21.685c5.257-13.471,22.694-20.5,57.169-5.422,31.542,13.8,47.476,42.877,75.734,38.278s28.255-31.214,17.085-41.07-28.585-6.57-36.142,1.315c0,0,9.981-14.208,31.214-7.558,21.766,6.819,18.625,36.809.986,46a38.878,38.878,0,0,1-31.214,2.628c-5.584-1.971-22.013-11.827-32.527-20.7S417,161.215,398.21,159.506C383.753,158.193,364.945,160,366.177,191.788Z" transform="translate(-365.099 -153.873)" fill="#fff"/>
    <path id="Path_155" data-name="Path 155" d="M414.486,208.55s-11.663-49.12-31.649-46.186c-18.087,2.655-11.92,22.688,4.808,23.456S416.1,176.4,433.6,187.166c18.731,11.528,2.693,26.725-3.075,20.381S433.6,191.587,443.6,193.7s13.651,12.69,13.072,15.189c0,0-1.923-10.958-13.072-13.459s-15.384,8.653-10.192,10.384,11.536-6.922,3.653-14.229-17.112-9.805-31.533-6.344-28.648,5.384-34.224-6.344,3.02-19.005,11.481-18.813c8.273.188,13.237,3.681,19.476,12.851C410.052,184.4,414.486,208.55,414.486,208.55Z" transform="translate(-360.183 -146.978)" fill="#fff"/>
  </g>
  <g id="Group_31" data-name="Group 31">
    <path id="Path_156" data-name="Path 156" d="M450.213,191.788s3.221-9.639-1.479-21.685c-5.257-13.471-22.692-20.5-57.169-5.422-31.542,13.8-47.476,42.877-75.731,38.278s-28.258-31.214-17.087-41.07,28.585-6.57,36.143,1.315c0,0-9.981-14.208-31.212-7.558-21.768,6.819-18.627,36.809-.986,46a38.873,38.873,0,0,0,31.212,2.628c5.584-1.971,22.013-11.827,32.527-20.7s32.958-22.359,51.748-24.068C432.635,158.193,451.444,160,450.213,191.788Z" transform="translate(-288.394 -153.873)" fill="#fff"/>
    <path id="Path_157" data-name="Path 157" d="M362.074,208.55s11.663-49.12,31.649-46.186c18.087,2.655,11.92,22.688-4.808,23.456s-28.456-9.421-45.952,1.346c-18.731,11.528-2.691,26.725,3.077,20.381s-3.077-15.96-13.075-13.845-13.653,12.69-13.075,15.189c0,0,1.923-10.958,13.075-13.459s15.381,8.653,10.19,10.384-11.536-6.922-3.653-14.229,17.112-9.805,31.533-6.344,28.648,5.384,34.224-6.344-3.02-19.005-11.479-18.813c-8.275.188-13.239,3.681-19.476,12.851C366.51,184.4,362.074,208.55,362.074,208.55Z" transform="translate(-253.481 -146.978)" fill="#fff"/>
  </g>
  <path id="Path_158" data-name="Path 158" d="M428.782,181.783s14.784,9.529,11.827,24.642-17.085,13.471-21.027,9.2-6.243-14.457,4.272-16.1c0,0-8.214,4.928-2.957,11.171s14.784,3.942,16.1-3.615.656-18.727-16.428-28.912S428.782,181.783,428.782,181.783Z" transform="translate(-148.193 -131.055)" fill="#fff"/>
  <path id="Path_159" data-name="Path 159" d="M315.865,181.783s-14.786,9.529-11.829,24.642,17.087,13.471,21.029,9.2,6.243-14.457-4.272-16.1c0,0,8.214,4.928,2.957,11.171s-14.784,3.942-16.1-3.615-.656-18.727,16.428-28.912S315.865,181.783,315.865,181.783Z" transform="translate(-271.458 -131.055)" fill="#fff"/>
</svg>
